<svg width="498" height="50" viewBox="0 0 498 50" fill="none" xmlns="http://www.w3.org/2000/svg">
<path d="M3.08801 11.392V11.84H8.29995e-06V11.392L0.880008 11.28C0.997342 11.2587 1.08268 11.2373 1.13601 11.216C1.18934 11.184 1.23734 11.1147 1.28001 11.008C1.32267 10.9013 1.38134 10.7307 1.45601 10.496L4.51201 0.959996H5.88801L8.96001 10.496C9.03468 10.7307 9.09334 10.9013 9.13601 11.008C9.17868 11.1147 9.22668 11.184 9.28001 11.216C9.34401 11.2373 9.42934 11.2587 9.53601 11.28L10.416 11.392V11.84H6.00001V11.392L6.88001 11.28C7.05068 11.2587 7.14134 11.216 7.15201 11.152C7.17334 11.0773 7.12534 10.8587 7.00801 10.496L6.40001 8.512H2.70401L2.08001 10.496C1.97334 10.8587 1.92534 11.0773 1.93601 11.152C1.94668 11.216 2.03734 11.2587 2.20801 11.28L3.08801 11.392ZM2.89601 7.952H6.22401L4.57601 2.64L2.89601 7.952ZM15.0668 12C14.7361 12 14.4641 11.8987 14.2508 11.696C14.0481 11.4827 13.9468 11.2053 13.9468 10.864C13.9468 10.5227 14.0481 10.2507 14.2508 10.048C14.4641 9.84533 14.7361 9.744 15.0668 9.744C15.3974 9.744 15.6694 9.84533 15.8828 10.048C16.0961 10.2507 16.2028 10.5227 16.2028 10.864C16.2028 11.2053 16.0961 11.4827 15.8828 11.696C15.6694 11.8987 15.3974 12 15.0668 12ZM33.971 9.088H34.419V11.84H26.819V11.392L27.699 11.28C27.8697 11.2587 27.971 11.216 28.003 11.152C28.035 11.0773 28.051 10.8587 28.051 10.496V2.304C28.051 1.94133 28.035 1.728 28.003 1.664C27.971 1.58933 27.8697 1.54133 27.699 1.52L26.819 1.408V0.959996H31.203V1.408L30.323 1.52C30.1523 1.54133 30.051 1.58933 30.019 1.664C29.987 1.728 29.971 1.94133 29.971 2.304V11.28H32.595C32.851 11.28 33.0323 11.2747 33.139 11.264C33.2457 11.2427 33.315 11.2053 33.347 11.152C33.3897 11.088 33.427 10.992 33.459 10.864L33.971 9.088ZM44.9506 9.936C44.7586 10.6827 44.4013 11.216 43.8786 11.536C43.356 11.8453 42.748 12 42.0546 12C40.7746 12 39.8146 11.632 39.1746 10.896C38.5346 10.1493 38.2146 9.16266 38.2146 7.936V7.616C38.2146 6.38933 38.5133 5.408 39.1106 4.672C39.7186 3.936 40.5933 3.568 41.7346 3.568C42.3746 3.568 42.94 3.696 43.4306 3.952C43.932 4.19733 44.3213 4.55466 44.5986 5.024C44.8866 5.49333 45.0306 6.064 45.0306 6.736C45.0306 6.896 45.02 7.06666 44.9986 7.248C44.988 7.42933 44.9613 7.61066 44.9186 7.792H40.1826V8.256C40.1826 9.38666 40.3426 10.2027 40.6626 10.704C40.9826 11.1947 41.5 11.44 42.2146 11.44C42.6733 11.44 43.0626 11.3067 43.3826 11.04C43.7026 10.7627 43.884 10.2987 43.9266 9.648L44.9506 9.936ZM41.7346 4.128C41.212 4.128 40.8226 4.368 40.5666 4.848C40.3106 5.328 40.1826 6.12266 40.1826 7.232H43.0786C43.1213 7.01866 43.148 6.82133 43.1586 6.64C43.18 6.448 43.1906 6.272 43.1906 6.112C43.1906 5.42933 43.0573 4.928 42.7906 4.608C42.524 4.288 42.172 4.128 41.7346 4.128ZM57.0834 11.44C56.9127 11.6 56.7047 11.7333 56.4594 11.84C56.2247 11.9467 55.9367 12 55.5954 12C55.158 12 54.79 11.904 54.4914 11.712C54.2034 11.52 54.0114 11.248 53.9154 10.896C53.5634 11.28 53.174 11.5627 52.7474 11.744C52.3314 11.9147 51.9047 12 51.4674 12C50.7314 12 50.182 11.7973 49.8194 11.392C49.4567 10.976 49.2754 10.4587 49.2754 9.84C49.2754 9.21066 49.5047 8.704 49.9634 8.32C50.422 7.92533 51.2327 7.728 52.3954 7.728H53.8514V6.432C53.8514 5.54666 53.734 4.944 53.4994 4.624C53.2754 4.29333 52.9607 4.128 52.5554 4.128C52.2887 4.128 52.0434 4.19733 51.8194 4.336C51.5954 4.464 51.4354 4.70933 51.3394 5.072C51.254 5.424 51.27 5.936 51.3874 6.608L49.6274 6.352C49.542 5.86133 49.5954 5.408 49.7874 4.992C49.99 4.56533 50.326 4.224 50.7954 3.968C51.2647 3.70133 51.862 3.568 52.5874 3.568C53.4087 3.568 54.0434 3.70133 54.4914 3.968C54.9394 4.23466 55.2487 4.58666 55.4194 5.024C55.6007 5.46133 55.6914 5.93066 55.6914 6.432V10.128C55.6914 10.672 55.7394 11.0133 55.8354 11.152C55.9314 11.2907 56.038 11.36 56.1554 11.36C56.3474 11.36 56.5607 11.248 56.7954 11.024L57.0834 11.44ZM52.1714 11.152C52.4487 11.152 52.7207 11.0827 52.9874 10.944C53.2647 10.7947 53.5527 10.5227 53.8514 10.128V8.288H52.6514C52.1287 8.288 51.75 8.41066 51.5154 8.656C51.2807 8.90133 51.1634 9.28533 51.1634 9.808C51.1634 10.2347 51.2487 10.5653 51.4194 10.8C51.59 11.0347 51.8407 11.152 52.1714 11.152ZM66.7303 5.072L64.4583 11.84H63.0023L60.7303 5.072C60.6556 4.82666 60.5916 4.656 60.5383 4.56C60.4956 4.45333 60.4423 4.384 60.3783 4.352C60.3249 4.32 60.2396 4.29866 60.1223 4.288L59.2423 4.176V3.728H63.5623V4.176L62.6823 4.288C62.5223 4.30933 62.4369 4.352 62.4263 4.416C62.4156 4.48 62.4689 4.69866 62.5863 5.072L64.3463 10.384L66.1223 5.072C66.2396 4.69866 66.2929 4.48 66.2823 4.416C66.2823 4.352 66.1969 4.30933 66.0263 4.288L65.1463 4.176V3.728H68.2023V4.176L67.3223 4.288C67.2156 4.29866 67.1303 4.32 67.0663 4.352C67.0129 4.384 66.9649 4.45333 66.9223 4.56C66.8796 4.656 66.8156 4.82666 66.7303 5.072ZM77.8606 9.936C77.6686 10.6827 77.3113 11.216 76.7886 11.536C76.266 11.8453 75.658 12 74.9646 12C73.6846 12 72.7246 11.632 72.0846 10.896C71.4446 10.1493 71.1246 9.16266 71.1246 7.936V7.616C71.1246 6.38933 71.4233 5.408 72.0206 4.672C72.6286 3.936 73.5033 3.568 74.6446 3.568C75.2846 3.568 75.85 3.696 76.3406 3.952C76.842 4.19733 77.2313 4.55466 77.5086 5.024C77.7966 5.49333 77.9406 6.064 77.9406 6.736C77.9406 6.896 77.93 7.06666 77.9086 7.248C77.898 7.42933 77.8713 7.61066 77.8286 7.792H73.0926V8.256C73.0926 9.38666 73.2526 10.2027 73.5726 10.704C73.8926 11.1947 74.41 11.44 75.1246 11.44C75.5833 11.44 75.9726 11.3067 76.2926 11.04C76.6126 10.7627 76.794 10.2987 76.8366 9.648L77.8606 9.936ZM74.6446 4.128C74.122 4.128 73.7326 4.368 73.4766 4.848C73.2206 5.328 73.0926 6.12266 73.0926 7.232H75.9886C76.0313 7.01866 76.058 6.82133 76.0686 6.64C76.09 6.448 76.1006 6.272 76.1006 6.112C76.1006 5.42933 75.9673 4.928 75.7006 4.608C75.434 4.288 75.082 4.128 74.6446 4.128ZM92.6115 12.64C92.3662 13.312 92.0942 13.8507 91.7955 14.256C91.5075 14.6613 91.1502 14.9547 90.7235 15.136C90.2968 15.3173 89.7635 15.408 89.1235 15.408V13.648C89.7742 13.648 90.2968 13.6 90.6915 13.504C91.0968 13.4187 91.4062 13.2747 91.6195 13.072C91.8435 12.88 92.0088 12.6293 92.1155 12.32L92.2755 11.84H91.4435L89.1715 5.072C89.0968 4.82666 89.0328 4.656 88.9795 4.56C88.9368 4.45333 88.8835 4.384 88.8195 4.352C88.7662 4.32 88.6808 4.29866 88.5635 4.288L87.6835 4.176V3.728H92.0035V4.176L91.1235 4.288C90.9955 4.29866 90.9155 4.34133 90.8835 4.416C90.8622 4.48 90.9102 4.69866 91.0275 5.072L92.7715 10.352L94.5795 5.008C94.6968 4.66666 94.7448 4.46933 94.7235 4.416C94.7128 4.352 94.6275 4.30933 94.4675 4.288L93.5875 4.176V3.728H96.6435V4.176L95.7635 4.288C95.6035 4.30933 95.4968 4.352 95.4435 4.416C95.3902 4.48 95.3048 4.67733 95.1875 5.008L92.6115 12.64ZM106.878 7.616V7.936C106.878 9.16266 106.558 10.1493 105.918 10.896C105.289 11.632 104.387 12 103.214 12C102.041 12 101.134 11.632 100.494 10.896C99.8645 10.1493 99.5499 9.16266 99.5499 7.936V7.616C99.5499 6.38933 99.8645 5.408 100.494 4.672C101.134 3.936 102.041 3.568 103.214 3.568C104.387 3.568 105.289 3.936 105.918 4.672C106.558 5.408 106.878 6.38933 106.878 7.616ZM104.91 7.296C104.91 6.15466 104.766 5.344 104.478 4.864C104.19 4.37333 103.769 4.128 103.214 4.128C102.67 4.128 102.249 4.37333 101.95 4.864C101.662 5.344 101.518 6.15466 101.518 7.296V8.256C101.518 9.38666 101.662 10.2027 101.95 10.704C102.249 11.1947 102.67 11.44 103.214 11.44C103.769 11.44 104.19 11.1947 104.478 10.704C104.766 10.2027 104.91 9.38666 104.91 8.256V7.296ZM119.862 11.392V11.84H116.886V10.432C116.588 10.976 116.204 11.376 115.734 11.632C115.265 11.8773 114.79 12 114.31 12C113.553 12 112.95 11.7493 112.502 11.248C112.054 10.736 111.83 10.0267 111.83 9.12V5.072C111.83 4.70933 111.814 4.496 111.782 4.432C111.75 4.35733 111.649 4.30933 111.478 4.288L110.598 4.176V3.728H113.67V9.104C113.67 9.84 113.772 10.3787 113.974 10.72C114.188 11.0507 114.492 11.216 114.886 11.216C115.057 11.216 115.254 11.1733 115.478 11.088C115.713 10.992 115.948 10.8267 116.182 10.592C116.417 10.3467 116.62 10 116.79 9.552V5.072C116.79 4.70933 116.774 4.49066 116.742 4.416C116.71 4.34133 116.609 4.29866 116.438 4.288L115.238 4.176V3.728H118.63V10.496C118.63 10.8587 118.646 11.0773 118.678 11.152C118.71 11.216 118.812 11.2587 118.982 11.28L119.862 11.392ZM123.213 4.176V3.728H126.189V5.04C126.84 4.05866 127.613 3.568 128.509 3.568C128.84 3.568 129.16 3.67466 129.469 3.888C129.779 4.09066 130.035 4.47466 130.237 5.04L128.813 5.808C128.664 5.37066 128.488 5.07733 128.285 4.928C128.093 4.768 127.885 4.688 127.661 4.688C127.427 4.688 127.197 4.76266 126.973 4.912C126.749 5.06133 126.52 5.33866 126.285 5.744V10.496C126.285 10.8587 126.301 11.0773 126.333 11.152C126.365 11.216 126.467 11.2587 126.637 11.28L127.837 11.392V11.84H123.213V11.392L124.093 11.28C124.264 11.2587 124.365 11.216 124.397 11.152C124.429 11.0773 124.445 10.8587 124.445 10.496V5.072C124.445 4.70933 124.429 4.496 124.397 4.432C124.365 4.35733 124.264 4.30933 124.093 4.288L123.213 4.176ZM150.694 5.072L148.95 11.84H147.494L145.574 5.408L143.638 11.84H142.31L140.582 5.072C140.518 4.82666 140.465 4.656 140.422 4.56C140.39 4.45333 140.347 4.384 140.294 4.352C140.241 4.32 140.161 4.29866 140.054 4.288L139.174 4.176V3.728H143.43V4.176L142.55 4.288C142.379 4.30933 142.283 4.35733 142.262 4.432C142.241 4.496 142.278 4.70933 142.374 5.072L143.622 9.888L145.462 3.728H146.87L148.774 10.16L150.07 5.072C150.166 4.70933 150.203 4.496 150.182 4.432C150.161 4.35733 150.065 4.30933 149.894 4.288L149.014 4.176V3.728H152.102V4.176L151.222 4.288C151.115 4.29866 151.035 4.32 150.982 4.352C150.929 4.384 150.881 4.45333 150.838 4.56C150.806 4.656 150.758 4.82666 150.694 5.072ZM162.494 7.616V7.936C162.494 9.16266 162.174 10.1493 161.534 10.896C160.904 11.632 160.003 12 158.83 12C157.656 12 156.75 11.632 156.11 10.896C155.48 10.1493 155.166 9.16266 155.166 7.936V7.616C155.166 6.38933 155.48 5.408 156.11 4.672C156.75 3.936 157.656 3.568 158.83 3.568C160.003 3.568 160.904 3.936 161.534 4.672C162.174 5.408 162.494 6.38933 162.494 7.616ZM160.526 7.296C160.526 6.15466 160.382 5.344 160.094 4.864C159.806 4.37333 159.384 4.128 158.83 4.128C158.286 4.128 157.864 4.37333 157.566 4.864C157.278 5.344 157.134 6.15466 157.134 7.296V8.256C157.134 9.38666 157.278 10.2027 157.566 10.704C157.864 11.1947 158.286 11.44 158.83 11.44C159.384 11.44 159.806 11.1947 160.094 10.704C160.382 10.2027 160.526 9.38666 160.526 8.256V7.296ZM166.406 4.176V3.728H169.382V5.04C170.033 4.05866 170.806 3.568 171.702 3.568C172.033 3.568 172.353 3.67466 172.662 3.888C172.971 4.09066 173.227 4.47466 173.43 5.04L172.006 5.808C171.857 5.37066 171.681 5.07733 171.478 4.928C171.286 4.768 171.078 4.688 170.854 4.688C170.619 4.688 170.39 4.76266 170.166 4.912C169.942 5.06133 169.713 5.33866 169.478 5.744V10.496C169.478 10.8587 169.494 11.0773 169.526 11.152C169.558 11.216 169.659 11.2587 169.83 11.28L171.03 11.392V11.84H166.406V11.392L167.286 11.28C167.457 11.2587 167.558 11.216 167.59 11.152C167.622 11.0773 167.638 10.8587 167.638 10.496V5.072C167.638 4.70933 167.622 4.496 167.59 4.432C167.558 4.35733 167.457 4.30933 167.286 4.288L166.406 4.176ZM176.092 0.447996V-3.8147e-06H179.164V7.76L181.98 5.072C182.353 4.72 182.551 4.50666 182.572 4.432C182.604 4.35733 182.529 4.30933 182.348 4.288L181.468 4.176V3.728H184.748V4.176L183.868 4.288C183.772 4.29866 183.692 4.32 183.628 4.352C183.564 4.384 183.473 4.45333 183.356 4.56C183.239 4.656 183.052 4.82666 182.796 5.072L181.26 6.544L183.532 10.496C183.681 10.7413 183.793 10.9173 183.868 11.024C183.943 11.12 184.012 11.184 184.076 11.216C184.151 11.2373 184.241 11.2587 184.348 11.28L185.228 11.392V11.84H182.172L179.948 7.792L179.164 8.544V10.496C179.164 10.8587 179.18 11.0773 179.212 11.152C179.244 11.216 179.345 11.2587 179.516 11.28L180.396 11.392V11.84H176.092V11.392L176.972 11.28C177.143 11.2587 177.244 11.216 177.276 11.152C177.308 11.0773 177.324 10.8587 177.324 10.496V1.344C177.324 0.981329 177.308 0.767996 177.276 0.703996C177.244 0.629329 177.143 0.581329 176.972 0.559996L176.092 0.447996ZM202.788 11.44C202.618 11.6 202.41 11.7333 202.164 11.84C201.93 11.9467 201.642 12 201.3 12C200.863 12 200.495 11.904 200.196 11.712C199.908 11.52 199.716 11.248 199.62 10.896C199.268 11.28 198.879 11.5627 198.452 11.744C198.036 11.9147 197.61 12 197.172 12C196.436 12 195.887 11.7973 195.524 11.392C195.162 10.976 194.98 10.4587 194.98 9.84C194.98 9.21066 195.21 8.704 195.668 8.32C196.127 7.92533 196.938 7.728 198.1 7.728H199.556V6.432C199.556 5.54666 199.439 4.944 199.204 4.624C198.98 4.29333 198.666 4.128 198.26 4.128C197.994 4.128 197.748 4.19733 197.524 4.336C197.3 4.464 197.14 4.70933 197.044 5.072C196.959 5.424 196.975 5.936 197.092 6.608L195.332 6.352C195.247 5.86133 195.3 5.408 195.492 4.992C195.695 4.56533 196.031 4.224 196.5 3.968C196.97 3.70133 197.567 3.568 198.292 3.568C199.114 3.568 199.748 3.70133 200.196 3.968C200.644 4.23466 200.954 4.58666 201.124 5.024C201.306 5.46133 201.396 5.93066 201.396 6.432V10.128C201.396 10.672 201.444 11.0133 201.54 11.152C201.636 11.2907 201.743 11.36 201.86 11.36C202.052 11.36 202.266 11.248 202.5 11.024L202.788 11.44ZM197.876 11.152C198.154 11.152 198.426 11.0827 198.692 10.944C198.97 10.7947 199.258 10.5227 199.556 10.128V8.288H198.356C197.834 8.288 197.455 8.41066 197.22 8.656C196.986 8.90133 196.868 9.28533 196.868 9.808C196.868 10.2347 196.954 10.5653 197.124 10.8C197.295 11.0347 197.546 11.152 197.876 11.152ZM215.382 11.392V11.84H211.078V11.392L211.958 11.28C212.128 11.2587 212.23 11.216 212.262 11.152C212.294 11.0773 212.31 10.8587 212.31 10.496V6.464C212.31 5.728 212.198 5.19466 211.974 4.864C211.76 4.52266 211.44 4.352 211.014 4.352C210.832 4.352 210.619 4.4 210.374 4.496C210.139 4.58133 209.899 4.74133 209.654 4.976C209.419 5.21066 209.211 5.55733 209.03 6.016V10.496C209.03 10.8587 209.046 11.0773 209.078 11.152C209.11 11.216 209.211 11.2587 209.382 11.28L210.262 11.392V11.84H205.958V11.392L206.838 11.28C207.008 11.2587 207.11 11.216 207.142 11.152C207.174 11.0773 207.19 10.8587 207.19 10.496V5.072C207.19 4.70933 207.174 4.496 207.142 4.432C207.11 4.35733 207.008 4.30933 206.838 4.288L205.958 4.176V3.728H208.934V5.136C209.243 4.592 209.638 4.19733 210.118 3.952C210.608 3.696 211.099 3.568 211.59 3.568C212.379 3.568 213.003 3.81866 213.462 4.32C213.92 4.82133 214.15 5.53066 214.15 6.448V10.496C214.15 10.8587 214.166 11.0773 214.198 11.152C214.23 11.216 214.331 11.2587 214.502 11.28L215.382 11.392ZM227.383 11.392V11.84H224.407V10.512C224.108 11.0027 223.772 11.376 223.399 11.632C223.036 11.8773 222.604 12 222.103 12C221.207 12 220.492 11.648 219.959 10.944C219.436 10.2293 219.175 9.232 219.175 7.952V7.632C219.175 6.39466 219.479 5.408 220.087 4.672C220.705 3.936 221.548 3.568 222.615 3.568C223.255 3.568 223.82 3.728 224.311 4.048V1.344C224.311 0.981329 224.295 0.767996 224.263 0.703996C224.231 0.629329 224.129 0.581329 223.959 0.559996L223.079 0.447996V-3.8147e-06H226.151V10.496C226.151 10.8587 226.167 11.0773 226.199 11.152C226.231 11.216 226.332 11.2587 226.503 11.28L227.383 11.392ZM221.143 8.432C221.143 9.424 221.265 10.1493 221.511 10.608C221.756 11.0667 222.092 11.296 222.519 11.296C222.785 11.296 223.063 11.1893 223.351 10.976C223.649 10.752 223.969 10.304 224.311 9.632V4.8C223.905 4.39466 223.409 4.192 222.823 4.192C222.236 4.192 221.809 4.45866 221.543 4.992C221.276 5.51466 221.143 6.23466 221.143 7.152V8.432ZM244.832 12.672C244.832 13.5467 244.501 14.2187 243.84 14.688C243.189 15.168 242.293 15.408 241.152 15.408C239.893 15.408 238.955 15.2 238.336 14.784C237.717 14.3787 237.381 13.872 237.328 13.264L239.04 12.992C238.997 13.5573 239.131 14.0053 239.44 14.336C239.76 14.6773 240.331 14.848 241.152 14.848C241.92 14.848 242.539 14.704 243.008 14.416C243.488 14.128 243.728 13.712 243.728 13.168C243.728 12.784 243.584 12.4907 243.296 12.288C243.019 12.096 242.555 12 241.904 12H240.08C239.515 12 239.067 11.92 238.736 11.76C238.416 11.6 238.192 11.4027 238.064 11.168C237.936 10.9227 237.872 10.672 237.872 10.416C237.872 10.1067 237.957 9.80266 238.128 9.504C238.299 9.19466 238.592 8.89066 239.008 8.592C238.549 8.38933 238.176 8.09066 237.888 7.696C237.6 7.30133 237.456 6.81066 237.456 6.224C237.456 5.62666 237.595 5.136 237.872 4.752C238.149 4.35733 238.523 4.064 238.992 3.872C239.461 3.66933 239.984 3.568 240.56 3.568H240.832C241.451 3.568 241.984 3.66933 242.432 3.872L244.736 2.736L244.928 4.304H243.104C243.36 4.528 243.557 4.8 243.696 5.12C243.845 5.42933 243.92 5.79733 243.92 6.224C243.92 6.8 243.781 7.28533 243.504 7.68C243.227 8.07466 242.853 8.37333 242.384 8.576C241.925 8.77866 241.408 8.88 240.832 8.88H240.56C240.24 8.88 239.925 8.848 239.616 8.784C239.349 8.96533 239.163 9.14133 239.056 9.312C238.96 9.472 238.912 9.62666 238.912 9.776C238.912 9.94666 238.987 10.0747 239.136 10.16C239.296 10.2453 239.552 10.288 239.904 10.288H241.984C242.901 10.288 243.605 10.496 244.096 10.912C244.587 11.3173 244.832 11.904 244.832 12.672ZM240.832 8.32C241.173 8.32 241.467 8.17066 241.712 7.872C241.957 7.57333 242.08 7.024 242.08 6.224C242.08 5.424 241.957 4.87466 241.712 4.576C241.467 4.27733 241.173 4.128 240.832 4.128H240.56C240.219 4.128 239.92 4.27733 239.664 4.576C239.419 4.87466 239.296 5.424 239.296 6.224C239.296 7.024 239.419 7.57333 239.664 7.872C239.92 8.17066 240.219 8.32 240.56 8.32H240.832ZM256.052 7.616V7.936C256.052 9.16266 255.732 10.1493 255.092 10.896C254.462 11.632 253.561 12 252.388 12C251.214 12 250.308 11.632 249.668 10.896C249.038 10.1493 248.724 9.16266 248.724 7.936V7.616C248.724 6.38933 249.038 5.408 249.668 4.672C250.308 3.936 251.214 3.568 252.388 3.568C253.561 3.568 254.462 3.936 255.092 4.672C255.732 5.408 256.052 6.38933 256.052 7.616ZM254.084 7.296C254.084 6.15466 253.94 5.344 253.652 4.864C253.364 4.37333 252.942 4.128 252.388 4.128C251.844 4.128 251.422 4.37333 251.124 4.864C250.836 5.344 250.692 6.15466 250.692 7.296V8.256C250.692 9.38666 250.836 10.2027 251.124 10.704C251.422 11.1947 251.844 11.44 252.388 11.44C252.942 11.44 253.364 11.1947 253.652 10.704C253.94 10.2027 254.084 9.38666 254.084 8.256V7.296ZM274.054 7.616V7.936C274.054 9.16266 273.734 10.1493 273.094 10.896C272.465 11.632 271.563 12 270.39 12C269.217 12 268.31 11.632 267.67 10.896C267.041 10.1493 266.726 9.16266 266.726 7.936V7.616C266.726 6.38933 267.041 5.408 267.67 4.672C268.31 3.936 269.217 3.568 270.39 3.568C271.563 3.568 272.465 3.936 273.094 4.672C273.734 5.408 274.054 6.38933 274.054 7.616ZM272.086 7.296C272.086 6.15466 271.942 5.344 271.654 4.864C271.366 4.37333 270.945 4.128 270.39 4.128C269.846 4.128 269.425 4.37333 269.126 4.864C268.838 5.344 268.694 6.15466 268.694 7.296V8.256C268.694 9.38666 268.838 10.2027 269.126 10.704C269.425 11.1947 269.846 11.44 270.39 11.44C270.945 11.44 271.366 11.1947 271.654 10.704C271.942 10.2027 272.086 9.38666 272.086 8.256V7.296ZM287.039 11.392V11.84H284.063V10.432C283.764 10.976 283.38 11.376 282.911 11.632C282.441 11.8773 281.967 12 281.487 12C280.729 12 280.127 11.7493 279.679 11.248C279.231 10.736 279.007 10.0267 279.007 9.12V5.072C279.007 4.70933 278.991 4.496 278.959 4.432C278.927 4.35733 278.825 4.30933 278.655 4.288L277.775 4.176V3.728H280.847V9.104C280.847 9.84 280.948 10.3787 281.151 10.72C281.364 11.0507 281.668 11.216 282.063 11.216C282.233 11.216 282.431 11.1733 282.655 11.088C282.889 10.992 283.124 10.8267 283.359 10.592C283.593 10.3467 283.796 10 283.967 9.552V5.072C283.967 4.70933 283.951 4.49066 283.919 4.416C283.887 4.34133 283.785 4.29866 283.615 4.288L282.415 4.176V3.728H285.807V10.496C285.807 10.8587 285.823 11.0773 285.855 11.152C285.887 11.216 285.988 11.2587 286.159 11.28L287.039 11.392ZM296.086 10.176C295.947 10.8267 295.68 11.296 295.286 11.584C294.902 11.8613 294.432 12 293.878 12C293.312 12 292.848 11.8773 292.486 11.632C292.123 11.376 291.856 11.04 291.686 10.624C291.515 10.208 291.43 9.76533 291.43 9.296V5.072C291.43 4.70933 291.414 4.496 291.382 4.432C291.35 4.35733 291.248 4.30933 291.078 4.288L290.198 4.176V3.728H291.43V1.872L293.27 1.504V3.728H295.83V4.288H293.27V9.616C293.27 10.2987 293.355 10.7733 293.526 11.04C293.696 11.296 293.915 11.424 294.182 11.424C294.459 11.424 294.672 11.3173 294.822 11.104C294.982 10.8907 295.083 10.5013 295.126 9.936L296.086 10.176ZM303.07 8.816L301.966 8.56C301.251 8.38933 300.718 8.08533 300.366 7.648C300.025 7.2 299.854 6.672 299.854 6.064C299.854 5.616 299.95 5.20533 300.142 4.832C300.345 4.448 300.659 4.144 301.086 3.92C301.513 3.68533 302.067 3.568 302.75 3.568C303.486 3.568 304.083 3.68533 304.542 3.92C305.001 4.15466 305.326 4.464 305.518 4.848C305.71 5.232 305.769 5.64266 305.694 6.08L303.934 6.4C304.083 5.67466 304.041 5.11466 303.806 4.72C303.582 4.32533 303.203 4.128 302.67 4.128C302.297 4.128 301.987 4.24 301.742 4.464C301.497 4.67733 301.374 4.98666 301.374 5.392C301.374 5.76533 301.481 6.096 301.694 6.384C301.907 6.66133 302.222 6.848 302.638 6.944L303.742 7.2C304.531 7.38133 305.102 7.66933 305.454 8.064C305.806 8.448 305.982 8.928 305.982 9.504C305.982 10.2187 305.715 10.816 305.182 11.296C304.659 11.7653 303.875 12 302.83 12C302.467 12 302.067 11.9467 301.63 11.84C301.203 11.7227 300.809 11.5147 300.446 11.216C300.094 10.9173 299.838 10.4907 299.678 9.936L300.718 9.52C300.793 10.224 301.033 10.72 301.438 11.008C301.854 11.296 302.318 11.44 302.83 11.44C303.31 11.44 303.699 11.3333 303.998 11.12C304.307 10.896 304.462 10.576 304.462 10.16C304.462 9.872 304.361 9.61066 304.158 9.376C303.966 9.13066 303.603 8.944 303.07 8.816ZM311.974 2.352C311.643 2.352 311.376 2.25066 311.174 2.048C310.971 1.83466 310.87 1.56266 310.87 1.232C310.87 0.901329 310.971 0.634663 311.174 0.431995C311.376 0.229329 311.643 0.127995 311.974 0.127995C312.294 0.127995 312.56 0.229329 312.774 0.431995C312.987 0.634663 313.094 0.901329 313.094 1.232C313.094 1.56266 312.987 1.83466 312.774 2.048C312.56 2.25066 312.294 2.352 311.974 2.352ZM309.83 4.176V3.728H312.902V10.496C312.902 10.8587 312.918 11.0773 312.95 11.152C312.982 11.216 313.083 11.2587 313.254 11.28L314.134 11.392V11.84H309.83V11.392L310.71 11.28C310.88 11.2587 310.982 11.216 311.014 11.152C311.046 11.0773 311.062 10.8587 311.062 10.496V5.072C311.062 4.70933 311.046 4.496 311.014 4.432C310.982 4.35733 310.88 4.30933 310.71 4.288L309.83 4.176ZM326.208 11.392V11.84H323.232V10.512C322.933 11.0027 322.597 11.376 322.224 11.632C321.861 11.8773 321.429 12 320.928 12C320.032 12 319.317 11.648 318.784 10.944C318.261 10.2293 318 9.232 318 7.952V7.632C318 6.39466 318.304 5.408 318.912 4.672C319.53 3.936 320.373 3.568 321.44 3.568C322.08 3.568 322.645 3.728 323.136 4.048V1.344C323.136 0.981329 323.12 0.767996 323.088 0.703996C323.056 0.629329 322.954 0.581329 322.784 0.559996L321.904 0.447996V-3.8147e-06H324.976V10.496C324.976 10.8587 324.992 11.0773 325.024 11.152C325.056 11.216 325.157 11.2587 325.328 11.28L326.208 11.392ZM319.968 8.432C319.968 9.424 320.09 10.1493 320.336 10.608C320.581 11.0667 320.917 11.296 321.344 11.296C321.61 11.296 321.888 11.1893 322.176 10.976C322.474 10.752 322.794 10.304 323.136 9.632V4.8C322.73 4.39466 322.234 4.192 321.648 4.192C321.061 4.192 320.634 4.45866 320.368 4.992C320.101 5.51466 319.968 6.23466 319.968 7.152V8.432ZM336.767 9.936C336.575 10.6827 336.218 11.216 335.695 11.536C335.172 11.8453 334.564 12 333.871 12C332.591 12 331.631 11.632 330.991 10.896C330.351 10.1493 330.031 9.16266 330.031 7.936V7.616C330.031 6.38933 330.33 5.408 330.927 4.672C331.535 3.936 332.41 3.568 333.551 3.568C334.191 3.568 334.756 3.696 335.247 3.952C335.748 4.19733 336.138 4.55466 336.415 5.024C336.703 5.49333 336.847 6.064 336.847 6.736C336.847 6.896 336.836 7.06666 336.815 7.248C336.804 7.42933 336.778 7.61066 336.735 7.792H331.999V8.256C331.999 9.38666 332.159 10.2027 332.479 10.704C332.799 11.1947 333.316 11.44 334.031 11.44C334.49 11.44 334.879 11.3067 335.199 11.04C335.519 10.7627 335.7 10.2987 335.743 9.648L336.767 9.936ZM333.551 4.128C333.028 4.128 332.639 4.368 332.383 4.848C332.127 5.328 331.999 6.12266 331.999 7.232H334.895C334.938 7.01866 334.964 6.82133 334.975 6.64C334.996 6.448 335.007 6.272 335.007 6.112C335.007 5.42933 334.874 4.928 334.607 4.608C334.34 4.288 333.988 4.128 333.551 4.128ZM342.404 12C342.073 12 341.801 11.8987 341.588 11.696C341.385 11.4827 341.284 11.2053 341.284 10.864C341.284 10.5227 341.385 10.2507 341.588 10.048C341.801 9.84533 342.073 9.744 342.404 9.744C342.734 9.744 343.006 9.84533 343.22 10.048C343.433 10.2507 343.54 10.5227 343.54 10.864C343.54 11.2053 343.433 11.4827 343.22 11.696C343.006 11.8987 342.734 12 342.404 12ZM353.66 0.959996H362.46V3.712H362.012L361.5 1.936C361.468 1.79733 361.431 1.70133 361.388 1.648C361.356 1.584 361.287 1.54666 361.18 1.536C361.073 1.52533 360.892 1.52 360.636 1.52H359.02V10.496C359.02 10.8587 359.036 11.0773 359.068 11.152C359.1 11.216 359.201 11.2587 359.372 11.28L360.252 11.392V11.84H355.868V11.392L356.748 11.28C356.919 11.2587 357.02 11.216 357.052 11.152C357.084 11.0773 357.1 10.8587 357.1 10.496V1.52H355.484C355.239 1.52 355.057 1.52533 354.94 1.536C354.833 1.54666 354.764 1.584 354.732 1.648C354.7 1.70133 354.663 1.79733 354.62 1.936L354.108 3.712H353.66V0.959996ZM373.747 11.44C373.576 11.6 373.368 11.7333 373.123 11.84C372.888 11.9467 372.6 12 372.259 12C371.822 12 371.454 11.904 371.155 11.712C370.867 11.52 370.675 11.248 370.579 10.896C370.227 11.28 369.838 11.5627 369.411 11.744C368.995 11.9147 368.568 12 368.131 12C367.395 12 366.846 11.7973 366.483 11.392C366.12 10.976 365.939 10.4587 365.939 9.84C365.939 9.21066 366.168 8.704 366.627 8.32C367.086 7.92533 367.896 7.728 369.059 7.728H370.515V6.432C370.515 5.54666 370.398 4.944 370.163 4.624C369.939 4.29333 369.624 4.128 369.219 4.128C368.952 4.128 368.707 4.19733 368.483 4.336C368.259 4.464 368.099 4.70933 368.003 5.072C367.918 5.424 367.934 5.936 368.051 6.608L366.291 6.352C366.206 5.86133 366.259 5.408 366.451 4.992C366.654 4.56533 366.99 4.224 367.459 3.968C367.928 3.70133 368.526 3.568 369.251 3.568C370.072 3.568 370.707 3.70133 371.155 3.968C371.603 4.23466 371.912 4.58666 372.083 5.024C372.264 5.46133 372.355 5.93066 372.355 6.432V10.128C372.355 10.672 372.403 11.0133 372.499 11.152C372.595 11.2907 372.702 11.36 372.819 11.36C373.011 11.36 373.224 11.248 373.459 11.024L373.747 11.44ZM368.835 11.152C369.112 11.152 369.384 11.0827 369.651 10.944C369.928 10.7947 370.216 10.5227 370.515 10.128V8.288H369.315C368.792 8.288 368.414 8.41066 368.179 8.656C367.944 8.90133 367.827 9.28533 367.827 9.808C367.827 10.2347 367.912 10.5653 368.083 10.8C368.254 11.0347 368.504 11.152 368.835 11.152ZM376.805 0.447996V-3.8147e-06H379.877V7.76L382.693 5.072C383.066 4.72 383.263 4.50666 383.285 4.432C383.317 4.35733 383.242 4.30933 383.061 4.288L382.181 4.176V3.728H385.461V4.176L384.581 4.288C384.485 4.29866 384.405 4.32 384.341 4.352C384.277 4.384 384.186 4.45333 384.069 4.56C383.951 4.656 383.765 4.82666 383.509 5.072L381.973 6.544L384.245 10.496C384.394 10.7413 384.506 10.9173 384.581 11.024C384.655 11.12 384.725 11.184 384.789 11.216C384.863 11.2373 384.954 11.2587 385.061 11.28L385.941 11.392V11.84H382.885L380.661 7.792L379.877 8.544V10.496C379.877 10.8587 379.893 11.0773 379.925 11.152C379.957 11.216 380.058 11.2587 380.229 11.28L381.109 11.392V11.84H376.805V11.392L377.685 11.28C377.855 11.2587 377.957 11.216 377.989 11.152C378.021 11.0773 378.037 10.8587 378.037 10.496V1.344C378.037 0.981329 378.021 0.767996 377.989 0.703996C377.957 0.629329 377.855 0.581329 377.685 0.559996L376.805 0.447996ZM396.103 9.936C395.911 10.6827 395.553 11.216 395.031 11.536C394.508 11.8453 393.9 12 393.207 12C391.927 12 390.967 11.632 390.327 10.896C389.687 10.1493 389.367 9.16266 389.367 7.936V7.616C389.367 6.38933 389.665 5.408 390.263 4.672C390.871 3.936 391.745 3.568 392.887 3.568C393.527 3.568 394.092 3.696 394.583 3.952C395.084 4.19733 395.473 4.55466 395.751 5.024C396.039 5.49333 396.183 6.064 396.183 6.736C396.183 6.896 396.172 7.06666 396.151 7.248C396.14 7.42933 396.113 7.61066 396.071 7.792H391.335V8.256C391.335 9.38666 391.495 10.2027 391.815 10.704C392.135 11.1947 392.652 11.44 393.367 11.44C393.825 11.44 394.215 11.3067 394.535 11.04C394.855 10.7627 395.036 10.2987 395.079 9.648L396.103 9.936ZM392.887 4.128C392.364 4.128 391.975 4.368 391.719 4.848C391.463 5.328 391.335 6.12266 391.335 7.232H394.231C394.273 7.01866 394.3 6.82133 394.311 6.64C394.332 6.448 394.343 6.272 394.343 6.112C394.343 5.42933 394.209 4.928 393.943 4.608C393.676 4.288 393.324 4.128 392.887 4.128ZM414.533 11.44C414.363 11.6 414.155 11.7333 413.909 11.84C413.675 11.9467 413.387 12 413.045 12C412.608 12 412.24 11.904 411.941 11.712C411.653 11.52 411.461 11.248 411.365 10.896C411.013 11.28 410.624 11.5627 410.197 11.744C409.781 11.9147 409.355 12 408.917 12C408.181 12 407.632 11.7973 407.269 11.392C406.907 10.976 406.725 10.4587 406.725 9.84C406.725 9.21066 406.955 8.704 407.413 8.32C407.872 7.92533 408.683 7.728 409.845 7.728H411.301V6.432C411.301 5.54666 411.184 4.944 410.949 4.624C410.725 4.29333 410.411 4.128 410.005 4.128C409.739 4.128 409.493 4.19733 409.269 4.336C409.045 4.464 408.885 4.70933 408.789 5.072C408.704 5.424 408.72 5.936 408.837 6.608L407.077 6.352C406.992 5.86133 407.045 5.408 407.237 4.992C407.44 4.56533 407.776 4.224 408.245 3.968C408.715 3.70133 409.312 3.568 410.037 3.568C410.859 3.568 411.493 3.70133 411.941 3.968C412.389 4.23466 412.699 4.58666 412.869 5.024C413.051 5.46133 413.141 5.93066 413.141 6.432V10.128C413.141 10.672 413.189 11.0133 413.285 11.152C413.381 11.2907 413.488 11.36 413.605 11.36C413.797 11.36 414.011 11.248 414.245 11.024L414.533 11.44ZM409.621 11.152C409.899 11.152 410.171 11.0827 410.437 10.944C410.715 10.7947 411.003 10.5227 411.301 10.128V8.288H410.101C409.579 8.288 409.2 8.41066 408.965 8.656C408.731 8.90133 408.613 9.28533 408.613 9.808C408.613 10.2347 408.699 10.5653 408.869 10.8C409.04 11.0347 409.291 11.152 409.621 11.152ZM435.073 5.072L433.329 11.84H431.873L429.953 5.408L428.017 11.84H426.689L424.961 5.072C424.897 4.82666 424.844 4.656 424.801 4.56C424.769 4.45333 424.726 4.384 424.673 4.352C424.62 4.32 424.54 4.29866 424.433 4.288L423.553 4.176V3.728H427.809V4.176L426.929 4.288C426.758 4.30933 426.662 4.35733 426.641 4.432C426.62 4.496 426.657 4.70933 426.753 5.072L428.001 9.888L429.841 3.728H431.249L433.153 10.16L434.449 5.072C434.545 4.70933 434.582 4.496 434.561 4.432C434.54 4.35733 434.444 4.30933 434.273 4.288L433.393 4.176V3.728H436.481V4.176L435.601 4.288C435.494 4.29866 435.414 4.32 435.361 4.352C435.308 4.384 435.26 4.45333 435.217 4.56C435.185 4.656 435.137 4.82666 435.073 5.072ZM447.334 11.44C447.163 11.6 446.955 11.7333 446.71 11.84C446.475 11.9467 446.187 12 445.846 12C445.409 12 445.041 11.904 444.742 11.712C444.454 11.52 444.262 11.248 444.166 10.896C443.814 11.28 443.425 11.5627 442.998 11.744C442.582 11.9147 442.155 12 441.718 12C440.982 12 440.433 11.7973 440.07 11.392C439.707 10.976 439.526 10.4587 439.526 9.84C439.526 9.21066 439.755 8.704 440.214 8.32C440.673 7.92533 441.483 7.728 442.646 7.728H444.102V6.432C444.102 5.54666 443.985 4.944 443.75 4.624C443.526 4.29333 443.211 4.128 442.806 4.128C442.539 4.128 442.294 4.19733 442.07 4.336C441.846 4.464 441.686 4.70933 441.59 5.072C441.505 5.424 441.521 5.936 441.638 6.608L439.878 6.352C439.793 5.86133 439.846 5.408 440.038 4.992C440.241 4.56533 440.577 4.224 441.046 3.968C441.515 3.70133 442.113 3.568 442.838 3.568C443.659 3.568 444.294 3.70133 444.742 3.968C445.19 4.23466 445.499 4.58666 445.67 5.024C445.851 5.46133 445.942 5.93066 445.942 6.432V10.128C445.942 10.672 445.99 11.0133 446.086 11.152C446.182 11.2907 446.289 11.36 446.406 11.36C446.598 11.36 446.811 11.248 447.046 11.024L447.334 11.44ZM442.422 11.152C442.699 11.152 442.971 11.0827 443.238 10.944C443.515 10.7947 443.803 10.5227 444.102 10.128V8.288H442.902C442.379 8.288 442.001 8.41066 441.766 8.656C441.531 8.90133 441.414 9.28533 441.414 9.808C441.414 10.2347 441.499 10.5653 441.67 10.8C441.841 11.0347 442.091 11.152 442.422 11.152ZM450.391 0.447996V-3.8147e-06H453.463V10.496C453.463 10.8587 453.479 11.0773 453.511 11.152C453.543 11.216 453.645 11.2587 453.815 11.28L454.695 11.392V11.84H450.391V11.392L451.271 11.28C451.442 11.2587 451.543 11.216 451.575 11.152C451.607 11.0773 451.623 10.8587 451.623 10.496V1.344C451.623 0.981329 451.607 0.767996 451.575 0.703996C451.543 0.629329 451.442 0.581329 451.271 0.559996L450.391 0.447996ZM457.924 0.447996V-3.8147e-06H460.996V7.76L463.812 5.072C464.185 4.72 464.383 4.50666 464.404 4.432C464.436 4.35733 464.361 4.30933 464.18 4.288L463.3 4.176V3.728H466.58V4.176L465.7 4.288C465.604 4.29866 465.524 4.32 465.46 4.352C465.396 4.384 465.305 4.45333 465.188 4.56C465.071 4.656 464.884 4.82666 464.628 5.072L463.092 6.544L465.364 10.496C465.513 10.7413 465.625 10.9173 465.7 11.024C465.775 11.12 465.844 11.184 465.908 11.216C465.983 11.2373 466.073 11.2587 466.18 11.28L467.06 11.392V11.84H464.004L461.78 7.792L460.996 8.544V10.496C460.996 10.8587 461.012 11.0773 461.044 11.152C461.076 11.216 461.177 11.2587 461.348 11.28L462.228 11.392V11.84H457.924V11.392L458.804 11.28C458.975 11.2587 459.076 11.216 459.108 11.152C459.14 11.0773 459.156 10.8587 459.156 10.496V1.344C459.156 0.981329 459.14 0.767996 459.108 0.703996C459.076 0.629329 458.975 0.581329 458.804 0.559996L457.924 0.447996ZM8.62401 30.44C8.45334 30.6 8.24534 30.7333 8.00001 30.84C7.76534 30.9467 7.47734 31 7.13601 31C6.69868 31 6.33068 30.904 6.03201 30.712C5.74401 30.52 5.55201 30.248 5.45601 29.896C5.10401 30.28 4.71468 30.5627 4.28801 30.744C3.87201 30.9147 3.44534 31 3.00801 31C2.27201 31 1.72268 30.7973 1.36001 30.392C0.997342 29.976 0.816008 29.4587 0.816008 28.84C0.816008 28.2107 1.04534 27.704 1.50401 27.32C1.96268 26.9253 2.77334 26.728 3.93601 26.728H5.39201V25.432C5.39201 24.5467 5.27468 23.944 5.04001 23.624C4.81601 23.2933 4.50134 23.128 4.09601 23.128C3.82934 23.128 3.58401 23.1973 3.36001 23.336C3.13601 23.464 2.97601 23.7093 2.88001 24.072C2.79468 24.424 2.81068 24.936 2.92801 25.608L1.16801 25.352C1.08268 24.8613 1.13601 24.408 1.32801 23.992C1.53068 23.5653 1.86667 23.224 2.33601 22.968C2.80534 22.7013 3.40268 22.568 4.12801 22.568C4.94934 22.568 5.58401 22.7013 6.03201 22.968C6.48001 23.2347 6.78934 23.5867 6.96001 24.024C7.14134 24.4613 7.23201 24.9307 7.23201 25.432V29.128C7.23201 29.672 7.28001 30.0133 7.37601 30.152C7.47201 30.2907 7.57868 30.36 7.69601 30.36C7.88801 30.36 8.10134 30.248 8.33601 30.024L8.62401 30.44ZM3.71201 30.152C3.98934 30.152 4.26134 30.0827 4.52801 29.944C4.80534 29.7947 5.09334 29.5227 5.39201 29.128V27.288H4.19201C3.66934 27.288 3.29068 27.4107 3.05601 27.656C2.82134 27.9013 2.70401 28.2853 2.70401 28.808C2.70401 29.2347 2.78934 29.5653 2.96001 29.8C3.13068 30.0347 3.38134 30.152 3.71201 30.152ZM11.7934 23.176V22.728H14.7694V24.04C15.4201 23.0587 16.1934 22.568 17.0894 22.568C17.4201 22.568 17.7401 22.6747 18.0494 22.888C18.3587 23.0907 18.6147 23.4747 18.8174 24.04L17.3934 24.808C17.2441 24.3707 17.0681 24.0773 16.8654 23.928C16.6734 23.768 16.4654 23.688 16.2414 23.688C16.0067 23.688 15.7774 23.7627 15.5534 23.912C15.3294 24.0613 15.1001 24.3387 14.8654 24.744V29.496C14.8654 29.8587 14.8814 30.0773 14.9134 30.152C14.9454 30.216 15.0467 30.2587 15.2174 30.28L16.4174 30.392V30.84H11.7934V30.392L12.6734 30.28C12.8441 30.2587 12.9454 30.216 12.9774 30.152C13.0094 30.0773 13.0254 29.8587 13.0254 29.496V24.072C13.0254 23.7093 13.0094 23.496 12.9774 23.432C12.9454 23.3573 12.8441 23.3093 12.6734 23.288L11.7934 23.176ZM29.4616 26.616V26.936C29.4616 28.1627 29.1416 29.1493 28.5016 29.896C27.8723 30.632 26.971 31 25.7976 31C24.6243 31 23.7176 30.632 23.0776 29.896C22.4483 29.1493 22.1336 28.1627 22.1336 26.936V26.616C22.1336 25.3893 22.4483 24.408 23.0776 23.672C23.7176 22.936 24.6243 22.568 25.7976 22.568C26.971 22.568 27.8723 22.936 28.5016 23.672C29.1416 24.408 29.4616 25.3893 29.4616 26.616ZM27.4936 26.296C27.4936 25.1547 27.3496 24.344 27.0616 23.864C26.7736 23.3733 26.3523 23.128 25.7976 23.128C25.2536 23.128 24.8323 23.3733 24.5336 23.864C24.2456 24.344 24.1016 25.1547 24.1016 26.296V27.256C24.1016 28.3867 24.2456 29.2027 24.5336 29.704C24.8323 30.1947 25.2536 30.44 25.7976 30.44C26.3523 30.44 26.7736 30.1947 27.0616 29.704C27.3496 29.2027 27.4936 28.3867 27.4936 27.256V26.296ZM42.446 30.392V30.84H39.47V29.432C39.1713 29.976 38.7873 30.376 38.318 30.632C37.8487 30.8773 37.374 31 36.894 31C36.1367 31 35.534 30.7493 35.086 30.248C34.638 29.736 34.414 29.0267 34.414 28.12V24.072C34.414 23.7093 34.398 23.496 34.366 23.432C34.334 23.3573 34.2327 23.3093 34.062 23.288L33.182 23.176V22.728H36.254V28.104C36.254 28.84 36.3553 29.3787 36.558 29.72C36.7713 30.0507 37.0753 30.216 37.47 30.216C37.6407 30.216 37.838 30.1733 38.062 30.088C38.2967 29.992 38.5313 29.8267 38.766 29.592C39.0007 29.3467 39.2033 29 39.374 28.552V24.072C39.374 23.7093 39.358 23.4907 39.326 23.416C39.294 23.3413 39.1927 23.2987 39.022 23.288L37.822 23.176V22.728H41.214V29.496C41.214 29.8587 41.23 30.0773 41.262 30.152C41.294 30.216 41.3953 30.2587 41.566 30.28L42.446 30.392ZM55.2211 30.392V30.84H50.9171V30.392L51.7971 30.28C51.9678 30.2587 52.0691 30.216 52.1011 30.152C52.1331 30.0773 52.1491 29.8587 52.1491 29.496V25.464C52.1491 24.728 52.0371 24.1947 51.8131 23.864C51.5998 23.5227 51.2798 23.352 50.8531 23.352C50.6718 23.352 50.4585 23.4 50.2131 23.496C49.9785 23.5813 49.7385 23.7413 49.4931 23.976C49.2585 24.2107 49.0505 24.5573 48.8691 25.016V29.496C48.8691 29.8587 48.8851 30.0773 48.9171 30.152C48.9491 30.216 49.0505 30.2587 49.2211 30.28L50.1011 30.392V30.84H45.7971V30.392L46.6771 30.28C46.8478 30.2587 46.9491 30.216 46.9811 30.152C47.0131 30.0773 47.0291 29.8587 47.0291 29.496V24.072C47.0291 23.7093 47.0131 23.496 46.9811 23.432C46.9491 23.3573 46.8478 23.3093 46.6771 23.288L45.7971 23.176V22.728H48.7731V24.136C49.0825 23.592 49.4771 23.1973 49.9571 22.952C50.4478 22.696 50.9385 22.568 51.4291 22.568C52.2185 22.568 52.8425 22.8187 53.3011 23.32C53.7598 23.8213 53.9891 24.5307 53.9891 25.448V29.496C53.9891 29.8587 54.0051 30.0773 54.0371 30.152C54.0691 30.216 54.1705 30.2587 54.3411 30.28L55.2211 30.392ZM67.2219 30.392V30.84H64.2459V29.512C63.9472 30.0027 63.6112 30.376 63.2379 30.632C62.8752 30.8773 62.4432 31 61.9419 31C61.0459 31 60.3312 30.648 59.7979 29.944C59.2752 29.2293 59.0139 28.232 59.0139 26.952V26.632C59.0139 25.3947 59.3179 24.408 59.9259 23.672C60.5445 22.936 61.3872 22.568 62.4539 22.568C63.0939 22.568 63.6592 22.728 64.1499 23.048V20.344C64.1499 19.9813 64.1339 19.768 64.1019 19.704C64.0699 19.6293 63.9685 19.5813 63.7979 19.56L62.9179 19.448V19H65.9899V29.496C65.9899 29.8587 66.0059 30.0773 66.0379 30.152C66.0699 30.216 66.1712 30.2587 66.3419 30.28L67.2219 30.392ZM60.9819 27.432C60.9819 28.424 61.1045 29.1493 61.3499 29.608C61.5952 30.0667 61.9312 30.296 62.3579 30.296C62.6245 30.296 62.9019 30.1893 63.1899 29.976C63.4885 29.752 63.8085 29.304 64.1499 28.632V23.8C63.7445 23.3947 63.2485 23.192 62.6619 23.192C62.0752 23.192 61.6485 23.4587 61.3819 23.992C61.1152 24.5147 60.9819 25.2347 60.9819 26.152V27.432ZM82.5594 29.176C82.4207 29.8267 82.1541 30.296 81.7594 30.584C81.3754 30.8613 80.9061 31 80.3514 31C79.7861 31 79.3221 30.8773 78.9594 30.632C78.5967 30.376 78.3301 30.04 78.1594 29.624C77.9887 29.208 77.9034 28.7653 77.9034 28.296V24.072C77.9034 23.7093 77.8874 23.496 77.8554 23.432C77.8234 23.3573 77.7221 23.3093 77.5514 23.288L76.6714 23.176V22.728H77.9034V20.872L79.7434 20.504V22.728H82.3034V23.288H79.7434V28.616C79.7434 29.2987 79.8287 29.7733 79.9994 30.04C80.1701 30.296 80.3887 30.424 80.6554 30.424C80.9327 30.424 81.1461 30.3173 81.2954 30.104C81.4554 29.8907 81.5567 29.5013 81.5994 28.936L82.5594 29.176ZM95.2079 30.392V30.84H90.9039V30.392L91.7839 30.28C91.9546 30.2587 92.0559 30.216 92.0879 30.152C92.1199 30.0773 92.1359 29.8587 92.1359 29.496V25.464C92.1359 24.728 92.0239 24.1947 91.7999 23.864C91.5866 23.5227 91.2666 23.352 90.8399 23.352C90.6586 23.352 90.4452 23.4 90.1999 23.496C89.9652 23.5813 89.7252 23.7413 89.4799 23.976C89.2452 24.2107 89.0372 24.5573 88.8559 25.016V29.496C88.8559 29.8587 88.8719 30.0773 88.9039 30.152C88.9359 30.216 89.0372 30.2587 89.2079 30.28L90.0879 30.392V30.84H85.7839V30.392L86.6639 30.28C86.8346 30.2587 86.9359 30.216 86.9679 30.152C86.9999 30.0773 87.0159 29.8587 87.0159 29.496V20.344C87.0159 19.9813 86.9999 19.768 86.9679 19.704C86.9359 19.6293 86.8346 19.5813 86.6639 19.56L85.7839 19.448V19H88.8559V23.976C89.1652 23.4853 89.5492 23.128 90.0079 22.904C90.4772 22.68 90.9466 22.568 91.4159 22.568C92.2052 22.568 92.8292 22.8187 93.2879 23.32C93.7466 23.8213 93.9759 24.5307 93.9759 25.448V29.496C93.9759 29.8587 93.9919 30.0773 94.0239 30.152C94.0559 30.216 94.1572 30.2587 94.3279 30.28L95.2079 30.392ZM105.691 28.936C105.499 29.6827 105.142 30.216 104.619 30.536C104.097 30.8453 103.489 31 102.795 31C101.515 31 100.555 30.632 99.9153 29.896C99.2753 29.1493 98.9553 28.1627 98.9553 26.936V26.616C98.9553 25.3893 99.2539 24.408 99.8513 23.672C100.459 22.936 101.334 22.568 102.475 22.568C103.115 22.568 103.681 22.696 104.171 22.952C104.673 23.1973 105.062 23.5547 105.339 24.024C105.627 24.4933 105.771 25.064 105.771 25.736C105.771 25.896 105.761 26.0667 105.739 26.248C105.729 26.4293 105.702 26.6107 105.659 26.792H100.923V27.256C100.923 28.3867 101.083 29.2027 101.403 29.704C101.723 30.1947 102.241 30.44 102.955 30.44C103.414 30.44 103.803 30.3067 104.123 30.04C104.443 29.7627 104.625 29.2987 104.667 28.648L105.691 28.936ZM102.475 23.128C101.953 23.128 101.563 23.368 101.307 23.848C101.051 24.328 100.923 25.1227 100.923 26.232H103.819C103.862 26.0187 103.889 25.8213 103.899 25.64C103.921 25.448 103.931 25.272 103.931 25.112C103.931 24.4293 103.798 23.928 103.531 23.608C103.265 23.288 102.913 23.128 102.475 23.128ZM115.722 19.448V19H118.794V23.912C119.082 23.464 119.402 23.128 119.754 22.904C120.117 22.68 120.533 22.568 121.002 22.568C121.898 22.568 122.607 22.9253 123.13 23.64C123.663 24.344 123.93 25.336 123.93 26.616V26.936C123.93 28.1733 123.626 29.16 123.018 29.896C122.41 30.632 121.567 31 120.49 31C119.669 31 118.997 30.7547 118.474 30.264C118.282 30.3387 118.095 30.4347 117.914 30.552C117.743 30.6587 117.567 30.7813 117.386 30.92H116.954V20.344C116.954 19.9813 116.938 19.768 116.906 19.704C116.874 19.6293 116.773 19.5813 116.602 19.56L115.722 19.448ZM120.586 23.272C120.319 23.272 120.037 23.384 119.738 23.608C119.45 23.8213 119.135 24.264 118.794 24.936V29.768C119.199 30.1733 119.695 30.376 120.282 30.376C120.879 30.376 121.306 30.1147 121.562 29.592C121.829 29.0587 121.962 28.3333 121.962 27.416V26.136C121.962 25.144 121.839 24.4187 121.594 23.96C121.349 23.5013 121.013 23.272 120.586 23.272ZM127.805 19.448V19H130.877V29.496C130.877 29.8587 130.893 30.0773 130.925 30.152C130.957 30.216 131.058 30.2587 131.229 30.28L132.109 30.392V30.84H127.805V30.392L128.685 30.28C128.855 30.2587 128.957 30.216 128.989 30.152C129.021 30.0773 129.037 29.8587 129.037 29.496V20.344C129.037 19.9813 129.021 19.768 128.989 19.704C128.957 19.6293 128.855 19.5813 128.685 19.56L127.805 19.448ZM143.241 26.616V26.936C143.241 28.1627 142.921 29.1493 142.281 29.896C141.652 30.632 140.75 31 139.577 31C138.404 31 137.497 30.632 136.857 29.896C136.228 29.1493 135.913 28.1627 135.913 26.936V26.616C135.913 25.3893 136.228 24.408 136.857 23.672C137.497 22.936 138.404 22.568 139.577 22.568C140.75 22.568 141.652 22.936 142.281 23.672C142.921 24.408 143.241 25.3893 143.241 26.616ZM141.273 26.296C141.273 25.1547 141.129 24.344 140.841 23.864C140.553 23.3733 140.132 23.128 139.577 23.128C139.033 23.128 138.612 23.3733 138.313 23.864C138.025 24.344 137.881 25.1547 137.881 26.296V27.256C137.881 28.3867 138.025 29.2027 138.313 29.704C138.612 30.1947 139.033 30.44 139.577 30.44C140.132 30.44 140.553 30.1947 140.841 29.704C141.129 29.2027 141.273 28.3867 141.273 27.256V26.296ZM151.121 23.128C150.609 23.128 150.225 23.3733 149.969 23.864C149.724 24.344 149.601 25.1547 149.601 26.296V27.256C149.601 28.3867 149.745 29.2027 150.033 29.704C150.321 30.1947 150.791 30.44 151.441 30.44C151.921 30.44 152.311 30.3067 152.609 30.04C152.919 29.7627 153.095 29.2987 153.137 28.648L154.161 28.936C153.969 29.6827 153.617 30.216 153.105 30.536C152.604 30.8453 152.012 31 151.329 31C150.103 31 149.18 30.632 148.561 29.896C147.943 29.1493 147.633 28.1627 147.633 26.936V26.616C147.633 25.3893 147.932 24.408 148.529 23.672C149.127 22.936 149.991 22.568 151.121 22.568C151.868 22.568 152.476 22.7173 152.945 23.016C153.425 23.304 153.761 23.688 153.953 24.168C154.156 24.6373 154.209 25.144 154.113 25.688L152.353 25.944C152.471 25.048 152.423 24.3547 152.209 23.864C151.996 23.3733 151.633 23.128 151.121 23.128ZM157.808 19.448V19H160.88V26.76L163.696 24.072C164.07 23.72 164.267 23.5067 164.288 23.432C164.32 23.3573 164.246 23.3093 164.064 23.288L163.184 23.176V22.728H166.464V23.176L165.584 23.288C165.488 23.2987 165.408 23.32 165.344 23.352C165.28 23.384 165.19 23.4533 165.072 23.56C164.955 23.656 164.768 23.8267 164.512 24.072L162.976 25.544L165.248 29.496C165.398 29.7413 165.51 29.9173 165.584 30.024C165.659 30.12 165.728 30.184 165.792 30.216C165.867 30.2373 165.958 30.2587 166.064 30.28L166.944 30.392V30.84H163.888L161.664 26.792L160.88 27.544V29.496C160.88 29.8587 160.896 30.0773 160.928 30.152C160.96 30.216 161.062 30.2587 161.232 30.28L162.112 30.392V30.84H157.808V30.392L158.688 30.28C158.859 30.2587 158.96 30.216 158.992 30.152C159.024 30.0773 159.04 29.8587 159.04 29.496V20.344C159.04 19.9813 159.024 19.768 158.992 19.704C158.96 19.6293 158.859 19.5813 158.688 19.56L157.808 19.448ZM184.505 30.44C184.334 30.6 184.126 30.7333 183.881 30.84C183.646 30.9467 183.358 31 183.017 31C182.579 31 182.211 30.904 181.913 30.712C181.625 30.52 181.433 30.248 181.337 29.896C180.985 30.28 180.595 30.5627 180.169 30.744C179.753 30.9147 179.326 31 178.889 31C178.153 31 177.603 30.7973 177.241 30.392C176.878 29.976 176.697 29.4587 176.697 28.84C176.697 28.2107 176.926 27.704 177.385 27.32C177.843 26.9253 178.654 26.728 179.817 26.728H181.273V25.432C181.273 24.5467 181.155 23.944 180.921 23.624C180.697 23.2933 180.382 23.128 179.977 23.128C179.71 23.128 179.465 23.1973 179.241 23.336C179.017 23.464 178.857 23.7093 178.761 24.072C178.675 24.424 178.691 24.936 178.809 25.608L177.049 25.352C176.963 24.8613 177.017 24.408 177.209 23.992C177.411 23.5653 177.747 23.224 178.217 22.968C178.686 22.7013 179.283 22.568 180.009 22.568C180.83 22.568 181.465 22.7013 181.913 22.968C182.361 23.2347 182.67 23.5867 182.841 24.024C183.022 24.4613 183.113 24.9307 183.113 25.432V29.128C183.113 29.672 183.161 30.0133 183.257 30.152C183.353 30.2907 183.459 30.36 183.577 30.36C183.769 30.36 183.982 30.248 184.217 30.024L184.505 30.44ZM179.593 30.152C179.87 30.152 180.142 30.0827 180.409 29.944C180.686 29.7947 180.974 29.5227 181.273 29.128V27.288H180.073C179.55 27.288 179.171 27.4107 178.937 27.656C178.702 27.9013 178.585 28.2853 178.585 28.808C178.585 29.2347 178.67 29.5653 178.841 29.8C179.011 30.0347 179.262 30.152 179.593 30.152ZM197.098 30.392V30.84H192.794V30.392L193.674 30.28C193.845 30.2587 193.946 30.216 193.978 30.152C194.01 30.0773 194.026 29.8587 194.026 29.496V25.464C194.026 24.728 193.914 24.1947 193.69 23.864C193.477 23.5227 193.157 23.352 192.73 23.352C192.549 23.352 192.335 23.4 192.09 23.496C191.855 23.5813 191.615 23.7413 191.37 23.976C191.135 24.2107 190.927 24.5573 190.746 25.016V29.496C190.746 29.8587 190.762 30.0773 190.794 30.152C190.826 30.216 190.927 30.2587 191.098 30.28L191.978 30.392V30.84H187.674V30.392L188.554 30.28C188.725 30.2587 188.826 30.216 188.858 30.152C188.89 30.0773 188.906 29.8587 188.906 29.496V24.072C188.906 23.7093 188.89 23.496 188.858 23.432C188.826 23.3573 188.725 23.3093 188.554 23.288L187.674 23.176V22.728H190.65V24.136C190.959 23.592 191.354 23.1973 191.834 22.952C192.325 22.696 192.815 22.568 193.306 22.568C194.095 22.568 194.719 22.8187 195.178 23.32C195.637 23.8213 195.866 24.5307 195.866 25.448V29.496C195.866 29.8587 195.882 30.0773 195.914 30.152C195.946 30.216 196.047 30.2587 196.218 30.28L197.098 30.392ZM209.099 30.392V30.84H206.123V29.512C205.824 30.0027 205.488 30.376 205.115 30.632C204.752 30.8773 204.32 31 203.819 31C202.923 31 202.208 30.648 201.675 29.944C201.152 29.2293 200.891 28.232 200.891 26.952V26.632C200.891 25.3947 201.195 24.408 201.803 23.672C202.421 22.936 203.264 22.568 204.331 22.568C204.971 22.568 205.536 22.728 206.027 23.048V20.344C206.027 19.9813 206.011 19.768 205.979 19.704C205.947 19.6293 205.845 19.5813 205.675 19.56L204.795 19.448V19H207.867V29.496C207.867 29.8587 207.883 30.0773 207.915 30.152C207.947 30.216 208.048 30.2587 208.219 30.28L209.099 30.392ZM202.859 27.432C202.859 28.424 202.981 29.1493 203.227 29.608C203.472 30.0667 203.808 30.296 204.235 30.296C204.501 30.296 204.779 30.1893 205.067 29.976C205.365 29.752 205.685 29.304 206.027 28.632V23.8C205.621 23.3947 205.125 23.192 204.539 23.192C203.952 23.192 203.525 23.4587 203.259 23.992C202.992 24.5147 202.859 25.2347 202.859 26.152V27.432ZM224.436 29.176C224.298 29.8267 224.031 30.296 223.636 30.584C223.252 30.8613 222.783 31 222.228 31C221.663 31 221.199 30.8773 220.836 30.632C220.474 30.376 220.207 30.04 220.036 29.624C219.866 29.208 219.78 28.7653 219.78 28.296V24.072C219.78 23.7093 219.764 23.496 219.732 23.432C219.7 23.3573 219.599 23.3093 219.428 23.288L218.548 23.176V22.728H219.78V20.872L221.62 20.504V22.728H224.18V23.288H221.62V28.616C221.62 29.2987 221.706 29.7733 221.876 30.04C222.047 30.296 222.266 30.424 222.532 30.424C222.81 30.424 223.023 30.3173 223.172 30.104C223.332 29.8907 223.434 29.5013 223.476 28.936L224.436 29.176ZM227.773 23.176V22.728H230.749V24.04C231.399 23.0587 232.173 22.568 233.069 22.568C233.399 22.568 233.719 22.6747 234.029 22.888C234.338 23.0907 234.594 23.4747 234.797 24.04L233.373 24.808C233.223 24.3707 233.047 24.0773 232.845 23.928C232.653 23.768 232.445 23.688 232.221 23.688C231.986 23.688 231.757 23.7627 231.533 23.912C231.309 24.0613 231.079 24.3387 230.845 24.744V29.496C230.845 29.8587 230.861 30.0773 230.893 30.152C230.925 30.216 231.026 30.2587 231.197 30.28L232.397 30.392V30.84H227.773V30.392L228.653 30.28C228.823 30.2587 228.925 30.216 228.957 30.152C228.989 30.0773 229.005 29.8587 229.005 29.496V24.072C229.005 23.7093 228.989 23.496 228.957 23.432C228.925 23.3573 228.823 23.3093 228.653 23.288L227.773 23.176ZM244.865 28.936C244.673 29.6827 244.316 30.216 243.793 30.536C243.27 30.8453 242.662 31 241.969 31C240.689 31 239.729 30.632 239.089 29.896C238.449 29.1493 238.129 28.1627 238.129 26.936V26.616C238.129 25.3893 238.428 24.408 239.025 23.672C239.633 22.936 240.508 22.568 241.649 22.568C242.289 22.568 242.854 22.696 243.345 22.952C243.846 23.1973 244.236 23.5547 244.513 24.024C244.801 24.4933 244.945 25.064 244.945 25.736C244.945 25.896 244.934 26.0667 244.913 26.248C244.902 26.4293 244.876 26.6107 244.833 26.792H240.097V27.256C240.097 28.3867 240.257 29.2027 240.577 29.704C240.897 30.1947 241.414 30.44 242.129 30.44C242.588 30.44 242.977 30.3067 243.297 30.04C243.617 29.7627 243.798 29.2987 243.841 28.648L244.865 28.936ZM241.649 23.128C241.126 23.128 240.737 23.368 240.481 23.848C240.225 24.328 240.097 25.1227 240.097 26.232H242.993C243.036 26.0187 243.062 25.8213 243.073 25.64C243.094 25.448 243.105 25.272 243.105 25.112C243.105 24.4293 242.972 23.928 242.705 23.608C242.438 23.288 242.086 23.128 241.649 23.128ZM256.998 30.44C256.827 30.6 256.619 30.7333 256.374 30.84C256.139 30.9467 255.851 31 255.51 31C255.072 31 254.704 30.904 254.406 30.712C254.118 30.52 253.926 30.248 253.83 29.896C253.478 30.28 253.088 30.5627 252.662 30.744C252.246 30.9147 251.819 31 251.382 31C250.646 31 250.096 30.7973 249.734 30.392C249.371 29.976 249.19 29.4587 249.19 28.84C249.19 28.2107 249.419 27.704 249.878 27.32C250.336 26.9253 251.147 26.728 252.31 26.728H253.766V25.432C253.766 24.5467 253.648 23.944 253.414 23.624C253.19 23.2933 252.875 23.128 252.47 23.128C252.203 23.128 251.958 23.1973 251.734 23.336C251.51 23.464 251.35 23.7093 251.254 24.072C251.168 24.424 251.184 24.936 251.302 25.608L249.542 25.352C249.456 24.8613 249.51 24.408 249.702 23.992C249.904 23.5653 250.24 23.224 250.71 22.968C251.179 22.7013 251.776 22.568 252.502 22.568C253.323 22.568 253.958 22.7013 254.406 22.968C254.854 23.2347 255.163 23.5867 255.334 24.024C255.515 24.4613 255.606 24.9307 255.606 25.432V29.128C255.606 29.672 255.654 30.0133 255.75 30.152C255.846 30.2907 255.952 30.36 256.07 30.36C256.262 30.36 256.475 30.248 256.71 30.024L256.998 30.44ZM252.086 30.152C252.363 30.152 252.635 30.0827 252.902 29.944C253.179 29.7947 253.467 29.5227 253.766 29.128V27.288H252.566C252.043 27.288 251.664 27.4107 251.43 27.656C251.195 27.9013 251.078 28.2853 251.078 28.808C251.078 29.2347 251.163 29.5653 251.334 29.8C251.504 30.0347 251.755 30.152 252.086 30.152ZM265.863 29.176C265.724 29.8267 265.458 30.296 265.063 30.584C264.679 30.8613 264.21 31 263.655 31C263.09 31 262.626 30.8773 262.263 30.632C261.9 30.376 261.634 30.04 261.463 29.624C261.292 29.208 261.207 28.7653 261.207 28.296V24.072C261.207 23.7093 261.191 23.496 261.159 23.432C261.127 23.3573 261.026 23.3093 260.855 23.288L259.975 23.176V22.728H261.207V20.872L263.047 20.504V22.728H265.607V23.288H263.047V28.616C263.047 29.2987 263.132 29.7733 263.303 30.04C263.474 30.296 263.692 30.424 263.959 30.424C264.236 30.424 264.45 30.3173 264.599 30.104C264.759 29.8907 264.86 29.5013 264.903 28.936L265.863 29.176ZM279.978 31.64C279.732 32.312 279.46 32.8507 279.162 33.256C278.874 33.6613 278.516 33.9547 278.09 34.136C277.663 34.3173 277.13 34.408 276.49 34.408V32.648C277.14 32.648 277.663 32.6 278.058 32.504C278.463 32.4187 278.772 32.2747 278.986 32.072C279.21 31.88 279.375 31.6293 279.482 31.32L279.642 30.84H278.81L276.538 24.072C276.463 23.8267 276.399 23.656 276.346 23.56C276.303 23.4533 276.25 23.384 276.186 23.352C276.132 23.32 276.047 23.2987 275.93 23.288L275.05 23.176V22.728H279.37V23.176L278.49 23.288C278.362 23.2987 278.282 23.3413 278.25 23.416C278.228 23.48 278.276 23.6987 278.394 24.072L280.138 29.352L281.946 24.008C282.063 23.6667 282.111 23.4693 282.09 23.416C282.079 23.352 281.994 23.3093 281.834 23.288L280.954 23.176V22.728H284.01V23.176L283.13 23.288C282.97 23.3093 282.863 23.352 282.81 23.416C282.756 23.48 282.671 23.6773 282.554 24.008L279.978 31.64ZM294.244 26.616V26.936C294.244 28.1627 293.924 29.1493 293.284 29.896C292.655 30.632 291.753 31 290.58 31C289.407 31 288.5 30.632 287.86 29.896C287.231 29.1493 286.916 28.1627 286.916 26.936V26.616C286.916 25.3893 287.231 24.408 287.86 23.672C288.5 22.936 289.407 22.568 290.58 22.568C291.753 22.568 292.655 22.936 293.284 23.672C293.924 24.408 294.244 25.3893 294.244 26.616ZM292.276 26.296C292.276 25.1547 292.132 24.344 291.844 23.864C291.556 23.3733 291.135 23.128 290.58 23.128C290.036 23.128 289.615 23.3733 289.316 23.864C289.028 24.344 288.884 25.1547 288.884 26.296V27.256C288.884 28.3867 289.028 29.2027 289.316 29.704C289.615 30.1947 290.036 30.44 290.58 30.44C291.135 30.44 291.556 30.1947 291.844 29.704C292.132 29.2027 292.276 28.3867 292.276 27.256V26.296ZM307.229 30.392V30.84H304.253V29.432C303.954 29.976 303.57 30.376 303.101 30.632C302.631 30.8773 302.157 31 301.677 31C300.919 31 300.317 30.7493 299.869 30.248C299.421 29.736 299.197 29.0267 299.197 28.12V24.072C299.197 23.7093 299.181 23.496 299.149 23.432C299.117 23.3573 299.015 23.3093 298.845 23.288L297.965 23.176V22.728H301.037V28.104C301.037 28.84 301.138 29.3787 301.341 29.72C301.554 30.0507 301.858 30.216 302.253 30.216C302.423 30.216 302.621 30.1733 302.845 30.088C303.079 29.992 303.314 29.8267 303.549 29.592C303.783 29.3467 303.986 29 304.157 28.552V24.072C304.157 23.7093 304.141 23.4907 304.109 23.416C304.077 23.3413 303.975 23.2987 303.805 23.288L302.605 23.176V22.728H305.997V29.496C305.997 29.8587 306.013 30.0773 306.045 30.152C306.077 30.216 306.178 30.2587 306.349 30.28L307.229 30.392ZM310.58 23.176V22.728H313.556V24.04C314.206 23.0587 314.98 22.568 315.876 22.568C316.206 22.568 316.526 22.6747 316.836 22.888C317.145 23.0907 317.401 23.4747 317.604 24.04L316.18 24.808C316.03 24.3707 315.854 24.0773 315.652 23.928C315.46 23.768 315.252 23.688 315.028 23.688C314.793 23.688 314.564 23.7627 314.34 23.912C314.116 24.0613 313.886 24.3387 313.652 24.744V29.496C313.652 29.8587 313.668 30.0773 313.7 30.152C313.732 30.216 313.833 30.2587 314.004 30.28L315.204 30.392V30.84H310.58V30.392L311.46 30.28C311.63 30.2587 311.732 30.216 311.764 30.152C311.796 30.0773 311.812 29.8587 311.812 29.496V24.072C311.812 23.7093 311.796 23.496 311.764 23.432C311.732 23.3573 311.63 23.3093 311.46 23.288L310.58 23.176ZM324.338 27.816L323.234 27.56C322.52 27.3893 321.986 27.0853 321.634 26.648C321.293 26.2 321.122 25.672 321.122 25.064C321.122 24.616 321.218 24.2053 321.41 23.832C321.613 23.448 321.928 23.144 322.354 22.92C322.781 22.6853 323.336 22.568 324.018 22.568C324.754 22.568 325.352 22.6853 325.81 22.92C326.269 23.1547 326.594 23.464 326.786 23.848C326.978 24.232 327.037 24.6427 326.962 25.08L325.202 25.4C325.352 24.6747 325.309 24.1147 325.074 23.72C324.85 23.3253 324.472 23.128 323.938 23.128C323.565 23.128 323.256 23.24 323.01 23.464C322.765 23.6773 322.642 23.9867 322.642 24.392C322.642 24.7653 322.749 25.096 322.962 25.384C323.176 25.6613 323.49 25.848 323.906 25.944L325.01 26.2C325.8 26.3813 326.37 26.6693 326.722 27.064C327.074 27.448 327.25 27.928 327.25 28.504C327.25 29.2187 326.984 29.816 326.45 30.296C325.928 30.7653 325.144 31 324.098 31C323.736 31 323.336 30.9467 322.898 30.84C322.472 30.7227 322.077 30.5147 321.714 30.216C321.362 29.9173 321.106 29.4907 320.946 28.936L321.986 28.52C322.061 29.224 322.301 29.72 322.706 30.008C323.122 30.296 323.586 30.44 324.098 30.44C324.578 30.44 324.968 30.3333 325.266 30.12C325.576 29.896 325.73 29.576 325.73 29.16C325.73 28.872 325.629 28.6107 325.426 28.376C325.234 28.1307 324.872 27.944 324.338 27.816ZM338.314 28.936C338.122 29.6827 337.764 30.216 337.242 30.536C336.719 30.8453 336.111 31 335.418 31C334.138 31 333.178 30.632 332.538 29.896C331.898 29.1493 331.578 28.1627 331.578 26.936V26.616C331.578 25.3893 331.876 24.408 332.474 23.672C333.082 22.936 333.956 22.568 335.098 22.568C335.738 22.568 336.303 22.696 336.794 22.952C337.295 23.1973 337.684 23.5547 337.962 24.024C338.25 24.4933 338.394 25.064 338.394 25.736C338.394 25.896 338.383 26.0667 338.362 26.248C338.351 26.4293 338.324 26.6107 338.282 26.792H333.546V27.256C333.546 28.3867 333.706 29.2027 334.026 29.704C334.346 30.1947 334.863 30.44 335.578 30.44C336.036 30.44 336.426 30.3067 336.746 30.04C337.066 29.7627 337.247 29.2987 337.29 28.648L338.314 28.936ZM335.098 23.128C334.575 23.128 334.186 23.368 333.93 23.848C333.674 24.328 333.546 25.1227 333.546 26.232H336.442C336.484 26.0187 336.511 25.8213 336.522 25.64C336.543 25.448 336.554 25.272 336.554 25.112C336.554 24.4293 336.42 23.928 336.154 23.608C335.887 23.288 335.535 23.128 335.098 23.128ZM342.175 19.448V19H345.247V29.496C345.247 29.8587 345.263 30.0773 345.295 30.152C345.327 30.216 345.428 30.2587 345.599 30.28L346.479 30.392V30.84H342.175V30.392L343.055 30.28C343.225 30.2587 343.327 30.216 343.359 30.152C343.391 30.0773 343.407 29.8587 343.407 29.496V20.344C343.407 19.9813 343.391 19.768 343.359 19.704C343.327 19.6293 343.225 19.5813 343.055 19.56L342.175 19.448ZM354.443 30.392V30.84H349.819V30.392L350.699 30.28C350.87 30.2587 350.971 30.216 351.003 30.152C351.035 30.0773 351.051 29.8587 351.051 29.496V24.072C351.051 23.7093 351.035 23.496 351.003 23.432C350.971 23.3573 350.87 23.3093 350.699 23.288L349.819 23.176V22.728H351.051V21.864C351.051 21.352 351.136 20.8667 351.307 20.408C351.488 19.9387 351.787 19.56 352.203 19.272C352.63 18.984 353.2 18.84 353.915 18.84C354.566 18.84 355.099 18.952 355.515 19.176C355.942 19.4 356.246 19.6987 356.427 20.072C356.619 20.4453 356.678 20.8507 356.603 21.288L354.843 21.544C354.95 20.744 354.918 20.1893 354.747 19.88C354.587 19.56 354.31 19.4 353.915 19.4C353.702 19.4 353.515 19.4587 353.355 19.576C353.206 19.6933 353.088 19.9067 353.003 20.216C352.928 20.5147 352.891 20.9573 352.891 21.544V22.728H355.291V23.288H352.891V29.496C352.891 29.8587 352.907 30.0773 352.939 30.152C352.971 30.216 353.072 30.2587 353.243 30.28L354.443 30.392ZM372.81 30.44C372.639 30.6 372.431 30.7333 372.186 30.84C371.951 30.9467 371.663 31 371.322 31C370.884 31 370.516 30.904 370.218 30.712C369.93 30.52 369.738 30.248 369.642 29.896C369.29 30.28 368.9 30.5627 368.474 30.744C368.058 30.9147 367.631 31 367.194 31C366.458 31 365.908 30.7973 365.546 30.392C365.183 29.976 365.002 29.4587 365.002 28.84C365.002 28.2107 365.231 27.704 365.69 27.32C366.148 26.9253 366.959 26.728 368.122 26.728H369.578V25.432C369.578 24.5467 369.46 23.944 369.226 23.624C369.002 23.2933 368.687 23.128 368.282 23.128C368.015 23.128 367.77 23.1973 367.546 23.336C367.322 23.464 367.162 23.7093 367.066 24.072C366.98 24.424 366.996 24.936 367.114 25.608L365.354 25.352C365.268 24.8613 365.322 24.408 365.514 23.992C365.716 23.5653 366.052 23.224 366.522 22.968C366.991 22.7013 367.588 22.568 368.314 22.568C369.135 22.568 369.77 22.7013 370.218 22.968C370.666 23.2347 370.975 23.5867 371.146 24.024C371.327 24.4613 371.418 24.9307 371.418 25.432V29.128C371.418 29.672 371.466 30.0133 371.562 30.152C371.658 30.2907 371.764 30.36 371.882 30.36C372.074 30.36 372.287 30.248 372.522 30.024L372.81 30.44ZM367.898 30.152C368.175 30.152 368.447 30.0827 368.714 29.944C368.991 29.7947 369.279 29.5227 369.578 29.128V27.288H368.378C367.855 27.288 367.476 27.4107 367.242 27.656C367.007 27.9013 366.89 28.2853 366.89 28.808C366.89 29.2347 366.975 29.5653 367.146 29.8C367.316 30.0347 367.567 30.152 367.898 30.152ZM385.925 27.816L384.821 27.56C384.106 27.3893 383.573 27.0853 383.221 26.648C382.88 26.2 382.709 25.672 382.709 25.064C382.709 24.616 382.805 24.2053 382.997 23.832C383.2 23.448 383.514 23.144 383.941 22.92C384.368 22.6853 384.922 22.568 385.605 22.568C386.341 22.568 386.938 22.6853 387.397 22.92C387.856 23.1547 388.181 23.464 388.373 23.848C388.565 24.232 388.624 24.6427 388.549 25.08L386.789 25.4C386.938 24.6747 386.896 24.1147 386.661 23.72C386.437 23.3253 386.058 23.128 385.525 23.128C385.152 23.128 384.842 23.24 384.597 23.464C384.352 23.6773 384.229 23.9867 384.229 24.392C384.229 24.7653 384.336 25.096 384.549 25.384C384.762 25.6613 385.077 25.848 385.493 25.944L386.597 26.2C387.386 26.3813 387.957 26.6693 388.309 27.064C388.661 27.448 388.837 27.928 388.837 28.504C388.837 29.2187 388.57 29.816 388.037 30.296C387.514 30.7653 386.73 31 385.685 31C385.322 31 384.922 30.9467 384.485 30.84C384.058 30.7227 383.664 30.5147 383.301 30.216C382.949 29.9173 382.693 29.4907 382.533 28.936L383.573 28.52C383.648 29.224 383.888 29.72 384.293 30.008C384.709 30.296 385.173 30.44 385.685 30.44C386.165 30.44 386.554 30.3333 386.853 30.12C387.162 29.896 387.317 29.576 387.317 29.16C387.317 28.872 387.216 28.6107 387.013 28.376C386.821 28.1307 386.458 27.944 385.925 27.816ZM401.949 30.392V30.84H397.645V30.392L398.525 30.28C398.695 30.2587 398.797 30.216 398.829 30.152C398.861 30.0773 398.877 29.8587 398.877 29.496V25.464C398.877 24.728 398.775 24.1947 398.573 23.864C398.37 23.5227 398.066 23.352 397.661 23.352C397.49 23.352 397.287 23.4 397.053 23.496C396.818 23.5813 396.583 23.7413 396.349 23.976C396.125 24.2107 395.927 24.5573 395.757 25.016V29.496C395.757 29.8587 395.773 30.0773 395.805 30.152C395.837 30.216 395.938 30.2587 396.109 30.28L396.989 30.392V30.84H392.685V30.392L393.565 30.28C393.735 30.2587 393.837 30.216 393.869 30.152C393.901 30.0773 393.917 29.8587 393.917 29.496V24.072C393.917 23.7093 393.901 23.496 393.869 23.432C393.837 23.3573 393.735 23.3093 393.565 23.288L392.685 23.176V22.728H395.661V24.136C395.959 23.592 396.343 23.1973 396.813 22.952C397.282 22.696 397.757 22.568 398.237 22.568C398.813 22.568 399.298 22.7173 399.693 23.016C400.098 23.304 400.386 23.72 400.557 24.264C400.845 23.6667 401.234 23.2347 401.725 22.968C402.215 22.7013 402.706 22.568 403.197 22.568C403.954 22.568 404.557 22.8187 405.005 23.32C405.453 23.8213 405.677 24.5307 405.677 25.448V29.496C405.677 29.8587 405.693 30.0773 405.725 30.152C405.757 30.216 405.858 30.2587 406.029 30.28L406.909 30.392V30.84H402.605V30.392L403.485 30.28C403.655 30.2587 403.757 30.216 403.789 30.152C403.821 30.0773 403.837 29.8587 403.837 29.496V25.464C403.837 24.728 403.735 24.1947 403.533 23.864C403.33 23.5227 403.026 23.352 402.621 23.352C402.45 23.352 402.247 23.4 402.013 23.496C401.778 23.5813 401.543 23.7467 401.309 23.992C401.074 24.2373 400.871 24.5947 400.701 25.064C400.711 25.1173 400.717 25.1813 400.717 25.256C400.717 25.32 400.717 25.384 400.717 25.448V29.496C400.717 29.8587 400.733 30.0773 400.765 30.152C400.797 30.216 400.898 30.2587 401.069 30.28L401.949 30.392ZM418.33 30.44C418.16 30.6 417.952 30.7333 417.706 30.84C417.472 30.9467 417.184 31 416.842 31C416.405 31 416.037 30.904 415.738 30.712C415.45 30.52 415.258 30.248 415.162 29.896C414.81 30.28 414.421 30.5627 413.994 30.744C413.578 30.9147 413.152 31 412.714 31C411.978 31 411.429 30.7973 411.066 30.392C410.704 29.976 410.522 29.4587 410.522 28.84C410.522 28.2107 410.752 27.704 411.21 27.32C411.669 26.9253 412.48 26.728 413.642 26.728H415.098V25.432C415.098 24.5467 414.981 23.944 414.746 23.624C414.522 23.2933 414.208 23.128 413.802 23.128C413.536 23.128 413.29 23.1973 413.066 23.336C412.842 23.464 412.682 23.7093 412.586 24.072C412.501 24.424 412.517 24.936 412.634 25.608L410.874 25.352C410.789 24.8613 410.842 24.408 411.034 23.992C411.237 23.5653 411.573 23.224 412.042 22.968C412.512 22.7013 413.109 22.568 413.834 22.568C414.656 22.568 415.29 22.7013 415.738 22.968C416.186 23.2347 416.496 23.5867 416.666 24.024C416.848 24.4613 416.938 24.9307 416.938 25.432V29.128C416.938 29.672 416.986 30.0133 417.082 30.152C417.178 30.2907 417.285 30.36 417.402 30.36C417.594 30.36 417.808 30.248 418.042 30.024L418.33 30.44ZM413.418 30.152C413.696 30.152 413.968 30.0827 414.234 29.944C414.512 29.7947 414.8 29.5227 415.098 29.128V27.288H413.898C413.376 27.288 412.997 27.4107 412.762 27.656C412.528 27.9013 412.41 28.2853 412.41 28.808C412.41 29.2347 412.496 29.5653 412.666 29.8C412.837 30.0347 413.088 30.152 413.418 30.152ZM421.388 19.448V19H424.46V29.496C424.46 29.8587 424.476 30.0773 424.508 30.152C424.54 30.216 424.641 30.2587 424.812 30.28L425.692 30.392V30.84H421.388V30.392L422.268 30.28C422.438 30.2587 422.54 30.216 422.572 30.152C422.604 30.0773 422.62 29.8587 422.62 29.496V20.344C422.62 19.9813 422.604 19.768 422.572 19.704C422.54 19.6293 422.438 19.5813 422.268 19.56L421.388 19.448ZM428.92 19.448V19H431.992V29.496C431.992 29.8587 432.008 30.0773 432.04 30.152C432.072 30.216 432.173 30.2587 432.344 30.28L433.224 30.392V30.84H428.92V30.392L429.8 30.28C429.971 30.2587 430.072 30.216 430.104 30.152C430.136 30.0773 430.152 29.8587 430.152 29.496V20.344C430.152 19.9813 430.136 19.768 430.104 19.704C430.072 19.6293 429.971 19.5813 429.8 19.56L428.92 19.448ZM446.511 27.816L445.407 27.56C444.692 27.3893 444.159 27.0853 443.807 26.648C443.465 26.2 443.295 25.672 443.295 25.064C443.295 24.616 443.391 24.2053 443.583 23.832C443.785 23.448 444.1 23.144 444.527 22.92C444.953 22.6853 445.508 22.568 446.191 22.568C446.927 22.568 447.524 22.6853 447.983 22.92C448.441 23.1547 448.767 23.464 448.959 23.848C449.151 24.232 449.209 24.6427 449.135 25.08L447.375 25.4C447.524 24.6747 447.481 24.1147 447.247 23.72C447.023 23.3253 446.644 23.128 446.111 23.128C445.737 23.128 445.428 23.24 445.183 23.464C444.937 23.6773 444.815 23.9867 444.815 24.392C444.815 24.7653 444.921 25.096 445.135 25.384C445.348 25.6613 445.663 25.848 446.079 25.944L447.183 26.2C447.972 26.3813 448.543 26.6693 448.895 27.064C449.247 27.448 449.423 27.928 449.423 28.504C449.423 29.2187 449.156 29.816 448.623 30.296C448.1 30.7653 447.316 31 446.271 31C445.908 31 445.508 30.9467 445.071 30.84C444.644 30.7227 444.249 30.5147 443.887 30.216C443.535 29.9173 443.279 29.4907 443.119 28.936L444.159 28.52C444.233 29.224 444.473 29.72 444.879 30.008C445.295 30.296 445.759 30.44 446.271 30.44C446.751 30.44 447.14 30.3333 447.439 30.12C447.748 29.896 447.903 29.576 447.903 29.16C447.903 28.872 447.801 28.6107 447.599 28.376C447.407 28.1307 447.044 27.944 446.511 27.816ZM462.694 30.392V30.84H458.39V30.392L459.27 30.28C459.441 30.2587 459.542 30.216 459.574 30.152C459.606 30.0773 459.622 29.8587 459.622 29.496V25.464C459.622 24.728 459.51 24.1947 459.286 23.864C459.073 23.5227 458.753 23.352 458.326 23.352C458.145 23.352 457.932 23.4 457.686 23.496C457.452 23.5813 457.212 23.7413 456.966 23.976C456.732 24.2107 456.524 24.5573 456.342 25.016V29.496C456.342 29.8587 456.358 30.0773 456.39 30.152C456.422 30.216 456.524 30.2587 456.694 30.28L457.574 30.392V30.84H453.27V30.392L454.15 30.28C454.321 30.2587 454.422 30.216 454.454 30.152C454.486 30.0773 454.502 29.8587 454.502 29.496V24.072C454.502 23.7093 454.486 23.496 454.454 23.432C454.422 23.3573 454.321 23.3093 454.15 23.288L453.27 23.176V22.728H456.246V24.136C456.556 23.592 456.95 23.1973 457.43 22.952C457.921 22.696 458.412 22.568 458.902 22.568C459.692 22.568 460.316 22.8187 460.774 23.32C461.233 23.8213 461.462 24.5307 461.462 25.448V29.496C461.462 29.8587 461.478 30.0773 461.51 30.152C461.542 30.216 461.644 30.2587 461.814 30.28L462.694 30.392ZM474.119 30.44C473.948 30.6 473.74 30.7333 473.495 30.84C473.26 30.9467 472.972 31 472.631 31C472.194 31 471.826 30.904 471.527 30.712C471.239 30.52 471.047 30.248 470.951 29.896C470.599 30.28 470.21 30.5627 469.783 30.744C469.367 30.9147 468.94 31 468.503 31C467.767 31 467.218 30.7973 466.855 30.392C466.492 29.976 466.311 29.4587 466.311 28.84C466.311 28.2107 466.54 27.704 466.999 27.32C467.458 26.9253 468.268 26.728 469.431 26.728H470.887V25.432C470.887 24.5467 470.77 23.944 470.535 23.624C470.311 23.2933 469.996 23.128 469.591 23.128C469.324 23.128 469.079 23.1973 468.855 23.336C468.631 23.464 468.471 23.7093 468.375 24.072C468.29 24.424 468.306 24.936 468.423 25.608L466.663 25.352C466.578 24.8613 466.631 24.408 466.823 23.992C467.026 23.5653 467.362 23.224 467.831 22.968C468.3 22.7013 468.898 22.568 469.623 22.568C470.444 22.568 471.079 22.7013 471.527 22.968C471.975 23.2347 472.284 23.5867 472.455 24.024C472.636 24.4613 472.727 24.9307 472.727 25.432V29.128C472.727 29.672 472.775 30.0133 472.871 30.152C472.967 30.2907 473.074 30.36 473.191 30.36C473.383 30.36 473.596 30.248 473.831 30.024L474.119 30.44ZM469.207 30.152C469.484 30.152 469.756 30.0827 470.023 29.944C470.3 29.7947 470.588 29.5227 470.887 29.128V27.288H469.687C469.164 27.288 468.786 27.4107 468.551 27.656C468.316 27.9013 468.199 28.2853 468.199 28.808C468.199 29.2347 468.284 29.5653 468.455 29.8C468.626 30.0347 468.876 30.152 469.207 30.152ZM481.256 23.128C480.744 23.128 480.36 23.3733 480.104 23.864C479.859 24.344 479.736 25.1547 479.736 26.296V27.256C479.736 28.3867 479.88 29.2027 480.168 29.704C480.456 30.1947 480.926 30.44 481.576 30.44C482.056 30.44 482.446 30.3067 482.744 30.04C483.054 29.7627 483.23 29.2987 483.272 28.648L484.296 28.936C484.104 29.6827 483.752 30.216 483.24 30.536C482.739 30.8453 482.147 31 481.464 31C480.238 31 479.315 30.632 478.696 29.896C478.078 29.1493 477.768 28.1627 477.768 26.936V26.616C477.768 25.3893 478.067 24.408 478.664 23.672C479.262 22.936 480.126 22.568 481.256 22.568C482.003 22.568 482.611 22.7173 483.08 23.016C483.56 23.304 483.896 23.688 484.088 24.168C484.291 24.6373 484.344 25.144 484.248 25.688L482.488 25.944C482.606 25.048 482.558 24.3547 482.344 23.864C482.131 23.3733 481.768 23.128 481.256 23.128ZM487.943 19.448V19H491.015V26.76L493.831 24.072C494.205 23.72 494.402 23.5067 494.423 23.432C494.455 23.3573 494.381 23.3093 494.199 23.288L493.319 23.176V22.728H496.599V23.176L495.719 23.288C495.623 23.2987 495.543 23.32 495.479 23.352C495.415 23.384 495.325 23.4533 495.207 23.56C495.09 23.656 494.903 23.8267 494.647 24.072L493.111 25.544L495.383 29.496C495.533 29.7413 495.645 29.9173 495.719 30.024C495.794 30.12 495.863 30.184 495.927 30.216C496.002 30.2373 496.093 30.2587 496.199 30.28L497.079 30.392V30.84H494.023L491.799 26.792L491.015 27.544V29.496C491.015 29.8587 491.031 30.0773 491.063 30.152C491.095 30.216 491.197 30.2587 491.367 30.28L492.247 30.392V30.84H487.943V30.392L488.823 30.28C488.994 30.2587 489.095 30.216 489.127 30.152C489.159 30.0773 489.175 29.8587 489.175 29.496V20.344C489.175 19.9813 489.159 19.768 489.127 19.704C489.095 19.6293 488.994 19.5813 488.823 19.56L487.943 19.448ZM8.25601 45.616V45.936C8.25601 47.1627 7.93601 48.1493 7.29601 48.896C6.66668 49.632 5.76534 50 4.59201 50C3.41868 50 2.51201 49.632 1.87201 48.896C1.24268 48.1493 0.928008 47.1627 0.928008 45.936V45.616C0.928008 44.3893 1.24268 43.408 1.87201 42.672C2.51201 41.936 3.41868 41.568 4.59201 41.568C5.76534 41.568 6.66668 41.936 7.29601 42.672C7.93601 43.408 8.25601 44.3893 8.25601 45.616ZM6.28801 45.296C6.28801 44.1547 6.14401 43.344 5.85601 42.864C5.56801 42.3733 5.14668 42.128 4.59201 42.128C4.04801 42.128 3.62668 42.3733 3.32801 42.864C3.04001 43.344 2.89601 44.1547 2.89601 45.296V46.256C2.89601 47.3867 3.04001 48.2027 3.32801 48.704C3.62668 49.1947 4.04801 49.44 4.59201 49.44C5.14668 49.44 5.56801 49.1947 5.85601 48.704C6.14401 48.2027 6.28801 47.3867 6.28801 46.256V45.296ZM12.1684 42.176V41.728H15.1444V43.04C15.7951 42.0587 16.5684 41.568 17.4644 41.568C17.7951 41.568 18.1151 41.6747 18.4244 41.888C18.7337 42.0907 18.9897 42.4747 19.1924 43.04L17.7684 43.808C17.6191 43.3707 17.4431 43.0773 17.2404 42.928C17.0484 42.768 16.8404 42.688 16.6164 42.688C16.3817 42.688 16.1524 42.7627 15.9284 42.912C15.7044 43.0613 15.4751 43.3387 15.2404 43.744V48.496C15.2404 48.8587 15.2564 49.0773 15.2884 49.152C15.3204 49.216 15.4217 49.2587 15.5924 49.28L16.7924 49.392V49.84H12.1684V49.392L13.0484 49.28C13.2191 49.2587 13.3204 49.216 13.3524 49.152C13.3844 49.0773 13.4004 48.8587 13.4004 48.496V43.072C13.4004 42.7093 13.3844 42.496 13.3524 42.432C13.3204 42.3573 13.2191 42.3093 13.0484 42.288L12.1684 42.176ZM36.7371 49.44C36.5665 49.6 36.3585 49.7333 36.1131 49.84C35.8785 49.9467 35.5905 50 35.2491 50C34.8118 50 34.4438 49.904 34.1451 49.712C33.8571 49.52 33.6651 49.248 33.5691 48.896C33.2171 49.28 32.8278 49.5627 32.4011 49.744C31.9851 49.9147 31.5585 50 31.1211 50C30.3851 50 29.8358 49.7973 29.4731 49.392C29.1105 48.976 28.9291 48.4587 28.9291 47.84C28.9291 47.2107 29.1585 46.704 29.6171 46.32C30.0758 45.9253 30.8865 45.728 32.0491 45.728H33.5051V44.432C33.5051 43.5467 33.3878 42.944 33.1531 42.624C32.9291 42.2933 32.6145 42.128 32.2091 42.128C31.9425 42.128 31.6971 42.1973 31.4731 42.336C31.2491 42.464 31.0891 42.7093 30.9931 43.072C30.9078 43.424 30.9238 43.936 31.0411 44.608L29.2811 44.352C29.1958 43.8613 29.2491 43.408 29.4411 42.992C29.6438 42.5653 29.9798 42.224 30.4491 41.968C30.9185 41.7013 31.5158 41.568 32.2411 41.568C33.0625 41.568 33.6971 41.7013 34.1451 41.968C34.5931 42.2347 34.9025 42.5867 35.0731 43.024C35.2545 43.4613 35.3451 43.9307 35.3451 44.432V48.128C35.3451 48.672 35.3931 49.0133 35.4891 49.152C35.5851 49.2907 35.6918 49.36 35.8091 49.36C36.0011 49.36 36.2145 49.248 36.4491 49.024L36.7371 49.44ZM31.8251 49.152C32.1025 49.152 32.3745 49.0827 32.6411 48.944C32.9185 48.7947 33.2065 48.5227 33.5051 48.128V46.288H32.3051C31.7825 46.288 31.4038 46.4107 31.1691 46.656C30.9345 46.9013 30.8171 47.2853 30.8171 47.808C30.8171 48.2347 30.9025 48.5653 31.0731 48.8C31.2438 49.0347 31.4945 49.152 31.8251 49.152ZM54.9406 49.392V49.84H51.9646V48.512C51.666 49.0027 51.33 49.376 50.9566 49.632C50.594 49.8773 50.162 50 49.6606 50C48.7646 50 48.05 49.648 47.5166 48.944C46.994 48.2293 46.7326 47.232 46.7326 45.952V45.632C46.7326 44.3947 47.0366 43.408 47.6446 42.672C48.2633 41.936 49.106 41.568 50.1726 41.568C50.8126 41.568 51.378 41.728 51.8686 42.048V39.344C51.8686 38.9813 51.8526 38.768 51.8206 38.704C51.7886 38.6293 51.6873 38.5813 51.5166 38.56L50.6366 38.448V38H53.7086V48.496C53.7086 48.8587 53.7246 49.0773 53.7566 49.152C53.7886 49.216 53.89 49.2587 54.0606 49.28L54.9406 49.392ZM48.7006 46.432C48.7006 47.424 48.8233 48.1493 49.0686 48.608C49.314 49.0667 49.65 49.296 50.0766 49.296C50.3433 49.296 50.6206 49.1893 50.9086 48.976C51.2073 48.752 51.5273 48.304 51.8686 47.632V42.8C51.4633 42.3947 50.9673 42.192 50.3806 42.192C49.794 42.192 49.3673 42.4587 49.1006 42.992C48.834 43.5147 48.7006 44.2347 48.7006 45.152V46.432ZM58.284 42.176V41.728H61.26V43.04C61.9107 42.0587 62.684 41.568 63.58 41.568C63.9107 41.568 64.2307 41.6747 64.54 41.888C64.8493 42.0907 65.1053 42.4747 65.308 43.04L63.884 43.808C63.7347 43.3707 63.5587 43.0773 63.356 42.928C63.164 42.768 62.956 42.688 62.732 42.688C62.4973 42.688 62.268 42.7627 62.044 42.912C61.82 43.0613 61.5907 43.3387 61.356 43.744V48.496C61.356 48.8587 61.372 49.0773 61.404 49.152C61.436 49.216 61.5373 49.2587 61.708 49.28L62.908 49.392V49.84H58.284V49.392L59.164 49.28C59.3347 49.2587 59.436 49.216 59.468 49.152C59.5 49.0773 59.516 48.8587 59.516 48.496V43.072C59.516 42.7093 59.5 42.496 59.468 42.432C59.436 42.3573 59.3347 42.3093 59.164 42.288L58.284 42.176ZM70.5386 40.352C70.208 40.352 69.9413 40.2507 69.7386 40.048C69.536 39.8347 69.4346 39.5627 69.4346 39.232C69.4346 38.9013 69.536 38.6347 69.7386 38.432C69.9413 38.2293 70.208 38.128 70.5386 38.128C70.8586 38.128 71.1253 38.2293 71.3386 38.432C71.552 38.6347 71.6586 38.9013 71.6586 39.232C71.6586 39.5627 71.552 39.8347 71.3386 40.048C71.1253 40.2507 70.8586 40.352 70.5386 40.352ZM68.3946 42.176V41.728H71.4666V48.496C71.4666 48.8587 71.4826 49.0773 71.5146 49.152C71.5466 49.216 71.648 49.2587 71.8186 49.28L72.6986 49.392V49.84H68.3946V49.392L69.2746 49.28C69.4453 49.2587 69.5466 49.216 69.5786 49.152C69.6106 49.0773 69.6266 48.8587 69.6266 48.496V43.072C69.6266 42.7093 69.6106 42.496 69.5786 42.432C69.5466 42.3573 69.4453 42.3093 69.2746 42.288L68.3946 42.176ZM85.4605 49.392V49.84H81.1565V49.392L82.0365 49.28C82.2072 49.2587 82.3085 49.216 82.3405 49.152C82.3725 49.0773 82.3885 48.8587 82.3885 48.496V44.464C82.3885 43.728 82.2765 43.1947 82.0525 42.864C81.8392 42.5227 81.5192 42.352 81.0925 42.352C80.9112 42.352 80.6978 42.4 80.4525 42.496C80.2178 42.5813 79.9778 42.7413 79.7325 42.976C79.4978 43.2107 79.2898 43.5573 79.1085 44.016V48.496C79.1085 48.8587 79.1245 49.0773 79.1565 49.152C79.1885 49.216 79.2898 49.2587 79.4605 49.28L80.3405 49.392V49.84H76.0365V49.392L76.9165 49.28C77.0872 49.2587 77.1885 49.216 77.2205 49.152C77.2525 49.0773 77.2685 48.8587 77.2685 48.496V43.072C77.2685 42.7093 77.2525 42.496 77.2205 42.432C77.1885 42.3573 77.0872 42.3093 76.9165 42.288L76.0365 42.176V41.728H79.0125V43.136C79.3218 42.592 79.7165 42.1973 80.1965 41.952C80.6872 41.696 81.1778 41.568 81.6685 41.568C82.4578 41.568 83.0818 41.8187 83.5405 42.32C83.9992 42.8213 84.2285 43.5307 84.2285 44.448V48.496C84.2285 48.8587 84.2445 49.0773 84.2765 49.152C84.3085 49.216 84.4098 49.2587 84.5805 49.28L85.4605 49.392ZM88.6133 38.448V38H91.6853V45.76L94.5013 43.072C94.8746 42.72 95.0719 42.5067 95.0933 42.432C95.1253 42.3573 95.0506 42.3093 94.8693 42.288L93.9893 42.176V41.728H97.2693V42.176L96.3893 42.288C96.2933 42.2987 96.2133 42.32 96.1493 42.352C96.0853 42.384 95.9946 42.4533 95.8773 42.56C95.7599 42.656 95.5733 42.8267 95.3173 43.072L93.7813 44.544L96.0533 48.496C96.2026 48.7413 96.3146 48.9173 96.3893 49.024C96.4639 49.12 96.5333 49.184 96.5973 49.216C96.6719 49.2373 96.7626 49.2587 96.8693 49.28L97.7493 49.392V49.84H94.6933L92.4693 45.792L91.6853 46.544V48.496C91.6853 48.8587 91.7013 49.0773 91.7333 49.152C91.7653 49.216 91.8666 49.2587 92.0373 49.28L92.9173 49.392V49.84H88.6133V49.392L89.4933 49.28C89.6639 49.2587 89.7653 49.216 89.7973 49.152C89.8293 49.0773 89.8453 48.8587 89.8453 48.496V39.344C89.8453 38.9813 89.8293 38.768 89.7973 38.704C89.7653 38.6293 89.6639 38.5813 89.4933 38.56L88.6133 38.448Z" fill="#110101"/>
</svg>
