<svg width="367" height="16" viewBox="0 0 367 16" fill="none" xmlns="http://www.w3.org/2000/svg">
<path d="M4.57597 12C3.59464 12 2.76264 11.792 2.07997 11.376C1.3973 10.9494 0.87997 10.352 0.52797 9.58403C0.17597 8.81603 -3.02792e-05 7.92003 -3.02792e-05 6.89603V5.88803C-3.02792e-05 4.86403 0.154636 3.97336 0.46397 3.21603C0.78397 2.44803 1.25864 1.85603 1.88797 1.44003C2.5173 1.01336 3.30664 0.800026 4.25597 0.800026C5.06664 0.800026 5.74397 0.960026 6.28797 1.28003C6.83197 1.58936 7.23197 2.00536 7.48797 2.52803C7.75464 3.04003 7.86664 3.60003 7.82397 4.20803L5.95197 4.67203C6.05864 3.60536 5.94664 2.78936 5.61597 2.22403C5.29597 1.64803 4.81597 1.36003 4.17597 1.36003C3.4933 1.36003 2.9653 1.64803 2.59197 2.22403C2.2293 2.80003 2.04797 3.75469 2.04797 5.08803V7.69603C2.04797 9.01869 2.25597 9.97336 2.67197 10.56C3.08797 11.1467 3.72264 11.44 4.57597 11.44C4.92797 11.44 5.2533 11.376 5.55197 11.248C5.8613 11.12 6.1173 10.9014 6.31997 10.592C6.5333 10.272 6.66664 9.82403 6.71997 9.24803L7.87197 9.55203C7.72264 10.1494 7.48264 10.6294 7.15197 10.992C6.8213 11.3547 6.43197 11.616 5.98397 11.776C5.54664 11.9254 5.0773 12 4.57597 12ZM13.2428 12C12.9122 12 12.6402 11.8987 12.4268 11.696C12.2242 11.4827 12.1228 11.2054 12.1228 10.864C12.1228 10.5227 12.2242 10.2507 12.4268 10.048C12.6402 9.84536 12.9122 9.74403 13.2428 9.74403C13.5735 9.74403 13.8455 9.84536 14.0588 10.048C14.2722 10.2507 14.3788 10.5227 14.3788 10.864C14.3788 11.2054 14.2722 11.4827 14.0588 11.696C13.8455 11.8987 13.5735 12 13.2428 12ZM24.9951 1.40803V0.960027H29.3791V1.40803L28.4991 1.52003C28.3284 1.54136 28.2271 1.58936 28.1951 1.66403C28.1631 1.72803 28.1471 1.94136 28.1471 2.30403V10.496C28.1471 10.8587 28.1631 11.0774 28.1951 11.152C28.2271 11.216 28.3284 11.2587 28.4991 11.28L29.3791 11.392V11.84H24.9951V11.392L25.8751 11.28C26.0458 11.2587 26.1471 11.216 26.1791 11.152C26.2111 11.0774 26.2271 10.8587 26.2271 10.496V2.30403C26.2271 1.94136 26.2111 1.72803 26.1791 1.66403C26.1471 1.58936 26.0458 1.54136 25.8751 1.52003L24.9951 1.40803ZM40.9687 12.672C40.9687 13.5467 40.6381 14.2187 39.9767 14.688C39.3261 15.168 38.4301 15.408 37.2887 15.408C36.0301 15.408 35.0914 15.2 34.4727 14.784C33.8541 14.3787 33.5181 13.872 33.4647 13.264L35.1767 12.992C35.1341 13.5574 35.2674 14.0054 35.5767 14.336C35.8967 14.6774 36.4674 14.848 37.2887 14.848C38.0567 14.848 38.6754 14.704 39.1447 14.416C39.6247 14.128 39.8647 13.712 39.8647 13.168C39.8647 12.784 39.7207 12.4907 39.4327 12.288C39.1554 12.096 38.6914 12 38.0407 12H36.2167C35.6514 12 35.2034 11.92 34.8727 11.76C34.5527 11.6 34.3287 11.4027 34.2007 11.168C34.0727 10.9227 34.0087 10.672 34.0087 10.416C34.0087 10.1067 34.0941 9.80269 34.2647 9.50403C34.4354 9.19469 34.7287 8.89069 35.1447 8.59203C34.6861 8.38936 34.3127 8.09069 34.0247 7.69603C33.7367 7.30136 33.5927 6.81069 33.5927 6.22403C33.5927 5.62669 33.7314 5.13603 34.0087 4.75203C34.2861 4.35736 34.6594 4.06403 35.1287 3.87203C35.5981 3.66936 36.1207 3.56803 36.6967 3.56803H36.9687C37.5874 3.56803 38.1207 3.66936 38.5687 3.87203L40.8727 2.73603L41.0647 4.30403H39.2407C39.4967 4.52803 39.6941 4.80003 39.8327 5.12003C39.9821 5.42936 40.0567 5.79736 40.0567 6.22403C40.0567 6.80003 39.9181 7.28536 39.6407 7.68003C39.3634 8.07469 38.9901 8.37336 38.5207 8.57603C38.0621 8.77869 37.5447 8.88003 36.9687 8.88003H36.6967C36.3767 8.88003 36.0621 8.84803 35.7527 8.78403C35.4861 8.96536 35.2994 9.14136 35.1927 9.31203C35.0967 9.47203 35.0487 9.62669 35.0487 9.77603C35.0487 9.94669 35.1234 10.0747 35.2727 10.16C35.4327 10.2454 35.6887 10.288 36.0407 10.288H38.1207C39.0381 10.288 39.7421 10.496 40.2327 10.912C40.7234 11.3174 40.9687 11.904 40.9687 12.672ZM36.9687 8.32003C37.3101 8.32003 37.6034 8.17069 37.8487 7.87203C38.0941 7.57336 38.2167 7.02403 38.2167 6.22403C38.2167 5.42403 38.0941 4.87469 37.8487 4.57603C37.6034 4.27736 37.3101 4.12803 36.9687 4.12803H36.6967C36.3554 4.12803 36.0567 4.27736 35.8007 4.57603C35.5554 4.87469 35.4327 5.42403 35.4327 6.22403C35.4327 7.02403 35.5554 7.57336 35.8007 7.87203C36.0567 8.17069 36.3554 8.32003 36.6967 8.32003H36.9687ZM53.8203 11.392V11.84H49.5163V11.392L50.3963 11.28C50.567 11.2587 50.6683 11.216 50.7003 11.152C50.7323 11.0774 50.7483 10.8587 50.7483 10.496V6.46403C50.7483 5.72803 50.6363 5.19469 50.4123 4.86403C50.199 4.52269 49.879 4.35203 49.4523 4.35203C49.271 4.35203 49.0577 4.40003 48.8123 4.49603C48.5777 4.58136 48.3377 4.74136 48.0923 4.97603C47.8577 5.21069 47.6497 5.55736 47.4683 6.01603V10.496C47.4683 10.8587 47.4843 11.0774 47.5163 11.152C47.5483 11.216 47.6497 11.2587 47.8203 11.28L48.7003 11.392V11.84H44.3963V11.392L45.2763 11.28C45.447 11.2587 45.5483 11.216 45.5803 11.152C45.6123 11.0774 45.6283 10.8587 45.6283 10.496V5.07203C45.6283 4.70936 45.6123 4.49603 45.5803 4.43203C45.5483 4.35736 45.447 4.30936 45.2763 4.28803L44.3963 4.17603V3.72803H47.3723V5.13603C47.6817 4.59203 48.0763 4.19736 48.5563 3.95203C49.047 3.69603 49.5377 3.56803 50.0283 3.56803C50.8177 3.56803 51.4417 3.81869 51.9003 4.32003C52.359 4.82136 52.5883 5.53069 52.5883 6.44803V10.496C52.5883 10.8587 52.6043 11.0774 52.6363 11.152C52.6683 11.216 52.7697 11.2587 52.9403 11.28L53.8203 11.392ZM64.8771 7.61603V7.93603C64.8771 9.16269 64.5571 10.1494 63.9171 10.896C63.2878 11.632 62.3864 12 61.2131 12C60.0398 12 59.1331 11.632 58.4931 10.896C57.8638 10.1494 57.5491 9.16269 57.5491 7.93603V7.61603C57.5491 6.38936 57.8638 5.40803 58.4931 4.67203C59.1331 3.93603 60.0398 3.56803 61.2131 3.56803C62.3864 3.56803 63.2878 3.93603 63.9171 4.67203C64.5571 5.40803 64.8771 6.38936 64.8771 7.61603ZM62.9091 7.29603C62.9091 6.15469 62.7651 5.34403 62.4771 4.86403C62.1891 4.37336 61.7678 4.12803 61.2131 4.12803C60.6691 4.12803 60.2478 4.37336 59.9491 4.86403C59.6611 5.34403 59.5171 6.15469 59.5171 7.29603V8.25603C59.5171 9.38669 59.6611 10.2027 59.9491 10.704C60.2478 11.1947 60.6691 11.44 61.2131 11.44C61.7678 11.44 62.1891 11.1947 62.4771 10.704C62.7651 10.2027 62.9091 9.38669 62.9091 8.25603V7.29603ZM68.7895 4.17603V3.72803H71.7655V5.04003C72.4161 4.05869 73.1895 3.56803 74.0855 3.56803C74.4161 3.56803 74.7361 3.67469 75.0455 3.88803C75.3548 4.09069 75.6108 4.47469 75.8135 5.04003L74.3895 5.80803C74.2401 5.37069 74.0641 5.07736 73.8615 4.92803C73.6695 4.76803 73.4615 4.68803 73.2375 4.68803C73.0028 4.68803 72.7735 4.76269 72.5495 4.91203C72.3255 5.06136 72.0961 5.33869 71.8615 5.74403V10.496C71.8615 10.8587 71.8775 11.0774 71.9095 11.152C71.9415 11.216 72.0428 11.2587 72.2135 11.28L73.4135 11.392V11.84H68.7895V11.392L69.6695 11.28C69.8401 11.2587 69.9415 11.216 69.9735 11.152C70.0055 11.0774 70.0215 10.8587 70.0215 10.496V5.07203C70.0215 4.70936 70.0055 4.49603 69.9735 4.43203C69.9415 4.35736 69.8401 4.30936 69.6695 4.28803L68.7895 4.17603ZM85.8817 9.93603C85.6897 10.6827 85.3324 11.216 84.8097 11.536C84.2871 11.8454 83.6791 12 82.9857 12C81.7057 12 80.7457 11.632 80.1057 10.896C79.4657 10.1494 79.1457 9.16269 79.1457 7.93603V7.61603C79.1457 6.38936 79.4444 5.40803 80.0417 4.67203C80.6497 3.93603 81.5244 3.56803 82.6657 3.56803C83.3057 3.56803 83.8711 3.69603 84.3617 3.95203C84.8631 4.19736 85.2524 4.55469 85.5297 5.02403C85.8177 5.49336 85.9617 6.06403 85.9617 6.73603C85.9617 6.89603 85.9511 7.06669 85.9297 7.24803C85.9191 7.42936 85.8924 7.61069 85.8497 7.79203H81.1137V8.25603C81.1137 9.38669 81.2737 10.2027 81.5937 10.704C81.9137 11.1947 82.4311 11.44 83.1457 11.44C83.6044 11.44 83.9937 11.3067 84.3137 11.04C84.6337 10.7627 84.8151 10.2987 84.8577 9.64803L85.8817 9.93603ZM82.6657 4.12803C82.1431 4.12803 81.7537 4.36803 81.4977 4.84803C81.2417 5.32803 81.1137 6.12269 81.1137 7.23203H84.0097C84.0524 7.01869 84.0791 6.82136 84.0897 6.64003C84.1111 6.44803 84.1217 6.27203 84.1217 6.11203C84.1217 5.42936 83.9884 4.92803 83.7217 4.60803C83.4551 4.28803 83.1031 4.12803 82.6657 4.12803ZM101.849 10.176C101.71 10.8267 101.443 11.296 101.049 11.584C100.665 11.8614 100.195 12 99.6406 12C99.0753 12 98.6113 11.8774 98.2486 11.632C97.8859 11.376 97.6193 11.04 97.4486 10.624C97.2779 10.208 97.1926 9.76536 97.1926 9.29603V5.07203C97.1926 4.70936 97.1766 4.49603 97.1446 4.43203C97.1126 4.35736 97.0113 4.30936 96.8406 4.28803L95.9606 4.17603V3.72803H97.1926V1.87203L99.0326 1.50403V3.72803H101.593V4.28803H99.0326V9.61603C99.0326 10.2987 99.1179 10.7734 99.2886 11.04C99.4593 11.296 99.6779 11.424 99.9446 11.424C100.222 11.424 100.435 11.3174 100.585 11.104C100.745 10.8907 100.846 10.5014 100.889 9.93603L101.849 10.176ZM114.497 11.392V11.84H110.193V11.392L111.073 11.28C111.244 11.2587 111.345 11.216 111.377 11.152C111.409 11.0774 111.425 10.8587 111.425 10.496V6.46403C111.425 5.72803 111.313 5.19469 111.089 4.86403C110.876 4.52269 110.556 4.35203 110.129 4.35203C109.948 4.35203 109.734 4.40003 109.489 4.49603C109.254 4.58136 109.014 4.74136 108.769 4.97603C108.534 5.21069 108.326 5.55736 108.145 6.01603V10.496C108.145 10.8587 108.161 11.0774 108.193 11.152C108.225 11.216 108.326 11.2587 108.497 11.28L109.377 11.392V11.84H105.073V11.392L105.953 11.28C106.124 11.2587 106.225 11.216 106.257 11.152C106.289 11.0774 106.305 10.8587 106.305 10.496V1.34403C106.305 0.981359 106.289 0.768026 106.257 0.704026C106.225 0.62936 106.124 0.58136 105.953 0.560026L105.073 0.448027V2.67029e-05H108.145V4.97603C108.454 4.48536 108.838 4.12803 109.297 3.90403C109.766 3.68003 110.236 3.56803 110.705 3.56803C111.494 3.56803 112.118 3.81869 112.577 4.32003C113.036 4.82136 113.265 5.53069 113.265 6.44803V10.496C113.265 10.8587 113.281 11.0774 113.313 11.152C113.345 11.216 113.446 11.2587 113.617 11.28L114.497 11.392ZM124.98 9.93603C124.788 10.6827 124.431 11.216 123.908 11.536C123.386 11.8454 122.778 12 122.084 12C120.804 12 119.844 11.632 119.204 10.896C118.564 10.1494 118.244 9.16269 118.244 7.93603V7.61603C118.244 6.38936 118.543 5.40803 119.14 4.67203C119.748 3.93603 120.623 3.56803 121.764 3.56803C122.404 3.56803 122.97 3.69603 123.46 3.95203C123.962 4.19736 124.351 4.55469 124.628 5.02403C124.916 5.49336 125.06 6.06403 125.06 6.73603C125.06 6.89603 125.05 7.06669 125.028 7.24803C125.018 7.42936 124.991 7.61069 124.948 7.79203H120.212V8.25603C120.212 9.38669 120.372 10.2027 120.692 10.704C121.012 11.1947 121.53 11.44 122.244 11.44C122.703 11.44 123.092 11.3067 123.412 11.04C123.732 10.7627 123.914 10.2987 123.956 9.64803L124.98 9.93603ZM121.764 4.12803C121.242 4.12803 120.852 4.36803 120.596 4.84803C120.34 5.32803 120.212 6.12269 120.212 7.23203H123.108C123.151 7.01869 123.178 6.82136 123.188 6.64003C123.21 6.44803 123.22 6.27203 123.22 6.11203C123.22 5.42936 123.087 4.92803 122.82 4.60803C122.554 4.28803 122.202 4.12803 121.764 4.12803ZM140.947 10.176C140.809 10.8267 140.542 11.296 140.147 11.584C139.763 11.8614 139.294 12 138.739 12C138.174 12 137.71 11.8774 137.347 11.632C136.985 11.376 136.718 11.04 136.547 10.624C136.377 10.208 136.291 9.76536 136.291 9.29603V5.07203C136.291 4.70936 136.275 4.49603 136.243 4.43203C136.211 4.35736 136.11 4.30936 135.939 4.28803L135.059 4.17603V3.72803H136.291V1.87203L138.131 1.50403V3.72803H140.691V4.28803H138.131V9.61603C138.131 10.2987 138.217 10.7734 138.387 11.04C138.558 11.296 138.777 11.424 139.043 11.424C139.321 11.424 139.534 11.3174 139.683 11.104C139.843 10.8907 139.945 10.5014 139.987 9.93603L140.947 10.176ZM152.444 11.44C152.273 11.6 152.065 11.7334 151.82 11.84C151.585 11.9467 151.297 12 150.956 12C150.519 12 150.151 11.904 149.852 11.712C149.564 11.52 149.372 11.248 149.276 10.896C148.924 11.28 148.535 11.5627 148.108 11.744C147.692 11.9147 147.265 12 146.828 12C146.092 12 145.543 11.7974 145.18 11.392C144.817 10.976 144.636 10.4587 144.636 9.84003C144.636 9.21069 144.865 8.70403 145.324 8.32003C145.783 7.92536 146.593 7.72803 147.756 7.72803H149.212V6.43203C149.212 5.54669 149.095 4.94403 148.86 4.62403C148.636 4.29336 148.321 4.12803 147.916 4.12803C147.649 4.12803 147.404 4.19736 147.18 4.33603C146.956 4.46403 146.796 4.70936 146.7 5.07203C146.615 5.42403 146.631 5.93603 146.748 6.60803L144.988 6.35203C144.903 5.86136 144.956 5.40803 145.148 4.99203C145.351 4.56536 145.687 4.22403 146.156 3.96803C146.625 3.70136 147.223 3.56803 147.948 3.56803C148.769 3.56803 149.404 3.70136 149.852 3.96803C150.3 4.23469 150.609 4.58669 150.78 5.02403C150.961 5.46136 151.052 5.93069 151.052 6.43203V10.128C151.052 10.672 151.1 11.0134 151.196 11.152C151.292 11.2907 151.399 11.36 151.516 11.36C151.708 11.36 151.921 11.248 152.156 11.024L152.444 11.44ZM147.532 11.152C147.809 11.152 148.081 11.0827 148.348 10.944C148.625 10.7947 148.913 10.5227 149.212 10.128V8.28803H148.012C147.489 8.28803 147.111 8.41069 146.876 8.65603C146.641 8.90136 146.524 9.28536 146.524 9.80803C146.524 10.2347 146.609 10.5654 146.78 10.8C146.951 11.0347 147.201 11.152 147.532 11.152ZM159.261 8.81603L158.157 8.56003C157.443 8.38936 156.909 8.08536 156.557 7.64803C156.216 7.20003 156.045 6.67203 156.045 6.06403C156.045 5.61603 156.141 5.20536 156.333 4.83203C156.536 4.44803 156.851 4.14403 157.277 3.92003C157.704 3.68536 158.259 3.56803 158.941 3.56803C159.677 3.56803 160.275 3.68536 160.733 3.92003C161.192 4.15469 161.517 4.46403 161.709 4.84803C161.901 5.23203 161.96 5.64269 161.885 6.08003L160.125 6.40003C160.275 5.67469 160.232 5.11469 159.997 4.72003C159.773 4.32536 159.395 4.12803 158.861 4.12803C158.488 4.12803 158.179 4.24003 157.933 4.46403C157.688 4.67736 157.565 4.98669 157.565 5.39203C157.565 5.76536 157.672 6.09603 157.885 6.38403C158.099 6.66136 158.413 6.84803 158.829 6.94403L159.933 7.20003C160.723 7.38136 161.293 7.66936 161.645 8.06403C161.997 8.44803 162.173 8.92803 162.173 9.50403C162.173 10.2187 161.907 10.816 161.373 11.296C160.851 11.7654 160.067 12 159.021 12C158.659 12 158.259 11.9467 157.821 11.84C157.395 11.7227 157 11.5147 156.637 11.216C156.285 10.9174 156.029 10.4907 155.869 9.93603L156.909 9.52003C156.984 10.224 157.224 10.72 157.629 11.008C158.045 11.296 158.509 11.44 159.021 11.44C159.501 11.44 159.891 11.3334 160.189 11.12C160.499 10.896 160.653 10.576 160.653 10.16C160.653 9.87203 160.552 9.61069 160.349 9.37603C160.157 9.13069 159.795 8.94403 159.261 8.81603ZM165.909 0.448027V2.67029e-05H168.981V7.76003L171.797 5.07203C172.17 4.72003 172.367 4.50669 172.389 4.43203C172.421 4.35736 172.346 4.30936 172.165 4.28803L171.285 4.17603V3.72803H174.565V4.17603L173.685 4.28803C173.589 4.29869 173.509 4.32003 173.445 4.35203C173.381 4.38403 173.29 4.45336 173.173 4.56003C173.055 4.65603 172.869 4.82669 172.613 5.07203L171.077 6.54403L173.349 10.496C173.498 10.7414 173.61 10.9174 173.685 11.024C173.759 11.12 173.829 11.184 173.893 11.216C173.967 11.2374 174.058 11.2587 174.165 11.28L175.045 11.392V11.84H171.989L169.765 7.79203L168.981 8.54403V10.496C168.981 10.8587 168.997 11.0774 169.029 11.152C169.061 11.216 169.162 11.2587 169.333 11.28L170.213 11.392V11.84H165.909V11.392L166.789 11.28C166.959 11.2587 167.061 11.216 167.093 11.152C167.125 11.0774 167.141 10.8587 167.141 10.496V1.34403C167.141 0.981359 167.125 0.768026 167.093 0.704026C167.061 0.62936 166.959 0.58136 166.789 0.560026L165.909 0.448027ZM181.795 8.81603L180.691 8.56003C179.976 8.38936 179.443 8.08536 179.091 7.64803C178.75 7.20003 178.579 6.67203 178.579 6.06403C178.579 5.61603 178.675 5.20536 178.867 4.83203C179.07 4.44803 179.384 4.14403 179.811 3.92003C180.238 3.68536 180.792 3.56803 181.475 3.56803C182.211 3.56803 182.808 3.68536 183.267 3.92003C183.726 4.15469 184.051 4.46403 184.243 4.84803C184.435 5.23203 184.494 5.64269 184.419 6.08003L182.659 6.40003C182.808 5.67469 182.766 5.11469 182.531 4.72003C182.307 4.32536 181.928 4.12803 181.395 4.12803C181.022 4.12803 180.712 4.24003 180.467 4.46403C180.222 4.67736 180.099 4.98669 180.099 5.39203C180.099 5.76536 180.206 6.09603 180.419 6.38403C180.632 6.66136 180.947 6.84803 181.363 6.94403L182.467 7.20003C183.256 7.38136 183.827 7.66936 184.179 8.06403C184.531 8.44803 184.707 8.92803 184.707 9.50403C184.707 10.2187 184.44 10.816 183.907 11.296C183.384 11.7654 182.6 12 181.555 12C181.192 12 180.792 11.9467 180.355 11.84C179.928 11.7227 179.534 11.5147 179.171 11.216C178.819 10.9174 178.563 10.4907 178.403 9.93603L179.443 9.52003C179.518 10.224 179.758 10.72 180.163 11.008C180.579 11.296 181.043 11.44 181.555 11.44C182.035 11.44 182.424 11.3334 182.723 11.12C183.032 10.896 183.187 10.576 183.187 10.16C183.187 9.87203 183.086 9.61069 182.883 9.37603C182.691 9.13069 182.328 8.94403 181.795 8.81603ZM203.013 11.44C202.842 11.6 202.634 11.7334 202.389 11.84C202.154 11.9467 201.866 12 201.525 12C201.087 12 200.719 11.904 200.421 11.712C200.133 11.52 199.941 11.248 199.845 10.896C199.493 11.28 199.103 11.5627 198.677 11.744C198.261 11.9147 197.834 12 197.397 12C196.661 12 196.111 11.7974 195.749 11.392C195.386 10.976 195.205 10.4587 195.205 9.84003C195.205 9.21069 195.434 8.70403 195.893 8.32003C196.351 7.92536 197.162 7.72803 198.325 7.72803H199.781V6.43203C199.781 5.54669 199.663 4.94403 199.429 4.62403C199.205 4.29336 198.89 4.12803 198.485 4.12803C198.218 4.12803 197.973 4.19736 197.749 4.33603C197.525 4.46403 197.365 4.70936 197.269 5.07203C197.183 5.42403 197.199 5.93603 197.317 6.60803L195.557 6.35203C195.471 5.86136 195.525 5.40803 195.717 4.99203C195.919 4.56536 196.255 4.22403 196.725 3.96803C197.194 3.70136 197.791 3.56803 198.517 3.56803C199.338 3.56803 199.973 3.70136 200.421 3.96803C200.869 4.23469 201.178 4.58669 201.349 5.02403C201.53 5.46136 201.621 5.93069 201.621 6.43203V10.128C201.621 10.672 201.669 11.0134 201.765 11.152C201.861 11.2907 201.967 11.36 202.085 11.36C202.277 11.36 202.49 11.248 202.725 11.024L203.013 11.44ZM198.101 11.152C198.378 11.152 198.65 11.0827 198.917 10.944C199.194 10.7947 199.482 10.5227 199.781 10.128V8.28803H198.581C198.058 8.28803 197.679 8.41069 197.445 8.65603C197.21 8.90136 197.093 9.28536 197.093 9.80803C197.093 10.2347 197.178 10.5654 197.349 10.8C197.519 11.0347 197.77 11.152 198.101 11.152ZM215.606 11.392V11.84H211.302V11.392L212.182 11.28C212.353 11.2587 212.454 11.216 212.486 11.152C212.518 11.0774 212.534 10.8587 212.534 10.496V6.46403C212.534 5.72803 212.422 5.19469 212.198 4.86403C211.985 4.52269 211.665 4.35203 211.238 4.35203C211.057 4.35203 210.843 4.40003 210.598 4.49603C210.363 4.58136 210.123 4.74136 209.878 4.97603C209.643 5.21069 209.435 5.55736 209.254 6.01603V10.496C209.254 10.8587 209.27 11.0774 209.302 11.152C209.334 11.216 209.435 11.2587 209.606 11.28L210.486 11.392V11.84H206.182V11.392L207.062 11.28C207.233 11.2587 207.334 11.216 207.366 11.152C207.398 11.0774 207.414 10.8587 207.414 10.496V5.07203C207.414 4.70936 207.398 4.49603 207.366 4.43203C207.334 4.35736 207.233 4.30936 207.062 4.28803L206.182 4.17603V3.72803H209.158V5.13603C209.467 4.59203 209.862 4.19736 210.342 3.95203C210.833 3.69603 211.323 3.56803 211.814 3.56803C212.603 3.56803 213.227 3.81869 213.686 4.32003C214.145 4.82136 214.374 5.53069 214.374 6.44803V10.496C214.374 10.8587 214.39 11.0774 214.422 11.152C214.454 11.216 214.555 11.2587 214.726 11.28L215.606 11.392ZM227.607 11.392V11.84H224.631V10.512C224.332 11.0027 223.996 11.376 223.623 11.632C223.26 11.8774 222.828 12 222.327 12C221.431 12 220.716 11.648 220.183 10.944C219.66 10.2294 219.399 9.23203 219.399 7.95203V7.63203C219.399 6.39469 219.703 5.40803 220.311 4.67203C220.929 3.93603 221.772 3.56803 222.839 3.56803C223.479 3.56803 224.044 3.72803 224.535 4.04803V1.34403C224.535 0.981359 224.519 0.768026 224.487 0.704026C224.455 0.62936 224.353 0.58136 224.183 0.560026L223.303 0.448027V2.67029e-05H226.375V10.496C226.375 10.8587 226.391 11.0774 226.423 11.152C226.455 11.216 226.556 11.2587 226.727 11.28L227.607 11.392ZM221.367 8.43203C221.367 9.42403 221.489 10.1494 221.735 10.608C221.98 11.0667 222.316 11.296 222.743 11.296C223.009 11.296 223.287 11.1894 223.575 10.976C223.873 10.752 224.193 10.304 224.535 9.63203V4.80003C224.129 4.39469 223.633 4.19203 223.047 4.19203C222.46 4.19203 222.033 4.45869 221.767 4.99203C221.5 5.51469 221.367 6.23469 221.367 7.15203V8.43203ZM245.056 12.672C245.056 13.5467 244.726 14.2187 244.064 14.688C243.414 15.168 242.518 15.408 241.376 15.408C240.118 15.408 239.179 15.2 238.56 14.784C237.942 14.3787 237.606 13.872 237.552 13.264L239.264 12.992C239.222 13.5574 239.355 14.0054 239.664 14.336C239.984 14.6774 240.555 14.848 241.376 14.848C242.144 14.848 242.763 14.704 243.232 14.416C243.712 14.128 243.952 13.712 243.952 13.168C243.952 12.784 243.808 12.4907 243.52 12.288C243.243 12.096 242.779 12 242.128 12H240.304C239.739 12 239.291 11.92 238.96 11.76C238.64 11.6 238.416 11.4027 238.288 11.168C238.16 10.9227 238.096 10.672 238.096 10.416C238.096 10.1067 238.182 9.80269 238.352 9.50403C238.523 9.19469 238.816 8.89069 239.232 8.59203C238.774 8.38936 238.4 8.09069 238.112 7.69603C237.824 7.30136 237.68 6.81069 237.68 6.22403C237.68 5.62669 237.819 5.13603 238.096 4.75203C238.374 4.35736 238.747 4.06403 239.216 3.87203C239.686 3.66936 240.208 3.56803 240.784 3.56803H241.056C241.675 3.56803 242.208 3.66936 242.656 3.87203L244.96 2.73603L245.152 4.30403H243.328C243.584 4.52803 243.782 4.80003 243.92 5.12003C244.07 5.42936 244.144 5.79736 244.144 6.22403C244.144 6.80003 244.006 7.28536 243.728 7.68003C243.451 8.07469 243.078 8.37336 242.608 8.57603C242.15 8.77869 241.632 8.88003 241.056 8.88003H240.784C240.464 8.88003 240.15 8.84803 239.84 8.78403C239.574 8.96536 239.387 9.14136 239.28 9.31203C239.184 9.47203 239.136 9.62669 239.136 9.77603C239.136 9.94669 239.211 10.0747 239.36 10.16C239.52 10.2454 239.776 10.288 240.128 10.288H242.208C243.126 10.288 243.83 10.496 244.32 10.912C244.811 11.3174 245.056 11.904 245.056 12.672ZM241.056 8.32003C241.398 8.32003 241.691 8.17069 241.936 7.87203C242.182 7.57336 242.304 7.02403 242.304 6.22403C242.304 5.42403 242.182 4.87469 241.936 4.57603C241.691 4.27736 241.398 4.12803 241.056 4.12803H240.784C240.443 4.12803 240.144 4.27736 239.888 4.57603C239.643 4.87469 239.52 5.42403 239.52 6.22403C239.52 7.02403 239.643 7.57336 239.888 7.87203C240.144 8.17069 240.443 8.32003 240.784 8.32003H241.056ZM256.276 7.61603V7.93603C256.276 9.16269 255.956 10.1494 255.316 10.896C254.687 11.632 253.785 12 252.612 12C251.439 12 250.532 11.632 249.892 10.896C249.263 10.1494 248.948 9.16269 248.948 7.93603V7.61603C248.948 6.38936 249.263 5.40803 249.892 4.67203C250.532 3.93603 251.439 3.56803 252.612 3.56803C253.785 3.56803 254.687 3.93603 255.316 4.67203C255.956 5.40803 256.276 6.38936 256.276 7.61603ZM254.308 7.29603C254.308 6.15469 254.164 5.34403 253.876 4.86403C253.588 4.37336 253.167 4.12803 252.612 4.12803C252.068 4.12803 251.647 4.37336 251.348 4.86403C251.06 5.34403 250.916 6.15469 250.916 7.29603V8.25603C250.916 9.38669 251.06 10.2027 251.348 10.704C251.647 11.1947 252.068 11.44 252.612 11.44C253.167 11.44 253.588 11.1947 253.876 10.704C254.164 10.2027 254.308 9.38669 254.308 8.25603V7.29603ZM272.182 10.176C272.044 10.8267 271.777 11.296 271.382 11.584C270.998 11.8614 270.529 12 269.974 12C269.409 12 268.945 11.8774 268.582 11.632C268.22 11.376 267.953 11.04 267.782 10.624C267.612 10.208 267.526 9.76536 267.526 9.29603V5.07203C267.526 4.70936 267.51 4.49603 267.478 4.43203C267.446 4.35736 267.345 4.30936 267.174 4.28803L266.294 4.17603V3.72803H267.526V1.87203L269.366 1.50403V3.72803H271.926V4.28803H269.366V9.61603C269.366 10.2987 269.452 10.7734 269.622 11.04C269.793 11.296 270.012 11.424 270.278 11.424C270.556 11.424 270.769 11.3174 270.918 11.104C271.078 10.8907 271.18 10.5014 271.222 9.93603L272.182 10.176ZM283.679 11.44C283.508 11.6 283.3 11.7334 283.055 11.84C282.82 11.9467 282.532 12 282.191 12C281.754 12 281.386 11.904 281.087 11.712C280.799 11.52 280.607 11.248 280.511 10.896C280.159 11.28 279.77 11.5627 279.343 11.744C278.927 11.9147 278.5 12 278.063 12C277.327 12 276.778 11.7974 276.415 11.392C276.052 10.976 275.871 10.4587 275.871 9.84003C275.871 9.21069 276.1 8.70403 276.559 8.32003C277.018 7.92536 277.828 7.72803 278.991 7.72803H280.447V6.43203C280.447 5.54669 280.33 4.94403 280.095 4.62403C279.871 4.29336 279.556 4.12803 279.151 4.12803C278.884 4.12803 278.639 4.19736 278.415 4.33603C278.191 4.46403 278.031 4.70936 277.935 5.07203C277.85 5.42403 277.866 5.93603 277.983 6.60803L276.223 6.35203C276.138 5.86136 276.191 5.40803 276.383 4.99203C276.586 4.56536 276.922 4.22403 277.391 3.96803C277.86 3.70136 278.458 3.56803 279.183 3.56803C280.004 3.56803 280.639 3.70136 281.087 3.96803C281.535 4.23469 281.844 4.58669 282.015 5.02403C282.196 5.46136 282.287 5.93069 282.287 6.43203V10.128C282.287 10.672 282.335 11.0134 282.431 11.152C282.527 11.2907 282.634 11.36 282.751 11.36C282.943 11.36 283.156 11.248 283.391 11.024L283.679 11.44ZM278.767 11.152C279.044 11.152 279.316 11.0827 279.583 10.944C279.86 10.7947 280.148 10.5227 280.447 10.128V8.28803H279.247C278.724 8.28803 278.346 8.41069 278.111 8.65603C277.876 8.90136 277.759 9.28536 277.759 9.80803C277.759 10.2347 277.844 10.5654 278.015 10.8C278.186 11.0347 278.436 11.152 278.767 11.152ZM286.736 0.448027V2.67029e-05H289.808V7.76003L292.624 5.07203C292.998 4.72003 293.195 4.50669 293.216 4.43203C293.248 4.35736 293.174 4.30936 292.992 4.28803L292.112 4.17603V3.72803H295.392V4.17603L294.512 4.28803C294.416 4.29869 294.336 4.32003 294.272 4.35203C294.208 4.38403 294.118 4.45336 294 4.56003C293.883 4.65603 293.696 4.82669 293.44 5.07203L291.904 6.54403L294.176 10.496C294.326 10.7414 294.438 10.9174 294.512 11.024C294.587 11.12 294.656 11.184 294.72 11.216C294.795 11.2374 294.886 11.2587 294.992 11.28L295.872 11.392V11.84H292.816L290.592 7.79203L289.808 8.54403V10.496C289.808 10.8587 289.824 11.0774 289.856 11.152C289.888 11.216 289.99 11.2587 290.16 11.28L291.04 11.392V11.84H286.736V11.392L287.616 11.28C287.787 11.2587 287.888 11.216 287.92 11.152C287.952 11.0774 287.968 10.8587 287.968 10.496V1.34403C287.968 0.981359 287.952 0.768026 287.92 0.704026C287.888 0.62936 287.787 0.58136 287.616 0.560026L286.736 0.448027ZM306.034 9.93603C305.842 10.6827 305.485 11.216 304.962 11.536C304.44 11.8454 303.832 12 303.138 12C301.858 12 300.898 11.632 300.258 10.896C299.618 10.1494 299.298 9.16269 299.298 7.93603V7.61603C299.298 6.38936 299.597 5.40803 300.194 4.67203C300.802 3.93603 301.677 3.56803 302.818 3.56803C303.458 3.56803 304.024 3.69603 304.514 3.95203C305.016 4.19736 305.405 4.55469 305.682 5.02403C305.97 5.49336 306.114 6.06403 306.114 6.73603C306.114 6.89603 306.104 7.06669 306.082 7.24803C306.072 7.42936 306.045 7.61069 306.002 7.79203H301.266V8.25603C301.266 9.38669 301.426 10.2027 301.746 10.704C302.066 11.1947 302.584 11.44 303.298 11.44C303.757 11.44 304.146 11.3067 304.466 11.04C304.786 10.7627 304.968 10.2987 305.01 9.64803L306.034 9.93603ZM302.818 4.12803C302.296 4.12803 301.906 4.36803 301.65 4.84803C301.394 5.32803 301.266 6.12269 301.266 7.23203H304.162C304.205 7.01869 304.232 6.82136 304.242 6.64003C304.264 6.44803 304.274 6.27203 304.274 6.11203C304.274 5.42936 304.141 4.92803 303.874 4.60803C303.608 4.28803 303.256 4.12803 302.818 4.12803ZM324.465 11.44C324.294 11.6 324.086 11.7334 323.841 11.84C323.606 11.9467 323.318 12 322.977 12C322.54 12 322.172 11.904 321.873 11.712C321.585 11.52 321.393 11.248 321.297 10.896C320.945 11.28 320.556 11.5627 320.129 11.744C319.713 11.9147 319.286 12 318.849 12C318.113 12 317.564 11.7974 317.201 11.392C316.838 10.976 316.657 10.4587 316.657 9.84003C316.657 9.21069 316.886 8.70403 317.345 8.32003C317.804 7.92536 318.614 7.72803 319.777 7.72803H321.233V6.43203C321.233 5.54669 321.116 4.94403 320.881 4.62403C320.657 4.29336 320.342 4.12803 319.937 4.12803C319.67 4.12803 319.425 4.19736 319.201 4.33603C318.977 4.46403 318.817 4.70936 318.721 5.07203C318.636 5.42403 318.652 5.93603 318.769 6.60803L317.009 6.35203C316.924 5.86136 316.977 5.40803 317.169 4.99203C317.372 4.56536 317.708 4.22403 318.177 3.96803C318.646 3.70136 319.244 3.56803 319.969 3.56803C320.79 3.56803 321.425 3.70136 321.873 3.96803C322.321 4.23469 322.63 4.58669 322.801 5.02403C322.982 5.46136 323.073 5.93069 323.073 6.43203V10.128C323.073 10.672 323.121 11.0134 323.217 11.152C323.313 11.2907 323.42 11.36 323.537 11.36C323.729 11.36 323.942 11.248 324.177 11.024L324.465 11.44ZM319.553 11.152C319.83 11.152 320.102 11.0827 320.369 10.944C320.646 10.7947 320.934 10.5227 321.233 10.128V8.28803H320.033C319.51 8.28803 319.132 8.41069 318.897 8.65603C318.662 8.90136 318.545 9.28536 318.545 9.80803C318.545 10.2347 318.63 10.5654 318.801 10.8C318.972 11.0347 319.222 11.152 319.553 11.152ZM343.357 11.392V11.84H339.053V11.392L339.933 11.28C340.103 11.2587 340.205 11.216 340.237 11.152C340.269 11.0774 340.285 10.8587 340.285 10.496V6.46403C340.285 5.72803 340.173 5.19469 339.949 4.86403C339.735 4.52269 339.415 4.35203 338.989 4.35203C338.807 4.35203 338.594 4.40003 338.349 4.49603C338.114 4.58136 337.874 4.74136 337.629 4.97603C337.394 5.21069 337.186 5.55736 337.005 6.01603V10.496C337.005 10.8587 337.021 11.0774 337.053 11.152C337.085 11.216 337.186 11.2587 337.357 11.28L338.237 11.392V11.84H333.933V11.392L334.813 11.28C334.983 11.2587 335.085 11.216 335.117 11.152C335.149 11.0774 335.165 10.8587 335.165 10.496V5.07203C335.165 4.70936 335.149 4.49603 335.117 4.43203C335.085 4.35736 334.983 4.30936 334.813 4.28803L333.933 4.17603V3.72803H336.909V5.13603C337.218 4.59203 337.613 4.19736 338.093 3.95203C338.583 3.69603 339.074 3.56803 339.565 3.56803C340.354 3.56803 340.978 3.81869 341.437 4.32003C341.895 4.82136 342.125 5.53069 342.125 6.44803V10.496C342.125 10.8587 342.141 11.0774 342.173 11.152C342.205 11.216 342.306 11.2587 342.477 11.28L343.357 11.392ZM354.781 11.44C354.611 11.6 354.403 11.7334 354.157 11.84C353.923 11.9467 353.635 12 353.293 12C352.856 12 352.488 11.904 352.189 11.712C351.901 11.52 351.709 11.248 351.613 10.896C351.261 11.28 350.872 11.5627 350.445 11.744C350.029 11.9147 349.603 12 349.165 12C348.429 12 347.88 11.7974 347.517 11.392C347.155 10.976 346.973 10.4587 346.973 9.84003C346.973 9.21069 347.203 8.70403 347.661 8.32003C348.12 7.92536 348.931 7.72803 350.093 7.72803H351.549V6.43203C351.549 5.54669 351.432 4.94403 351.197 4.62403C350.973 4.29336 350.659 4.12803 350.253 4.12803C349.987 4.12803 349.741 4.19736 349.517 4.33603C349.293 4.46403 349.133 4.70936 349.037 5.07203C348.952 5.42403 348.968 5.93603 349.085 6.60803L347.325 6.35203C347.24 5.86136 347.293 5.40803 347.485 4.99203C347.688 4.56536 348.024 4.22403 348.493 3.96803C348.963 3.70136 349.56 3.56803 350.285 3.56803C351.107 3.56803 351.741 3.70136 352.189 3.96803C352.637 4.23469 352.947 4.58669 353.117 5.02403C353.299 5.46136 353.389 5.93069 353.389 6.43203V10.128C353.389 10.672 353.437 11.0134 353.533 11.152C353.629 11.2907 353.736 11.36 353.853 11.36C354.045 11.36 354.259 11.248 354.493 11.024L354.781 11.44ZM349.869 11.152C350.147 11.152 350.419 11.0827 350.685 10.944C350.963 10.7947 351.251 10.5227 351.549 10.128V8.28803H350.349C349.827 8.28803 349.448 8.41069 349.213 8.65603C348.979 8.90136 348.861 9.28536 348.861 9.80803C348.861 10.2347 348.947 10.5654 349.117 10.8C349.288 11.0347 349.539 11.152 349.869 11.152ZM357.839 4.17603V3.72803H360.815V5.05603C361.124 4.55469 361.46 4.18136 361.823 3.93603C362.185 3.69069 362.617 3.56803 363.119 3.56803C364.015 3.56803 364.724 3.92536 365.247 4.64003C365.78 5.34403 366.047 6.33603 366.047 7.61603V7.93603C366.047 9.17336 365.743 10.16 365.135 10.896C364.527 11.632 363.684 12 362.607 12C361.967 12 361.401 11.84 360.911 11.52V13.904C360.911 14.2667 360.927 14.48 360.959 14.544C360.991 14.6187 361.092 14.6667 361.263 14.688L362.463 14.8V15.248H357.839V14.8L358.719 14.688C358.889 14.6667 358.991 14.6187 359.023 14.544C359.055 14.48 359.071 14.2667 359.071 13.904V5.07203C359.071 4.70936 359.055 4.49603 359.023 4.43203C358.991 4.35736 358.889 4.30936 358.719 4.28803L357.839 4.17603ZM362.703 4.27203C362.436 4.27203 362.153 4.38403 361.855 4.60803C361.567 4.82136 361.252 5.26403 360.911 5.93603V10.768C361.316 11.1734 361.812 11.376 362.399 11.376C362.996 11.376 363.423 11.1147 363.679 10.592C363.945 10.0587 364.079 9.33336 364.079 8.41603V7.13603C364.079 6.14403 363.956 5.41869 363.711 4.96003C363.465 4.50136 363.129 4.27203 362.703 4.27203Z" fill="#110101"/>
</svg>
