<svg width="499" height="161" viewBox="0 0 499 161" fill="none" xmlns="http://www.w3.org/2000/svg">
<g filter="url(#filter0_g_22_19)">
<path d="M20.635 23.044H21.559V28.72H5.884V27.796L7.699 27.565C8.051 27.521 8.26 27.433 8.326 27.301C8.392 27.147 8.425 26.696 8.425 25.948V9.052C8.425 8.304 8.392 7.864 8.326 7.732C8.26 7.578 8.051 7.479 7.699 7.435L5.884 7.204V6.28H14.926V7.204L13.111 7.435C12.759 7.479 12.55 7.578 12.484 7.732C12.418 7.864 12.385 8.304 12.385 9.052V27.565H17.797C18.325 27.565 18.699 27.554 18.919 27.532C19.139 27.488 19.282 27.411 19.348 27.301C19.436 27.169 19.513 26.971 19.579 26.707L20.635 23.044ZM43.2805 24.793C42.8845 26.333 42.1475 27.433 41.0695 28.093C39.9915 28.731 38.7375 29.05 37.3075 29.05C34.6675 29.05 32.6875 28.291 31.3675 26.773C30.0475 25.233 29.3875 23.198 29.3875 20.668V20.008C29.3875 17.478 30.0035 15.454 31.2355 13.936C32.4895 12.418 34.2935 11.659 36.6475 11.659C37.9675 11.659 39.1335 11.923 40.1455 12.451C41.1795 12.957 41.9825 13.694 42.5545 14.662C43.1485 15.63 43.4455 16.807 43.4455 18.193C43.4455 18.523 43.4235 18.875 43.3795 19.249C43.3575 19.623 43.3025 19.997 43.2145 20.371H33.4465V21.328C33.4465 23.66 33.7765 25.343 34.4365 26.377C35.0965 27.389 36.1635 27.895 37.6375 27.895C38.5835 27.895 39.3865 27.62 40.0465 27.07C40.7065 26.498 41.0805 25.541 41.1685 24.199L43.2805 24.793ZM36.6475 12.814C35.5695 12.814 34.7665 13.309 34.2385 14.299C33.7105 15.289 33.4465 16.928 33.4465 19.216H39.4195C39.5075 18.776 39.5625 18.369 39.5845 17.995C39.6285 17.599 39.6505 17.236 39.6505 16.906C39.6505 15.498 39.3755 14.464 38.8255 13.804C38.2755 13.144 37.5495 12.814 36.6475 12.814ZM63.2223 25.288C62.9363 26.63 62.3863 27.598 61.5723 28.192C60.7803 28.764 59.8123 29.05 58.6683 29.05C57.5023 29.05 56.5453 28.797 55.7973 28.291C55.0493 27.763 54.4993 27.07 54.1473 26.212C53.7953 25.354 53.6193 24.441 53.6193 23.473V14.761C53.6193 14.013 53.5863 13.573 53.5203 13.441C53.4543 13.287 53.2453 13.188 52.8933 13.144L51.0783 12.913V11.989H53.6193V8.161L57.4143 7.402V11.989H62.6943V13.144H57.4143V24.133C57.4143 25.541 57.5903 26.52 57.9423 27.07C58.2943 27.598 58.7453 27.862 59.2953 27.862C59.8673 27.862 60.3073 27.642 60.6153 27.202C60.9453 26.762 61.1543 25.959 61.2423 24.793L63.2223 25.288ZM75.7138 8.557C75.7138 9.393 75.4278 10.405 74.8558 11.593C74.3058 12.759 73.4698 13.991 72.3478 15.289L71.5888 14.629C72.3368 13.727 72.8538 12.924 73.1398 12.22C73.4478 11.516 73.6128 10.867 73.6348 10.273H73.5358C72.8978 10.273 72.3808 10.075 71.9848 9.679C71.5888 9.283 71.3908 8.755 71.3908 8.095C71.3908 7.457 71.5888 6.94 71.9848 6.544C72.3808 6.148 72.8978 5.95 73.5358 5.95C74.1738 5.95 74.6908 6.181 75.0868 6.643C75.5048 7.083 75.7138 7.721 75.7138 8.557ZM90.6499 22.483L88.3729 21.955C86.8989 21.603 85.7989 20.976 85.0729 20.074C84.3689 19.15 84.0169 18.061 84.0169 16.807C84.0169 15.883 84.2149 15.036 84.6109 14.266C85.0289 13.474 85.6779 12.847 86.5579 12.385C87.4379 11.901 88.5819 11.659 89.9899 11.659C91.5079 11.659 92.7399 11.901 93.6859 12.385C94.6319 12.869 95.3029 13.507 95.6989 14.299C96.0949 15.091 96.2159 15.938 96.0619 16.84L92.4319 17.5C92.7399 16.004 92.6519 14.849 92.1679 14.035C91.7059 13.221 90.9249 12.814 89.8249 12.814C89.0549 12.814 88.4169 13.045 87.9109 13.507C87.4049 13.947 87.1519 14.585 87.1519 15.421C87.1519 16.191 87.3719 16.873 87.8119 17.467C88.2519 18.039 88.9009 18.424 89.7589 18.622L92.0359 19.15C93.6639 19.524 94.8409 20.118 95.5669 20.932C96.2929 21.724 96.6559 22.714 96.6559 23.902C96.6559 25.376 96.1059 26.608 95.0059 27.598C93.9279 28.566 92.3109 29.05 90.1549 29.05C89.4069 29.05 88.5819 28.94 87.6799 28.72C86.7999 28.478 85.9859 28.049 85.2379 27.433C84.5119 26.817 83.9839 25.937 83.6539 24.793L85.7989 23.935C85.9529 25.387 86.4479 26.41 87.2839 27.004C88.1419 27.598 89.0989 27.895 90.1549 27.895C91.1449 27.895 91.9479 27.675 92.5639 27.235C93.2019 26.773 93.5209 26.113 93.5209 25.255C93.5209 24.661 93.3119 24.122 92.8939 23.638C92.4979 23.132 91.7499 22.747 90.6499 22.483ZM125.105 22.483L122.828 21.955C121.354 21.603 120.254 20.976 119.528 20.074C118.824 19.15 118.472 18.061 118.472 16.807C118.472 15.883 118.67 15.036 119.066 14.266C119.484 13.474 120.133 12.847 121.013 12.385C121.893 11.901 123.037 11.659 124.445 11.659C125.963 11.659 127.195 11.901 128.141 12.385C129.087 12.869 129.758 13.507 130.154 14.299C130.55 15.091 130.671 15.938 130.517 16.84L126.887 17.5C127.195 16.004 127.107 14.849 126.623 14.035C126.161 13.221 125.38 12.814 124.28 12.814C123.51 12.814 122.872 13.045 122.366 13.507C121.86 13.947 121.607 14.585 121.607 15.421C121.607 16.191 121.827 16.873 122.267 17.467C122.707 18.039 123.356 18.424 124.214 18.622L126.491 19.15C128.119 19.524 129.296 20.118 130.022 20.932C130.748 21.724 131.111 22.714 131.111 23.902C131.111 25.376 130.561 26.608 129.461 27.598C128.383 28.566 126.766 29.05 124.61 29.05C123.862 29.05 123.037 28.94 122.135 28.72C121.255 28.478 120.441 28.049 119.693 27.433C118.967 26.817 118.439 25.937 118.109 24.793L120.254 23.935C120.408 25.387 120.903 26.41 121.739 27.004C122.597 27.598 123.554 27.895 124.61 27.895C125.6 27.895 126.403 27.675 127.019 27.235C127.657 26.773 127.976 26.113 127.976 25.255C127.976 24.661 127.767 24.122 127.349 23.638C126.953 23.132 126.205 22.747 125.105 22.483ZM153.93 24.793C153.534 26.333 152.797 27.433 151.719 28.093C150.641 28.731 149.387 29.05 147.957 29.05C145.317 29.05 143.337 28.291 142.017 26.773C140.697 25.233 140.037 23.198 140.037 20.668V20.008C140.037 17.478 140.653 15.454 141.885 13.936C143.139 12.418 144.943 11.659 147.297 11.659C148.617 11.659 149.783 11.923 150.795 12.451C151.829 12.957 152.632 13.694 153.204 14.662C153.798 15.63 154.095 16.807 154.095 18.193C154.095 18.523 154.073 18.875 154.029 19.249C154.007 19.623 153.952 19.997 153.864 20.371H144.096V21.328C144.096 23.66 144.426 25.343 145.086 26.377C145.746 27.389 146.813 27.895 148.287 27.895C149.233 27.895 150.036 27.62 150.696 27.07C151.356 26.498 151.73 25.541 151.818 24.199L153.93 24.793ZM147.297 12.814C146.219 12.814 145.416 13.309 144.888 14.299C144.36 15.289 144.096 16.928 144.096 19.216H150.069C150.157 18.776 150.212 18.369 150.234 17.995C150.278 17.599 150.3 17.236 150.3 16.906C150.3 15.498 150.025 14.464 149.475 13.804C148.925 13.144 148.199 12.814 147.297 12.814ZM177.007 24.793C176.611 26.333 175.874 27.433 174.796 28.093C173.718 28.731 172.464 29.05 171.034 29.05C168.394 29.05 166.414 28.291 165.094 26.773C163.774 25.233 163.114 23.198 163.114 20.668V20.008C163.114 17.478 163.73 15.454 164.962 13.936C166.216 12.418 168.02 11.659 170.374 11.659C171.694 11.659 172.86 11.923 173.872 12.451C174.906 12.957 175.709 13.694 176.281 14.662C176.875 15.63 177.172 16.807 177.172 18.193C177.172 18.523 177.15 18.875 177.106 19.249C177.084 19.623 177.029 19.997 176.941 20.371H167.173V21.328C167.173 23.66 167.503 25.343 168.163 26.377C168.823 27.389 169.89 27.895 171.364 27.895C172.31 27.895 173.113 27.62 173.773 27.07C174.433 26.498 174.807 25.541 174.895 24.199L177.007 24.793ZM170.374 12.814C169.296 12.814 168.493 13.309 167.965 14.299C167.437 15.289 167.173 16.928 167.173 19.216H173.146C173.234 18.776 173.289 18.369 173.311 17.995C173.355 17.599 173.377 17.236 173.377 16.906C173.377 15.498 173.102 14.464 172.552 13.804C172.002 13.144 171.276 12.814 170.374 12.814ZM217.396 27.796V28.72H208.519V27.796L210.334 27.565C210.686 27.521 210.895 27.433 210.961 27.301C211.027 27.147 211.06 26.696 211.06 25.948V17.632C211.06 16.114 210.829 15.014 210.367 14.332C209.927 13.628 209.267 13.276 208.387 13.276C208.013 13.276 207.573 13.375 207.067 13.573C206.583 13.749 206.088 14.079 205.582 14.563C205.098 15.047 204.669 15.762 204.295 16.708V25.948C204.295 26.696 204.328 27.147 204.394 27.301C204.46 27.433 204.669 27.521 205.021 27.565L206.836 27.796V28.72H197.959V27.796L199.774 27.565C200.126 27.521 200.335 27.433 200.401 27.301C200.467 27.147 200.5 26.696 200.5 25.948V7.072C200.5 6.324 200.467 5.884 200.401 5.752C200.335 5.598 200.126 5.499 199.774 5.455L197.959 5.224V4.3H204.295V14.563C204.933 13.551 205.725 12.814 206.671 12.352C207.639 11.89 208.607 11.659 209.575 11.659C211.203 11.659 212.49 12.176 213.436 13.21C214.382 14.244 214.855 15.707 214.855 17.599V25.948C214.855 26.696 214.888 27.147 214.954 27.301C215.02 27.433 215.229 27.521 215.581 27.565L217.396 27.796ZM240.206 20.008V20.668C240.206 23.198 239.546 25.233 238.226 26.773C236.928 28.291 235.069 29.05 232.649 29.05C230.229 29.05 228.359 28.291 227.039 26.773C225.741 25.233 225.092 23.198 225.092 20.668V20.008C225.092 17.478 225.741 15.454 227.039 13.936C228.359 12.418 230.229 11.659 232.649 11.659C235.069 11.659 236.928 12.418 238.226 13.936C239.546 15.454 240.206 17.478 240.206 20.008ZM236.147 19.348C236.147 16.994 235.85 15.322 235.256 14.332C234.662 13.32 233.793 12.814 232.649 12.814C231.527 12.814 230.658 13.32 230.042 14.332C229.448 15.322 229.151 16.994 229.151 19.348V21.328C229.151 23.66 229.448 25.343 230.042 26.377C230.658 27.389 231.527 27.895 232.649 27.895C233.793 27.895 234.662 27.389 235.256 26.377C235.85 25.343 236.147 23.66 236.147 21.328V19.348ZM270.274 14.761L266.677 28.72H263.674L259.714 15.454L255.721 28.72H252.982L249.418 14.761C249.286 14.255 249.176 13.903 249.088 13.705C249.022 13.485 248.934 13.342 248.824 13.276C248.714 13.21 248.549 13.166 248.329 13.144L246.514 12.913V11.989H255.292V12.913L253.477 13.144C253.125 13.188 252.927 13.287 252.883 13.441C252.839 13.573 252.916 14.013 253.114 14.761L255.688 24.694L259.483 11.989H262.387L266.314 25.255L268.987 14.761C269.185 14.013 269.262 13.573 269.218 13.441C269.174 13.287 268.976 13.188 268.624 13.144L266.809 12.913V11.989H273.178V12.913L271.363 13.144C271.143 13.166 270.978 13.21 270.868 13.276C270.758 13.342 270.659 13.485 270.571 13.705C270.505 13.903 270.406 14.255 270.274 14.761ZM301.607 30.37C301.101 31.756 300.54 32.867 299.924 33.703C299.33 34.539 298.593 35.144 297.713 35.518C296.833 35.892 295.733 36.079 294.413 36.079V32.449C295.755 32.449 296.833 32.35 297.647 32.152C298.483 31.976 299.121 31.679 299.561 31.261C300.023 30.865 300.364 30.348 300.584 29.71L300.914 28.72H299.198L294.512 14.761C294.358 14.255 294.226 13.903 294.116 13.705C294.028 13.485 293.918 13.342 293.786 13.276C293.676 13.21 293.5 13.166 293.258 13.144L291.443 12.913V11.989H300.353V12.913L298.538 13.144C298.274 13.166 298.109 13.254 298.043 13.408C297.999 13.54 298.098 13.991 298.34 14.761L301.937 25.651L305.666 14.629C305.908 13.925 306.007 13.518 305.963 13.408C305.941 13.276 305.765 13.188 305.435 13.144L303.62 12.913V11.989H309.923V12.913L308.108 13.144C307.778 13.188 307.558 13.276 307.448 13.408C307.338 13.54 307.162 13.947 306.92 14.629L301.607 30.37ZM331.031 20.008V20.668C331.031 23.198 330.371 25.233 329.051 26.773C327.753 28.291 325.894 29.05 323.474 29.05C321.054 29.05 319.184 28.291 317.864 26.773C316.566 25.233 315.917 23.198 315.917 20.668V20.008C315.917 17.478 316.566 15.454 317.864 13.936C319.184 12.418 321.054 11.659 323.474 11.659C325.894 11.659 327.753 12.418 329.051 13.936C330.371 15.454 331.031 17.478 331.031 20.008ZM326.972 19.348C326.972 16.994 326.675 15.322 326.081 14.332C325.487 13.32 324.618 12.814 323.474 12.814C322.352 12.814 321.483 13.32 320.867 14.332C320.273 15.322 319.976 16.994 319.976 19.348V21.328C319.976 23.66 320.273 25.343 320.867 26.377C321.483 27.389 322.352 27.895 323.474 27.895C324.618 27.895 325.487 27.389 326.081 26.377C326.675 25.343 326.972 23.66 326.972 21.328V19.348ZM357.811 27.796V28.72H351.673V25.816C351.057 26.938 350.265 27.763 349.297 28.291C348.329 28.797 347.35 29.05 346.36 29.05C344.798 29.05 343.555 28.533 342.631 27.499C341.707 26.443 341.245 24.98 341.245 23.11V14.761C341.245 14.013 341.212 13.573 341.146 13.441C341.08 13.287 340.871 13.188 340.519 13.144L338.704 12.913V11.989H345.04V23.077C345.04 24.595 345.249 25.706 345.667 26.41C346.107 27.092 346.734 27.433 347.548 27.433C347.9 27.433 348.307 27.345 348.769 27.169C349.253 26.971 349.737 26.63 350.221 26.146C350.705 25.64 351.123 24.925 351.475 24.001V14.761C351.475 14.013 351.442 13.562 351.376 13.408C351.31 13.254 351.101 13.166 350.749 13.144L348.274 12.913V11.989H355.27V25.948C355.27 26.696 355.303 27.147 355.369 27.301C355.435 27.433 355.644 27.521 355.996 27.565L357.811 27.796ZM369.849 8.557C369.849 9.393 369.563 10.405 368.991 11.593C368.441 12.759 367.605 13.991 366.483 15.289L365.724 14.629C366.472 13.727 366.989 12.924 367.275 12.22C367.583 11.516 367.748 10.867 367.77 10.273H367.671C367.033 10.273 366.516 10.075 366.12 9.679C365.724 9.283 365.526 8.755 365.526 8.095C365.526 7.457 365.724 6.94 366.12 6.544C366.516 6.148 367.033 5.95 367.671 5.95C368.309 5.95 368.826 6.181 369.222 6.643C369.64 7.083 369.849 7.721 369.849 8.557ZM392.781 14.761L388.095 28.72H385.092L380.406 14.761C380.252 14.255 380.12 13.903 380.01 13.705C379.922 13.485 379.812 13.342 379.68 13.276C379.57 13.21 379.394 13.166 379.152 13.144L377.337 12.913V11.989H386.247V12.913L384.432 13.144C384.102 13.188 383.926 13.276 383.904 13.408C383.882 13.54 383.992 13.991 384.234 14.761L387.864 25.717L391.527 14.761C391.769 13.991 391.879 13.54 391.857 13.408C391.857 13.276 391.681 13.188 391.329 13.144L389.514 12.913V11.989H395.817V12.913L394.002 13.144C393.782 13.166 393.606 13.21 393.474 13.276C393.364 13.342 393.265 13.485 393.177 13.705C393.089 13.903 392.957 14.255 392.781 14.761ZM415.737 24.793C415.341 26.333 414.604 27.433 413.526 28.093C412.448 28.731 411.194 29.05 409.764 29.05C407.124 29.05 405.144 28.291 403.824 26.773C402.504 25.233 401.844 23.198 401.844 20.668V20.008C401.844 17.478 402.46 15.454 403.692 13.936C404.946 12.418 406.75 11.659 409.104 11.659C410.424 11.659 411.59 11.923 412.602 12.451C413.636 12.957 414.439 13.694 415.011 14.662C415.605 15.63 415.902 16.807 415.902 18.193C415.902 18.523 415.88 18.875 415.836 19.249C415.814 19.623 415.759 19.997 415.671 20.371H405.903V21.328C405.903 23.66 406.233 25.343 406.893 26.377C407.553 27.389 408.62 27.895 410.094 27.895C411.04 27.895 411.843 27.62 412.503 27.07C413.163 26.498 413.537 25.541 413.625 24.199L415.737 24.793ZM409.104 12.814C408.026 12.814 407.223 13.309 406.695 14.299C406.167 15.289 405.903 16.928 405.903 19.216H411.876C411.964 18.776 412.019 18.369 412.041 17.995C412.085 17.599 412.107 17.236 412.107 16.906C412.107 15.498 411.832 14.464 411.282 13.804C410.732 13.144 410.006 12.814 409.104 12.814ZM4.729 45.224V44.3H11.065V54.431C11.659 53.507 12.319 52.814 13.045 52.352C13.793 51.89 14.651 51.659 15.619 51.659C17.467 51.659 18.93 52.396 20.008 53.87C21.108 55.322 21.658 57.368 21.658 60.008V60.668C21.658 63.22 21.031 65.255 19.777 66.773C18.523 68.291 16.785 69.05 14.563 69.05C12.869 69.05 11.483 68.544 10.405 67.532C10.009 67.686 9.624 67.884 9.25 68.126C8.898 68.346 8.535 68.599 8.161 68.885H7.27V47.072C7.27 46.324 7.237 45.884 7.171 45.752C7.105 45.598 6.896 45.499 6.544 45.455L4.729 45.224ZM14.761 53.111C14.211 53.111 13.628 53.342 13.012 53.804C12.418 54.244 11.769 55.157 11.065 56.543V66.509C11.901 67.345 12.924 67.763 14.134 67.763C15.366 67.763 16.246 67.224 16.774 66.146C17.324 65.046 17.599 63.55 17.599 61.658V59.018C17.599 56.972 17.346 55.476 16.84 54.53C16.334 53.584 15.641 53.111 14.761 53.111ZM44.7629 64.793C44.3669 66.333 43.6299 67.433 42.5519 68.093C41.4739 68.731 40.2199 69.05 38.7899 69.05C36.1499 69.05 34.1699 68.291 32.8499 66.773C31.5299 65.233 30.8699 63.198 30.8699 60.668V60.008C30.8699 57.478 31.4859 55.454 32.7179 53.936C33.9719 52.418 35.7759 51.659 38.1299 51.659C39.4499 51.659 40.6159 51.923 41.6279 52.451C42.6619 52.957 43.4649 53.694 44.0369 54.662C44.6309 55.63 44.9279 56.807 44.9279 58.193C44.9279 58.523 44.9059 58.875 44.8619 59.249C44.8399 59.623 44.7849 59.997 44.6969 60.371H34.9289V61.328C34.9289 63.66 35.2589 65.343 35.9189 66.377C36.5789 67.389 37.6459 67.895 39.1199 67.895C40.0659 67.895 40.8689 67.62 41.5289 67.07C42.1889 66.498 42.5629 65.541 42.6509 64.199L44.7629 64.793ZM38.1299 52.814C37.0519 52.814 36.2489 53.309 35.7209 54.299C35.1929 55.289 34.9289 56.928 34.9289 59.216H40.9019C40.9899 58.776 41.0449 58.369 41.0669 57.995C41.1109 57.599 41.1329 57.236 41.1329 56.906C41.1329 55.498 40.8579 54.464 40.3079 53.804C39.7579 53.144 39.0319 52.814 38.1299 52.814ZM67.8397 64.793C67.4437 66.333 66.7067 67.433 65.6287 68.093C64.5507 68.731 63.2967 69.05 61.8667 69.05C59.2267 69.05 57.2467 68.291 55.9267 66.773C54.6067 65.233 53.9467 63.198 53.9467 60.668V60.008C53.9467 57.478 54.5627 55.454 55.7947 53.936C57.0487 52.418 58.8527 51.659 61.2067 51.659C62.5267 51.659 63.6927 51.923 64.7047 52.451C65.7387 52.957 66.5417 53.694 67.1137 54.662C67.7077 55.63 68.0047 56.807 68.0047 58.193C68.0047 58.523 67.9827 58.875 67.9387 59.249C67.9167 59.623 67.8617 59.997 67.7737 60.371H58.0057V61.328C58.0057 63.66 58.3357 65.343 58.9957 66.377C59.6557 67.389 60.7227 67.895 62.1967 67.895C63.1427 67.895 63.9457 67.62 64.6057 67.07C65.2657 66.498 65.6397 65.541 65.7277 64.199L67.8397 64.793ZM61.2067 52.814C60.1287 52.814 59.3257 53.309 58.7977 54.299C58.2697 55.289 58.0057 56.928 58.0057 59.216H63.9787C64.0667 58.776 64.1217 58.369 64.1437 57.995C64.1877 57.599 64.2097 57.236 64.2097 56.906C64.2097 55.498 63.9347 54.464 63.3847 53.804C62.8347 53.144 62.1087 52.814 61.2067 52.814ZM95.4705 67.796V68.72H86.5935V67.796L88.4085 67.565C88.7605 67.521 88.9695 67.433 89.0355 67.301C89.1015 67.147 89.1345 66.696 89.1345 65.948V57.632C89.1345 56.114 88.9035 55.014 88.4415 54.332C88.0015 53.628 87.3415 53.276 86.4615 53.276C86.0875 53.276 85.6475 53.375 85.1415 53.573C84.6575 53.749 84.1625 54.079 83.6565 54.563C83.1725 55.047 82.7435 55.762 82.3695 56.708V65.948C82.3695 66.696 82.4025 67.147 82.4685 67.301C82.5345 67.433 82.7435 67.521 83.0955 67.565L84.9105 67.796V68.72H76.0335V67.796L77.8485 67.565C78.2005 67.521 78.4095 67.433 78.4755 67.301C78.5415 67.147 78.5745 66.696 78.5745 65.948V54.761C78.5745 54.013 78.5415 53.573 78.4755 53.441C78.4095 53.287 78.2005 53.188 77.8485 53.144L76.0335 52.913V51.989H82.1715V54.893C82.8095 53.771 83.6235 52.957 84.6135 52.451C85.6255 51.923 86.6375 51.659 87.6495 51.659C89.2775 51.659 90.5645 52.176 91.5105 53.21C92.4565 54.244 92.9295 55.707 92.9295 57.599V65.948C92.9295 66.696 92.9625 67.147 93.0285 67.301C93.0945 67.433 93.3035 67.521 93.6555 67.565L95.4705 67.796ZM134.4 67.796V68.72H125.523V67.796L127.338 67.565C127.69 67.521 127.899 67.433 127.965 67.301C128.031 67.147 128.064 66.696 128.064 65.948V57.632C128.064 56.114 127.833 55.014 127.371 54.332C126.931 53.628 126.271 53.276 125.391 53.276C125.017 53.276 124.577 53.375 124.071 53.573C123.587 53.749 123.092 54.079 122.586 54.563C122.102 55.047 121.673 55.762 121.299 56.708V65.948C121.299 66.696 121.332 67.147 121.398 67.301C121.464 67.433 121.673 67.521 122.025 67.565L123.84 67.796V68.72H114.963V67.796L116.778 67.565C117.13 67.521 117.339 67.433 117.405 67.301C117.471 67.147 117.504 66.696 117.504 65.948V47.072C117.504 46.324 117.471 45.884 117.405 45.752C117.339 45.598 117.13 45.499 116.778 45.455L114.963 45.224V44.3H121.299V54.563C121.937 53.551 122.729 52.814 123.675 52.352C124.643 51.89 125.611 51.659 126.579 51.659C128.207 51.659 129.494 52.176 130.44 53.21C131.386 54.244 131.859 55.707 131.859 57.599V65.948C131.859 66.696 131.892 67.147 131.958 67.301C132.024 67.433 132.233 67.521 132.585 67.565L134.4 67.796ZM157.969 67.895C157.617 68.225 157.188 68.5 156.682 68.72C156.198 68.94 155.604 69.05 154.9 69.05C153.998 69.05 153.239 68.852 152.623 68.456C152.029 68.06 151.633 67.499 151.435 66.773C150.709 67.565 149.906 68.148 149.026 68.522C148.168 68.874 147.288 69.05 146.386 69.05C144.868 69.05 143.735 68.632 142.987 67.796C142.239 66.938 141.865 65.871 141.865 64.595C141.865 63.297 142.338 62.252 143.284 61.46C144.23 60.646 145.902 60.239 148.3 60.239H151.303V57.566C151.303 55.74 151.061 54.497 150.577 53.837C150.115 53.155 149.466 52.814 148.63 52.814C148.08 52.814 147.574 52.957 147.112 53.243C146.65 53.507 146.32 54.013 146.122 54.761C145.946 55.487 145.979 56.543 146.221 57.929L142.591 57.401C142.415 56.389 142.525 55.454 142.921 54.596C143.339 53.716 144.032 53.012 145 52.484C145.968 51.934 147.2 51.659 148.696 51.659C150.39 51.659 151.699 51.934 152.623 52.484C153.547 53.034 154.185 53.76 154.537 54.662C154.911 55.564 155.098 56.532 155.098 57.566V65.189C155.098 66.311 155.197 67.015 155.395 67.301C155.593 67.587 155.813 67.73 156.055 67.73C156.451 67.73 156.891 67.499 157.375 67.037L157.969 67.895ZM147.838 67.301C148.41 67.301 148.971 67.158 149.521 66.872C150.093 66.564 150.687 66.003 151.303 65.189V61.394H148.828C147.75 61.394 146.969 61.647 146.485 62.153C146.001 62.659 145.759 63.451 145.759 64.529C145.759 65.409 145.935 66.091 146.287 66.575C146.639 67.059 147.156 67.301 147.838 67.301ZM183.943 67.796V68.72H175.066V67.796L176.881 67.565C177.233 67.521 177.442 67.433 177.508 67.301C177.574 67.147 177.607 66.696 177.607 65.948V57.632C177.607 56.114 177.376 55.014 176.914 54.332C176.474 53.628 175.814 53.276 174.934 53.276C174.56 53.276 174.12 53.375 173.614 53.573C173.13 53.749 172.635 54.079 172.129 54.563C171.645 55.047 171.216 55.762 170.842 56.708V65.948C170.842 66.696 170.875 67.147 170.941 67.301C171.007 67.433 171.216 67.521 171.568 67.565L173.383 67.796V68.72H164.506V67.796L166.321 67.565C166.673 67.521 166.882 67.433 166.948 67.301C167.014 67.147 167.047 66.696 167.047 65.948V54.761C167.047 54.013 167.014 53.573 166.948 53.441C166.882 53.287 166.673 53.188 166.321 53.144L164.506 52.913V51.989H170.644V54.893C171.282 53.771 172.096 52.957 173.086 52.451C174.098 51.923 175.11 51.659 176.122 51.659C177.75 51.659 179.037 52.176 179.983 53.21C180.929 54.244 181.402 55.707 181.402 57.599V65.948C181.402 66.696 181.435 67.147 181.501 67.301C181.567 67.433 181.776 67.521 182.128 67.565L183.943 67.796ZM208.694 67.796V68.72H202.556V65.981C201.94 66.993 201.247 67.763 200.477 68.291C199.729 68.797 198.838 69.05 197.804 69.05C195.956 69.05 194.482 68.324 193.382 66.872C192.304 65.398 191.765 63.341 191.765 60.701V60.041C191.765 57.489 192.392 55.454 193.646 53.936C194.922 52.418 196.66 51.659 198.86 51.659C200.18 51.659 201.346 51.989 202.358 52.649V47.072C202.358 46.324 202.325 45.884 202.259 45.752C202.193 45.598 201.984 45.499 201.632 45.455L199.817 45.224V44.3H206.153V65.948C206.153 66.696 206.186 67.147 206.252 67.301C206.318 67.433 206.527 67.521 206.879 67.565L208.694 67.796ZM195.824 61.691C195.824 63.737 196.077 65.233 196.583 66.179C197.089 67.125 197.782 67.598 198.662 67.598C199.212 67.598 199.784 67.378 200.378 66.938C200.994 66.476 201.654 65.552 202.358 64.166V54.2C201.522 53.364 200.499 52.946 199.289 52.946C198.079 52.946 197.199 53.496 196.649 54.596C196.099 55.674 195.824 57.159 195.824 59.051V61.691ZM215.359 45.224V44.3H221.695V65.948C221.695 66.696 221.728 67.147 221.794 67.301C221.86 67.433 222.069 67.521 222.421 67.565L224.236 67.796V68.72H215.359V67.796L217.174 67.565C217.526 67.521 217.735 67.433 217.801 67.301C217.867 67.147 217.9 66.696 217.9 65.948V47.072C217.9 46.324 217.867 45.884 217.801 45.752C217.735 45.598 217.526 45.499 217.174 45.455L215.359 45.224ZM235.548 49.151C234.866 49.151 234.316 48.942 233.898 48.524C233.48 48.084 233.271 47.523 233.271 46.841C233.271 46.159 233.48 45.609 233.898 45.191C234.316 44.773 234.866 44.564 235.548 44.564C236.208 44.564 236.758 44.773 237.198 45.191C237.638 45.609 237.858 46.159 237.858 46.841C237.858 47.523 237.638 48.084 237.198 48.524C236.758 48.942 236.208 49.151 235.548 49.151ZM231.126 52.913V51.989H237.462V65.948C237.462 66.696 237.495 67.147 237.561 67.301C237.627 67.433 237.836 67.521 238.188 67.565L240.003 67.796V68.72H231.126V67.796L232.941 67.565C233.293 67.521 233.502 67.433 233.568 67.301C233.634 67.147 233.667 66.696 233.667 65.948V54.761C233.667 54.013 233.634 53.573 233.568 53.441C233.502 53.287 233.293 53.188 232.941 53.144L231.126 52.913ZM266.324 67.796V68.72H257.447V67.796L259.262 67.565C259.614 67.521 259.823 67.433 259.889 67.301C259.955 67.147 259.988 66.696 259.988 65.948V57.632C259.988 56.114 259.757 55.014 259.295 54.332C258.855 53.628 258.195 53.276 257.315 53.276C256.941 53.276 256.501 53.375 255.995 53.573C255.511 53.749 255.016 54.079 254.51 54.563C254.026 55.047 253.597 55.762 253.223 56.708V65.948C253.223 66.696 253.256 67.147 253.322 67.301C253.388 67.433 253.597 67.521 253.949 67.565L255.764 67.796V68.72H246.887V67.796L248.702 67.565C249.054 67.521 249.263 67.433 249.329 67.301C249.395 67.147 249.428 66.696 249.428 65.948V54.761C249.428 54.013 249.395 53.573 249.329 53.441C249.263 53.287 249.054 53.188 248.702 53.144L246.887 52.913V51.989H253.025V54.893C253.663 53.771 254.477 52.957 255.467 52.451C256.479 51.923 257.491 51.659 258.503 51.659C260.131 51.659 261.418 52.176 262.364 53.21C263.31 54.244 263.783 55.707 263.783 57.599V65.948C263.783 66.696 263.816 67.147 263.882 67.301C263.948 67.433 264.157 67.521 264.509 67.565L266.324 67.796ZM289.162 70.436C289.162 72.24 288.48 73.626 287.116 74.594C285.774 75.584 283.926 76.079 281.572 76.079C278.976 76.079 277.04 75.65 275.764 74.792C274.488 73.956 273.795 72.911 273.685 71.657L277.216 71.096C277.128 72.262 277.403 73.186 278.041 73.868C278.701 74.572 279.878 74.924 281.572 74.924C283.156 74.924 284.432 74.627 285.4 74.033C286.39 73.439 286.885 72.581 286.885 71.459C286.885 70.667 286.588 70.062 285.994 69.644C285.422 69.248 284.465 69.05 283.123 69.05H279.361C278.195 69.05 277.271 68.885 276.589 68.555C275.929 68.225 275.467 67.818 275.203 67.334C274.939 66.828 274.807 66.311 274.807 65.783C274.807 65.145 274.983 64.518 275.335 63.902C275.687 63.264 276.292 62.637 277.15 62.021C276.204 61.603 275.434 60.987 274.84 60.173C274.246 59.359 273.949 58.347 273.949 57.137C273.949 55.905 274.235 54.893 274.807 54.101C275.379 53.287 276.149 52.682 277.117 52.286C278.085 51.868 279.163 51.659 280.351 51.659H280.912C282.188 51.659 283.288 51.868 284.212 52.286L288.964 49.943L289.36 53.177H285.598C286.126 53.639 286.533 54.2 286.819 54.86C287.127 55.498 287.281 56.257 287.281 57.137C287.281 58.325 286.995 59.326 286.423 60.14C285.851 60.954 285.081 61.57 284.113 61.988C283.167 62.406 282.1 62.615 280.912 62.615H280.351C279.691 62.615 279.042 62.549 278.404 62.417C277.854 62.791 277.469 63.154 277.249 63.506C277.051 63.836 276.952 64.155 276.952 64.463C276.952 64.815 277.106 65.079 277.414 65.255C277.744 65.431 278.272 65.519 278.998 65.519H283.288C285.18 65.519 286.632 65.948 287.644 66.806C288.656 67.642 289.162 68.852 289.162 70.436ZM280.912 61.46C281.616 61.46 282.221 61.152 282.727 60.536C283.233 59.92 283.486 58.787 283.486 57.137C283.486 55.487 283.233 54.354 282.727 53.738C282.221 53.122 281.616 52.814 280.912 52.814H280.351C279.647 52.814 279.031 53.122 278.503 53.738C277.997 54.354 277.744 55.487 277.744 57.137C277.744 58.787 277.997 59.92 278.503 60.536C279.031 61.152 279.647 61.46 280.351 61.46H280.912ZM308.99 45.224V44.3H315.326V65.948C315.326 66.696 315.359 67.147 315.425 67.301C315.491 67.433 315.7 67.521 316.052 67.565L317.867 67.796V68.72H308.99V67.796L310.805 67.565C311.157 67.521 311.366 67.433 311.432 67.301C311.498 67.147 311.531 66.696 311.531 65.948V47.072C311.531 46.324 311.498 45.884 311.432 45.752C311.366 45.598 311.157 45.499 310.805 45.455L308.99 45.224ZM329.179 49.151C328.497 49.151 327.947 48.942 327.529 48.524C327.111 48.084 326.902 47.523 326.902 46.841C326.902 46.159 327.111 45.609 327.529 45.191C327.947 44.773 328.497 44.564 329.179 44.564C329.839 44.564 330.389 44.773 330.829 45.191C331.269 45.609 331.489 46.159 331.489 46.841C331.489 47.523 331.269 48.084 330.829 48.524C330.389 48.942 329.839 49.151 329.179 49.151ZM324.757 52.913V51.989H331.093V65.948C331.093 66.696 331.126 67.147 331.192 67.301C331.258 67.433 331.467 67.521 331.819 67.565L333.634 67.796V68.72H324.757V67.796L326.572 67.565C326.924 67.521 327.133 67.433 327.199 67.301C327.265 67.147 327.298 66.696 327.298 65.948V54.761C327.298 54.013 327.265 53.573 327.199 53.441C327.133 53.287 326.924 53.188 326.572 53.144L324.757 52.913ZM350.055 67.796V68.72H340.518V67.796L342.333 67.565C342.685 67.521 342.894 67.433 342.96 67.301C343.026 67.147 343.059 66.696 343.059 65.948V54.761C343.059 54.013 343.026 53.573 342.96 53.441C342.894 53.287 342.685 53.188 342.333 53.144L340.518 52.913V51.989H343.059V50.207C343.059 49.151 343.235 48.15 343.587 47.204C343.961 46.236 344.577 45.455 345.435 44.861C346.315 44.267 347.492 43.97 348.966 43.97C350.308 43.97 351.408 44.201 352.266 44.663C353.146 45.125 353.773 45.741 354.147 46.511C354.543 47.281 354.664 48.117 354.51 49.019L350.88 49.547C351.1 47.897 351.034 46.753 350.682 46.115C350.352 45.455 349.78 45.125 348.966 45.125C348.526 45.125 348.141 45.246 347.811 45.488C347.503 45.73 347.261 46.17 347.085 46.808C346.931 47.424 346.854 48.337 346.854 49.547V51.989H351.804V53.144H346.854V65.948C346.854 66.696 346.887 67.147 346.953 67.301C347.019 67.433 347.228 67.521 347.58 67.565L350.055 67.796ZM372.677 64.793C372.281 66.333 371.544 67.433 370.466 68.093C369.388 68.731 368.134 69.05 366.704 69.05C364.064 69.05 362.084 68.291 360.764 66.773C359.444 65.233 358.784 63.198 358.784 60.668V60.008C358.784 57.478 359.4 55.454 360.632 53.936C361.886 52.418 363.69 51.659 366.044 51.659C367.364 51.659 368.53 51.923 369.542 52.451C370.576 52.957 371.379 53.694 371.951 54.662C372.545 55.63 372.842 56.807 372.842 58.193C372.842 58.523 372.82 58.875 372.776 59.249C372.754 59.623 372.699 59.997 372.611 60.371H362.843V61.328C362.843 63.66 363.173 65.343 363.833 66.377C364.493 67.389 365.56 67.895 367.034 67.895C367.98 67.895 368.783 67.62 369.443 67.07C370.103 66.498 370.477 65.541 370.565 64.199L372.677 64.793ZM366.044 52.814C364.966 52.814 364.163 53.309 363.635 54.299C363.107 55.289 362.843 56.928 362.843 59.216H368.816C368.904 58.776 368.959 58.369 368.981 57.995C369.025 57.599 369.047 57.236 369.047 56.906C369.047 55.498 368.772 54.464 368.222 53.804C367.672 53.144 366.946 52.814 366.044 52.814ZM401.385 62.483L399.108 61.955C397.634 61.603 396.534 60.976 395.808 60.074C395.104 59.15 394.752 58.061 394.752 56.807C394.752 55.883 394.95 55.036 395.346 54.266C395.764 53.474 396.413 52.847 397.293 52.385C398.173 51.901 399.317 51.659 400.725 51.659C402.243 51.659 403.475 51.901 404.421 52.385C405.367 52.869 406.038 53.507 406.434 54.299C406.83 55.091 406.951 55.938 406.797 56.84L403.167 57.5C403.475 56.004 403.387 54.849 402.903 54.035C402.441 53.221 401.66 52.814 400.56 52.814C399.79 52.814 399.152 53.045 398.646 53.507C398.14 53.947 397.887 54.585 397.887 55.421C397.887 56.191 398.107 56.873 398.547 57.467C398.987 58.039 399.636 58.424 400.494 58.622L402.771 59.15C404.399 59.524 405.576 60.118 406.302 60.932C407.028 61.724 407.391 62.714 407.391 63.902C407.391 65.376 406.841 66.608 405.741 67.598C404.663 68.566 403.046 69.05 400.89 69.05C400.142 69.05 399.317 68.94 398.415 68.72C397.535 68.478 396.721 68.049 395.973 67.433C395.247 66.817 394.719 65.937 394.389 64.793L396.534 63.935C396.688 65.387 397.183 66.41 398.019 67.004C398.877 67.598 399.834 67.895 400.89 67.895C401.88 67.895 402.683 67.675 403.299 67.235C403.937 66.773 404.256 66.113 404.256 65.255C404.256 64.661 404.047 64.122 403.629 63.638C403.233 63.132 402.485 62.747 401.385 62.483ZM419.748 49.151C419.066 49.151 418.516 48.942 418.098 48.524C417.68 48.084 417.471 47.523 417.471 46.841C417.471 46.159 417.68 45.609 418.098 45.191C418.516 44.773 419.066 44.564 419.748 44.564C420.408 44.564 420.958 44.773 421.398 45.191C421.838 45.609 422.058 46.159 422.058 46.841C422.058 47.523 421.838 48.084 421.398 48.524C420.958 48.942 420.408 49.151 419.748 49.151ZM415.326 52.913V51.989H421.662V65.948C421.662 66.696 421.695 67.147 421.761 67.301C421.827 67.433 422.036 67.521 422.388 67.565L424.203 67.796V68.72H415.326V67.796L417.141 67.565C417.493 67.521 417.702 67.433 417.768 67.301C417.834 67.147 417.867 66.696 417.867 65.948V54.761C417.867 54.013 417.834 53.573 417.768 53.441C417.702 53.287 417.493 53.188 417.141 53.144L415.326 52.913ZM450.525 67.796V68.72H441.648V67.796L443.463 67.565C443.815 67.521 444.024 67.433 444.09 67.301C444.156 67.147 444.189 66.696 444.189 65.948V57.632C444.189 56.114 443.958 55.014 443.496 54.332C443.056 53.628 442.396 53.276 441.516 53.276C441.142 53.276 440.702 53.375 440.196 53.573C439.712 53.749 439.217 54.079 438.711 54.563C438.227 55.047 437.798 55.762 437.424 56.708V65.948C437.424 66.696 437.457 67.147 437.523 67.301C437.589 67.433 437.798 67.521 438.15 67.565L439.965 67.796V68.72H431.088V67.796L432.903 67.565C433.255 67.521 433.464 67.433 433.53 67.301C433.596 67.147 433.629 66.696 433.629 65.948V54.761C433.629 54.013 433.596 53.573 433.53 53.441C433.464 53.287 433.255 53.188 432.903 53.144L431.088 52.913V51.989H437.226V54.893C437.864 53.771 438.678 52.957 439.668 52.451C440.68 51.923 441.692 51.659 442.704 51.659C444.332 51.659 445.619 52.176 446.565 53.21C447.511 54.244 447.984 55.707 447.984 57.599V65.948C447.984 66.696 448.017 67.147 448.083 67.301C448.149 67.433 448.358 67.521 448.71 67.565L450.525 67.796ZM465.442 52.814C464.386 52.814 463.594 53.32 463.066 54.332C462.56 55.322 462.307 56.994 462.307 59.348V61.328C462.307 63.66 462.604 65.343 463.198 66.377C463.792 67.389 464.76 67.895 466.102 67.895C467.092 67.895 467.895 67.62 468.511 67.07C469.149 66.498 469.512 65.541 469.6 64.199L471.712 64.793C471.316 66.333 470.59 67.433 469.534 68.093C468.5 68.731 467.279 69.05 465.871 69.05C463.341 69.05 461.438 68.291 460.162 66.773C458.886 65.233 458.248 63.198 458.248 60.668V60.008C458.248 57.478 458.864 55.454 460.096 53.936C461.328 52.418 463.11 51.659 465.442 51.659C466.982 51.659 468.236 51.967 469.204 52.583C470.194 53.177 470.887 53.969 471.283 54.959C471.701 55.927 471.811 56.972 471.613 58.094L467.983 58.622C468.225 56.774 468.126 55.344 467.686 54.332C467.246 53.32 466.498 52.814 465.442 52.814ZM494.348 64.793C493.952 66.333 493.215 67.433 492.137 68.093C491.059 68.731 489.805 69.05 488.375 69.05C485.735 69.05 483.755 68.291 482.435 66.773C481.115 65.233 480.455 63.198 480.455 60.668V60.008C480.455 57.478 481.071 55.454 482.303 53.936C483.557 52.418 485.361 51.659 487.715 51.659C489.035 51.659 490.201 51.923 491.213 52.451C492.247 52.957 493.05 53.694 493.622 54.662C494.216 55.63 494.513 56.807 494.513 58.193C494.513 58.523 494.491 58.875 494.447 59.249C494.425 59.623 494.37 59.997 494.282 60.371H484.514V61.328C484.514 63.66 484.844 65.343 485.504 66.377C486.164 67.389 487.231 67.895 488.705 67.895C489.651 67.895 490.454 67.62 491.114 67.07C491.774 66.498 492.148 65.541 492.236 64.199L494.348 64.793ZM487.715 52.814C486.637 52.814 485.834 53.309 485.306 54.299C484.778 55.289 484.514 56.928 484.514 59.216H490.487C490.575 58.776 490.63 58.369 490.652 57.995C490.696 57.599 490.718 57.236 490.718 56.906C490.718 55.498 490.443 54.464 489.893 53.804C489.343 53.144 488.617 52.814 487.715 52.814ZM14.464 110.37C13.958 111.756 13.397 112.867 12.781 113.703C12.187 114.539 11.45 115.144 10.57 115.518C9.69 115.892 8.59 116.079 7.27 116.079V112.449C8.612 112.449 9.69 112.35 10.504 112.152C11.34 111.976 11.978 111.679 12.418 111.261C12.88 110.865 13.221 110.348 13.441 109.71L13.771 108.72H12.055L7.369 94.761C7.215 94.255 7.083 93.903 6.973 93.705C6.885 93.485 6.775 93.342 6.643 93.276C6.533 93.21 6.357 93.166 6.115 93.144L4.3 92.913V91.989H13.21V92.913L11.395 93.144C11.131 93.166 10.966 93.254 10.9 93.408C10.856 93.54 10.955 93.991 11.197 94.761L14.794 105.651L18.523 94.629C18.765 93.925 18.864 93.518 18.82 93.408C18.798 93.276 18.622 93.188 18.292 93.144L16.477 92.913V91.989H22.78V92.913L20.965 93.144C20.635 93.188 20.415 93.276 20.305 93.408C20.195 93.54 20.019 93.947 19.777 94.629L14.464 110.37ZM43.8884 100.008V100.668C43.8884 103.198 43.2284 105.233 41.9084 106.773C40.6104 108.291 38.7514 109.05 36.3314 109.05C33.9114 109.05 32.0414 108.291 30.7214 106.773C29.4234 105.233 28.7744 103.198 28.7744 100.668V100.008C28.7744 97.478 29.4234 95.454 30.7214 93.936C32.0414 92.418 33.9114 91.659 36.3314 91.659C38.7514 91.659 40.6104 92.418 41.9084 93.936C43.2284 95.454 43.8884 97.478 43.8884 100.008ZM39.8294 99.348C39.8294 96.994 39.5324 95.322 38.9384 94.332C38.3444 93.32 37.4754 92.814 36.3314 92.814C35.2094 92.814 34.3404 93.32 33.7244 94.332C33.1304 95.322 32.8334 96.994 32.8334 99.348V101.328C32.8334 103.66 33.1304 105.343 33.7244 106.377C34.3404 107.389 35.2094 107.895 36.3314 107.895C37.4754 107.895 38.3444 107.389 38.9384 106.377C39.5324 105.343 39.8294 103.66 39.8294 101.328V99.348ZM70.6687 107.796V108.72H64.5307V105.816C63.9147 106.938 63.1227 107.763 62.1547 108.291C61.1867 108.797 60.2077 109.05 59.2177 109.05C57.6557 109.05 56.4127 108.533 55.4887 107.499C54.5647 106.443 54.1027 104.98 54.1027 103.11V94.761C54.1027 94.013 54.0697 93.573 54.0037 93.441C53.9377 93.287 53.7287 93.188 53.3767 93.144L51.5617 92.913V91.989H57.8977V103.077C57.8977 104.595 58.1067 105.706 58.5247 106.41C58.9647 107.092 59.5917 107.433 60.4057 107.433C60.7577 107.433 61.1647 107.345 61.6267 107.169C62.1107 106.971 62.5947 106.63 63.0787 106.146C63.5627 105.64 63.9807 104.925 64.3327 104.001V94.761C64.3327 94.013 64.2997 93.562 64.2337 93.408C64.1677 93.254 63.9587 93.166 63.6067 93.144L61.1317 92.913V91.989H68.1277V105.948C68.1277 106.696 68.1607 107.147 68.2267 107.301C68.2927 107.433 68.5017 107.521 68.8537 107.565L70.6687 107.796ZM109.677 107.796V108.72H100.8V107.796L102.615 107.565C102.967 107.521 103.176 107.433 103.242 107.301C103.308 107.147 103.341 106.696 103.341 105.948V97.632C103.341 96.114 103.132 95.014 102.714 94.332C102.296 93.628 101.669 93.276 100.833 93.276C100.481 93.276 100.063 93.375 99.5792 93.573C99.0952 93.749 98.6112 94.079 98.1272 94.563C97.6652 95.047 97.2582 95.762 96.9062 96.708V105.948C96.9062 106.696 96.9392 107.147 97.0052 107.301C97.0712 107.433 97.2802 107.521 97.6322 107.565L99.4472 107.796V108.72H90.5702V107.796L92.3852 107.565C92.7372 107.521 92.9462 107.433 93.0122 107.301C93.0782 107.147 93.1112 106.696 93.1112 105.948V94.761C93.1112 94.013 93.0782 93.573 93.0122 93.441C92.9462 93.287 92.7372 93.188 92.3852 93.144L90.5702 92.913V91.989H96.7082V94.893C97.3242 93.771 98.1162 92.957 99.0842 92.451C100.052 91.923 101.031 91.659 102.021 91.659C103.209 91.659 104.21 91.967 105.024 92.583C105.86 93.177 106.454 94.035 106.806 95.157C107.4 93.925 108.203 93.034 109.215 92.484C110.227 91.934 111.239 91.659 112.251 91.659C113.813 91.659 115.056 92.176 115.98 93.21C116.904 94.244 117.366 95.707 117.366 97.599V105.948C117.366 106.696 117.399 107.147 117.465 107.301C117.531 107.433 117.74 107.521 118.092 107.565L119.907 107.796V108.72H111.03V107.796L112.845 107.565C113.197 107.521 113.406 107.433 113.472 107.301C113.538 107.147 113.571 106.696 113.571 105.948V97.632C113.571 96.114 113.362 95.014 112.944 94.332C112.526 93.628 111.899 93.276 111.063 93.276C110.711 93.276 110.293 93.375 109.809 93.573C109.325 93.749 108.841 94.09 108.357 94.596C107.873 95.102 107.455 95.839 107.103 96.807C107.125 96.917 107.136 97.049 107.136 97.203C107.136 97.335 107.136 97.467 107.136 97.599V105.948C107.136 106.696 107.169 107.147 107.235 107.301C107.301 107.433 107.51 107.521 107.862 107.565L109.677 107.796ZM142.705 100.008V100.668C142.705 103.198 142.045 105.233 140.725 106.773C139.427 108.291 137.568 109.05 135.148 109.05C132.728 109.05 130.858 108.291 129.538 106.773C128.24 105.233 127.591 103.198 127.591 100.668V100.008C127.591 97.478 128.24 95.454 129.538 93.936C130.858 92.418 132.728 91.659 135.148 91.659C137.568 91.659 139.427 92.418 140.725 93.936C142.045 95.454 142.705 97.478 142.705 100.008ZM138.646 99.348C138.646 96.994 138.349 95.322 137.755 94.332C137.161 93.32 136.292 92.814 135.148 92.814C134.026 92.814 133.157 93.32 132.541 94.332C131.947 95.322 131.65 96.994 131.65 99.348V101.328C131.65 103.66 131.947 105.343 132.541 106.377C133.157 107.389 134.026 107.895 135.148 107.895C136.292 107.895 137.161 107.389 137.755 106.377C138.349 105.343 138.646 103.66 138.646 101.328V99.348ZM164.134 94.761L159.448 108.72H156.445L151.759 94.761C151.605 94.255 151.473 93.903 151.363 93.705C151.275 93.485 151.165 93.342 151.033 93.276C150.923 93.21 150.747 93.166 150.505 93.144L148.69 92.913V91.989H157.6V92.913L155.785 93.144C155.455 93.188 155.279 93.276 155.257 93.408C155.235 93.54 155.345 93.991 155.587 94.761L159.217 105.717L162.88 94.761C163.122 93.991 163.232 93.54 163.21 93.408C163.21 93.276 163.034 93.188 162.682 93.144L160.867 92.913V91.989H167.17V92.913L165.355 93.144C165.135 93.166 164.959 93.21 164.827 93.276C164.717 93.342 164.618 93.485 164.53 93.705C164.442 93.903 164.31 94.255 164.134 94.761ZM187.091 104.793C186.695 106.333 185.958 107.433 184.88 108.093C183.802 108.731 182.548 109.05 181.118 109.05C178.478 109.05 176.498 108.291 175.178 106.773C173.858 105.233 173.198 103.198 173.198 100.668V100.008C173.198 97.478 173.814 95.454 175.046 93.936C176.3 92.418 178.104 91.659 180.458 91.659C181.778 91.659 182.944 91.923 183.956 92.451C184.99 92.957 185.793 93.694 186.365 94.662C186.959 95.63 187.256 96.807 187.256 98.193C187.256 98.523 187.234 98.875 187.19 99.249C187.168 99.623 187.113 99.997 187.025 100.371H177.257V101.328C177.257 103.66 177.587 105.343 178.247 106.377C178.907 107.389 179.974 107.895 181.448 107.895C182.394 107.895 183.197 107.62 183.857 107.07C184.517 106.498 184.891 105.541 184.979 104.199L187.091 104.793ZM180.458 92.814C179.38 92.814 178.577 93.309 178.049 94.299C177.521 95.289 177.257 96.928 177.257 99.216H183.23C183.318 98.776 183.373 98.369 183.395 97.995C183.439 97.599 183.461 97.236 183.461 96.906C183.461 95.498 183.186 94.464 182.636 93.804C182.086 93.144 181.36 92.814 180.458 92.814ZM213.303 107.796V108.72H207.165V105.981C206.549 106.993 205.856 107.763 205.086 108.291C204.338 108.797 203.447 109.05 202.413 109.05C200.565 109.05 199.091 108.324 197.991 106.872C196.913 105.398 196.374 103.341 196.374 100.701V100.041C196.374 97.489 197.001 95.454 198.255 93.936C199.531 92.418 201.269 91.659 203.469 91.659C204.789 91.659 205.955 91.989 206.967 92.649V87.072C206.967 86.324 206.934 85.884 206.868 85.752C206.802 85.598 206.593 85.499 206.241 85.455L204.426 85.224V84.3H210.762V105.948C210.762 106.696 210.795 107.147 210.861 107.301C210.927 107.433 211.136 107.521 211.488 107.565L213.303 107.796ZM200.433 101.691C200.433 103.737 200.686 105.233 201.192 106.179C201.698 107.125 202.391 107.598 203.271 107.598C203.821 107.598 204.393 107.378 204.987 106.938C205.603 106.476 206.263 105.552 206.967 104.166V94.2C206.131 93.364 205.108 92.946 203.898 92.946C202.688 92.946 201.808 93.496 201.258 94.596C200.708 95.674 200.433 97.159 200.433 99.051V101.691ZM249.259 100.008V100.668C249.259 103.198 248.599 105.233 247.279 106.773C245.981 108.291 244.122 109.05 241.702 109.05C239.282 109.05 237.412 108.291 236.092 106.773C234.794 105.233 234.145 103.198 234.145 100.668V100.008C234.145 97.478 234.794 95.454 236.092 93.936C237.412 92.418 239.282 91.659 241.702 91.659C244.122 91.659 245.981 92.418 247.279 93.936C248.599 95.454 249.259 97.478 249.259 100.008ZM245.2 99.348C245.2 96.994 244.903 95.322 244.309 94.332C243.715 93.32 242.846 92.814 241.702 92.814C240.58 92.814 239.711 93.32 239.095 94.332C238.501 95.322 238.204 96.994 238.204 99.348V101.328C238.204 103.66 238.501 105.343 239.095 106.377C239.711 107.389 240.58 107.895 241.702 107.895C242.846 107.895 243.715 107.389 244.309 106.377C244.903 105.343 245.2 103.66 245.2 101.328V99.348ZM276.04 107.796V108.72H269.902V105.816C269.286 106.938 268.494 107.763 267.526 108.291C266.558 108.797 265.579 109.05 264.589 109.05C263.027 109.05 261.784 108.533 260.86 107.499C259.936 106.443 259.474 104.98 259.474 103.11V94.761C259.474 94.013 259.441 93.573 259.375 93.441C259.309 93.287 259.1 93.188 258.748 93.144L256.933 92.913V91.989H263.269V103.077C263.269 104.595 263.478 105.706 263.896 106.41C264.336 107.092 264.963 107.433 265.777 107.433C266.129 107.433 266.536 107.345 266.998 107.169C267.482 106.971 267.966 106.63 268.45 106.146C268.934 105.64 269.352 104.925 269.704 104.001V94.761C269.704 94.013 269.671 93.562 269.605 93.408C269.539 93.254 269.33 93.166 268.978 93.144L266.503 92.913V91.989H273.499V105.948C273.499 106.696 273.532 107.147 273.598 107.301C273.664 107.433 273.873 107.521 274.225 107.565L276.04 107.796ZM294.699 105.288C294.413 106.63 293.863 107.598 293.049 108.192C292.257 108.764 291.289 109.05 290.145 109.05C288.979 109.05 288.022 108.797 287.274 108.291C286.526 107.763 285.976 107.07 285.624 106.212C285.272 105.354 285.096 104.441 285.096 103.473V94.761C285.096 94.013 285.063 93.573 284.997 93.441C284.931 93.287 284.722 93.188 284.37 93.144L282.555 92.913V91.989H285.096V88.161L288.891 87.402V91.989H294.171V93.144H288.891V104.133C288.891 105.541 289.067 106.52 289.419 107.07C289.771 107.598 290.222 107.862 290.772 107.862C291.344 107.862 291.784 107.642 292.092 107.202C292.422 106.762 292.631 105.959 292.719 104.793L294.699 105.288ZM330.642 100.008V100.668C330.642 103.198 329.982 105.233 328.662 106.773C327.364 108.291 325.505 109.05 323.085 109.05C320.665 109.05 318.795 108.291 317.475 106.773C316.177 105.233 315.528 103.198 315.528 100.668V100.008C315.528 97.478 316.177 95.454 317.475 93.936C318.795 92.418 320.665 91.659 323.085 91.659C325.505 91.659 327.364 92.418 328.662 93.936C329.982 95.454 330.642 97.478 330.642 100.008ZM326.583 99.348C326.583 96.994 326.286 95.322 325.692 94.332C325.098 93.32 324.229 92.814 323.085 92.814C321.963 92.814 321.094 93.32 320.478 94.332C319.884 95.322 319.587 96.994 319.587 99.348V101.328C319.587 103.66 319.884 105.343 320.478 106.377C321.094 107.389 321.963 107.895 323.085 107.895C324.229 107.895 325.098 107.389 325.692 106.377C326.286 105.343 326.583 103.66 326.583 101.328V99.348ZM348.248 107.796V108.72H338.711V107.796L340.526 107.565C340.878 107.521 341.087 107.433 341.153 107.301C341.219 107.147 341.252 106.696 341.252 105.948V94.761C341.252 94.013 341.219 93.573 341.153 93.441C341.087 93.287 340.878 93.188 340.526 93.144L338.711 92.913V91.989H341.252V90.207C341.252 89.151 341.428 88.15 341.78 87.204C342.154 86.236 342.77 85.455 343.628 84.861C344.508 84.267 345.685 83.97 347.159 83.97C348.501 83.97 349.601 84.201 350.459 84.663C351.339 85.125 351.966 85.741 352.34 86.511C352.736 87.281 352.857 88.117 352.703 89.019L349.073 89.547C349.293 87.897 349.227 86.753 348.875 86.115C348.545 85.455 347.973 85.125 347.159 85.125C346.719 85.125 346.334 85.246 346.004 85.488C345.696 85.73 345.454 86.17 345.278 86.808C345.124 87.424 345.047 88.337 345.047 89.547V91.989H349.997V93.144H345.047V105.948C345.047 106.696 345.08 107.147 345.146 107.301C345.212 107.433 345.421 107.521 345.773 107.565L348.248 107.796ZM378.539 110.37C378.033 111.756 377.472 112.867 376.856 113.703C376.262 114.539 375.525 115.144 374.645 115.518C373.765 115.892 372.665 116.079 371.345 116.079V112.449C372.687 112.449 373.765 112.35 374.579 112.152C375.415 111.976 376.053 111.679 376.493 111.261C376.955 110.865 377.296 110.348 377.516 109.71L377.846 108.72H376.13L371.444 94.761C371.29 94.255 371.158 93.903 371.048 93.705C370.96 93.485 370.85 93.342 370.718 93.276C370.608 93.21 370.432 93.166 370.19 93.144L368.375 92.913V91.989H377.285V92.913L375.47 93.144C375.206 93.166 375.041 93.254 374.975 93.408C374.931 93.54 375.03 93.991 375.272 94.761L378.869 105.651L382.598 94.629C382.84 93.925 382.939 93.518 382.895 93.408C382.873 93.276 382.697 93.188 382.367 93.144L380.552 92.913V91.989H386.855V92.913L385.04 93.144C384.71 93.188 384.49 93.276 384.38 93.408C384.27 93.54 384.094 93.947 383.852 94.629L378.539 110.37ZM407.963 100.008V100.668C407.963 103.198 407.303 105.233 405.983 106.773C404.685 108.291 402.826 109.05 400.406 109.05C397.986 109.05 396.116 108.291 394.796 106.773C393.498 105.233 392.849 103.198 392.849 100.668V100.008C392.849 97.478 393.498 95.454 394.796 93.936C396.116 92.418 397.986 91.659 400.406 91.659C402.826 91.659 404.685 92.418 405.983 93.936C407.303 95.454 407.963 97.478 407.963 100.008ZM403.904 99.348C403.904 96.994 403.607 95.322 403.013 94.332C402.419 93.32 401.55 92.814 400.406 92.814C399.284 92.814 398.415 93.32 397.799 94.332C397.205 95.322 396.908 96.994 396.908 99.348V101.328C396.908 103.66 397.205 105.343 397.799 106.377C398.415 107.389 399.284 107.895 400.406 107.895C401.55 107.895 402.419 107.389 403.013 106.377C403.607 105.343 403.904 103.66 403.904 101.328V99.348ZM434.744 107.796V108.72H428.606V105.816C427.99 106.938 427.198 107.763 426.23 108.291C425.262 108.797 424.283 109.05 423.293 109.05C421.731 109.05 420.488 108.533 419.564 107.499C418.64 106.443 418.178 104.98 418.178 103.11V94.761C418.178 94.013 418.145 93.573 418.079 93.441C418.013 93.287 417.804 93.188 417.452 93.144L415.637 92.913V91.989H421.973V103.077C421.973 104.595 422.182 105.706 422.6 106.41C423.04 107.092 423.667 107.433 424.481 107.433C424.833 107.433 425.24 107.345 425.702 107.169C426.186 106.971 426.67 106.63 427.154 106.146C427.638 105.64 428.056 104.925 428.408 104.001V94.761C428.408 94.013 428.375 93.562 428.309 93.408C428.243 93.254 428.034 93.166 427.682 93.144L425.207 92.913V91.989H432.203V105.948C432.203 106.696 432.236 107.147 432.302 107.301C432.368 107.433 432.577 107.521 432.929 107.565L434.744 107.796ZM441.655 92.913V91.989H447.793V94.695C449.135 92.671 450.73 91.659 452.578 91.659C453.26 91.659 453.92 91.879 454.558 92.319C455.196 92.737 455.724 93.529 456.142 94.695L453.205 96.279C452.897 95.377 452.534 94.772 452.116 94.464C451.72 94.134 451.291 93.969 450.829 93.969C450.345 93.969 449.872 94.123 449.41 94.431C448.948 94.739 448.475 95.311 447.991 96.147V105.948C447.991 106.696 448.024 107.147 448.09 107.301C448.156 107.433 448.365 107.521 448.717 107.565L451.192 107.796V108.72H441.655V107.796L443.47 107.565C443.822 107.521 444.031 107.433 444.097 107.301C444.163 107.147 444.196 106.696 444.196 105.948V94.761C444.196 94.013 444.163 93.573 444.097 93.441C444.031 93.287 443.822 93.188 443.47 93.144L441.655 92.913ZM4.993 132.913V131.989H11.131V134.728C11.769 133.694 12.462 132.924 13.21 132.418C13.958 131.912 14.849 131.659 15.883 131.659C17.731 131.659 19.194 132.396 20.272 133.87C21.372 135.322 21.922 137.368 21.922 140.008V140.668C21.922 143.22 21.295 145.255 20.041 146.773C18.787 148.291 17.049 149.05 14.827 149.05C13.507 149.05 12.341 148.72 11.329 148.06V152.977C11.329 153.725 11.362 154.165 11.428 154.297C11.494 154.451 11.703 154.55 12.055 154.594L14.53 154.825V155.749H4.993V154.825L6.808 154.594C7.16 154.55 7.369 154.451 7.435 154.297C7.501 154.165 7.534 153.725 7.534 152.977V134.761C7.534 134.013 7.501 133.573 7.435 133.441C7.369 133.287 7.16 133.188 6.808 133.144L4.993 132.913ZM15.025 133.111C14.475 133.111 13.892 133.342 13.276 133.804C12.682 134.244 12.033 135.157 11.329 136.543V146.509C12.165 147.345 13.188 147.763 14.398 147.763C15.63 147.763 16.51 147.224 17.038 146.146C17.588 145.046 17.863 143.55 17.863 141.658V139.018C17.863 136.972 17.61 135.476 17.104 134.53C16.598 133.584 15.905 133.111 15.025 133.111ZM46.9677 147.895C46.6157 148.225 46.1867 148.5 45.6807 148.72C45.1967 148.94 44.6027 149.05 43.8987 149.05C42.9967 149.05 42.2377 148.852 41.6217 148.456C41.0277 148.06 40.6317 147.499 40.4337 146.773C39.7077 147.565 38.9047 148.148 38.0247 148.522C37.1667 148.874 36.2867 149.05 35.3847 149.05C33.8667 149.05 32.7337 148.632 31.9857 147.796C31.2377 146.938 30.8637 145.871 30.8637 144.595C30.8637 143.297 31.3367 142.252 32.2827 141.46C33.2287 140.646 34.9007 140.239 37.2987 140.239H40.3017V137.566C40.3017 135.74 40.0597 134.497 39.5757 133.837C39.1137 133.155 38.4647 132.814 37.6287 132.814C37.0787 132.814 36.5727 132.957 36.1107 133.243C35.6487 133.507 35.3187 134.013 35.1207 134.761C34.9447 135.487 34.9777 136.543 35.2197 137.929L31.5897 137.401C31.4137 136.389 31.5237 135.454 31.9197 134.596C32.3377 133.716 33.0307 133.012 33.9987 132.484C34.9667 131.934 36.1987 131.659 37.6947 131.659C39.3887 131.659 40.6977 131.934 41.6217 132.484C42.5457 133.034 43.1837 133.76 43.5357 134.662C43.9097 135.564 44.0967 136.532 44.0967 137.566V145.189C44.0967 146.311 44.1957 147.015 44.3937 147.301C44.5917 147.587 44.8117 147.73 45.0537 147.73C45.4497 147.73 45.8897 147.499 46.3737 147.037L46.9677 147.895ZM36.8367 147.301C37.4087 147.301 37.9697 147.158 38.5197 146.872C39.0917 146.564 39.6857 146.003 40.3017 145.189V141.394H37.8267C36.7487 141.394 35.9677 141.647 35.4837 142.153C34.9997 142.659 34.7577 143.451 34.7577 144.529C34.7577 145.409 34.9337 146.091 35.2857 146.575C35.6377 147.059 36.1547 147.301 36.8367 147.301ZM53.5045 132.913V131.989H59.6425V134.695C60.9845 132.671 62.5795 131.659 64.4275 131.659C65.1095 131.659 65.7695 131.879 66.4075 132.319C67.0455 132.737 67.5735 133.529 67.9915 134.695L65.0545 136.279C64.7465 135.377 64.3835 134.772 63.9655 134.464C63.5695 134.134 63.1405 133.969 62.6785 133.969C62.1945 133.969 61.7215 134.123 61.2595 134.431C60.7975 134.739 60.3245 135.311 59.8405 136.147V145.948C59.8405 146.696 59.8735 147.147 59.9395 147.301C60.0055 147.433 60.2145 147.521 60.5665 147.565L63.0415 147.796V148.72H53.5045V147.796L55.3195 147.565C55.6715 147.521 55.8805 147.433 55.9465 147.301C56.0125 147.147 56.0455 146.696 56.0455 145.948V134.761C56.0455 134.013 56.0125 133.573 55.9465 133.441C55.8805 133.287 55.6715 133.188 55.3195 133.144L53.5045 132.913ZM88.7573 144.793C88.3613 146.333 87.6243 147.433 86.5463 148.093C85.4683 148.731 84.2143 149.05 82.7843 149.05C80.1443 149.05 78.1643 148.291 76.8443 146.773C75.5243 145.233 74.8643 143.198 74.8643 140.668V140.008C74.8643 137.478 75.4803 135.454 76.7123 133.936C77.9663 132.418 79.7703 131.659 82.1243 131.659C83.4443 131.659 84.6103 131.923 85.6223 132.451C86.6563 132.957 87.4593 133.694 88.0313 134.662C88.6253 135.63 88.9223 136.807 88.9223 138.193C88.9223 138.523 88.9003 138.875 88.8563 139.249C88.8343 139.623 88.7793 139.997 88.6913 140.371H78.9233V141.328C78.9233 143.66 79.2533 145.343 79.9133 146.377C80.5733 147.389 81.6403 147.895 83.1143 147.895C84.0603 147.895 84.8633 147.62 85.5233 147.07C86.1833 146.498 86.5573 145.541 86.6453 144.199L88.7573 144.793ZM82.1243 132.814C81.0463 132.814 80.2433 133.309 79.7153 134.299C79.1873 135.289 78.9233 136.928 78.9233 139.216H84.8963C84.9843 138.776 85.0393 138.369 85.0613 137.995C85.1053 137.599 85.1273 137.236 85.1273 136.906C85.1273 135.498 84.8523 134.464 84.3023 133.804C83.7523 133.144 83.0263 132.814 82.1243 132.814ZM116.388 147.796V148.72H107.511V147.796L109.326 147.565C109.678 147.521 109.887 147.433 109.953 147.301C110.019 147.147 110.052 146.696 110.052 145.948V137.632C110.052 136.114 109.821 135.014 109.359 134.332C108.919 133.628 108.259 133.276 107.379 133.276C107.005 133.276 106.565 133.375 106.059 133.573C105.575 133.749 105.08 134.079 104.574 134.563C104.09 135.047 103.661 135.762 103.287 136.708V145.948C103.287 146.696 103.32 147.147 103.386 147.301C103.452 147.433 103.661 147.521 104.013 147.565L105.828 147.796V148.72H96.9511V147.796L98.7661 147.565C99.1181 147.521 99.3271 147.433 99.3931 147.301C99.4591 147.147 99.4921 146.696 99.4921 145.948V134.761C99.4921 134.013 99.4591 133.573 99.3931 133.441C99.3271 133.287 99.1181 133.188 98.7661 133.144L96.9511 132.913V131.989H103.089V134.893C103.727 133.771 104.541 132.957 105.531 132.451C106.543 131.923 107.555 131.659 108.567 131.659C110.195 131.659 111.482 132.176 112.428 133.21C113.374 134.244 113.847 135.707 113.847 137.599V145.948C113.847 146.696 113.88 147.147 113.946 147.301C114.012 147.433 114.221 147.521 114.573 147.565L116.388 147.796ZM134.87 145.288C134.584 146.63 134.034 147.598 133.22 148.192C132.428 148.764 131.46 149.05 130.316 149.05C129.15 149.05 128.193 148.797 127.445 148.291C126.697 147.763 126.147 147.07 125.795 146.212C125.443 145.354 125.267 144.441 125.267 143.473V134.761C125.267 134.013 125.234 133.573 125.168 133.441C125.102 133.287 124.893 133.188 124.541 133.144L122.726 132.913V131.989H125.267V128.161L129.062 127.402V131.989H134.342V133.144H129.062V144.133C129.062 145.541 129.238 146.52 129.59 147.07C129.942 147.598 130.393 147.862 130.943 147.862C131.515 147.862 131.955 147.642 132.263 147.202C132.593 146.762 132.802 145.959 132.89 144.793L134.87 145.288ZM147.361 128.557C147.361 129.393 147.075 130.405 146.503 131.593C145.953 132.759 145.117 133.991 143.995 135.289L143.236 134.629C143.984 133.727 144.501 132.924 144.787 132.22C145.095 131.516 145.26 130.867 145.282 130.273H145.183C144.545 130.273 144.028 130.075 143.632 129.679C143.236 129.283 143.038 128.755 143.038 128.095C143.038 127.457 143.236 126.94 143.632 126.544C144.028 126.148 144.545 125.95 145.183 125.95C145.821 125.95 146.338 126.181 146.734 126.643C147.152 127.083 147.361 127.721 147.361 128.557ZM162.297 142.483L160.02 141.955C158.546 141.603 157.446 140.976 156.72 140.074C156.016 139.15 155.664 138.061 155.664 136.807C155.664 135.883 155.862 135.036 156.258 134.266C156.676 133.474 157.325 132.847 158.205 132.385C159.085 131.901 160.229 131.659 161.637 131.659C163.155 131.659 164.387 131.901 165.333 132.385C166.279 132.869 166.95 133.507 167.346 134.299C167.742 135.091 167.863 135.938 167.709 136.84L164.079 137.5C164.387 136.004 164.299 134.849 163.815 134.035C163.353 133.221 162.572 132.814 161.472 132.814C160.702 132.814 160.064 133.045 159.558 133.507C159.052 133.947 158.799 134.585 158.799 135.421C158.799 136.191 159.019 136.873 159.459 137.467C159.899 138.039 160.548 138.424 161.406 138.622L163.683 139.15C165.311 139.524 166.488 140.118 167.214 140.932C167.94 141.724 168.303 142.714 168.303 143.902C168.303 145.376 167.753 146.608 166.653 147.598C165.575 148.566 163.958 149.05 161.802 149.05C161.054 149.05 160.229 148.94 159.327 148.72C158.447 148.478 157.633 148.049 156.885 147.433C156.159 146.817 155.631 145.937 155.301 144.793L157.446 143.935C157.6 145.387 158.095 146.41 158.931 147.004C159.789 147.598 160.746 147.895 161.802 147.895C162.792 147.895 163.595 147.675 164.211 147.235C164.849 146.773 165.168 146.113 165.168 145.255C165.168 144.661 164.959 144.122 164.541 143.638C164.145 143.132 163.397 142.747 162.297 142.483ZM208.435 147.796V148.72H199.558V147.796L201.373 147.565C201.725 147.521 201.934 147.433 202 147.301C202.066 147.147 202.099 146.696 202.099 145.948V137.632C202.099 136.114 201.868 135.014 201.406 134.332C200.966 133.628 200.306 133.276 199.426 133.276C199.052 133.276 198.612 133.375 198.106 133.573C197.622 133.749 197.127 134.079 196.621 134.563C196.137 135.047 195.708 135.762 195.334 136.708V145.948C195.334 146.696 195.367 147.147 195.433 147.301C195.499 147.433 195.708 147.521 196.06 147.565L197.875 147.796V148.72H188.998V147.796L190.813 147.565C191.165 147.521 191.374 147.433 191.44 147.301C191.506 147.147 191.539 146.696 191.539 145.948V127.072C191.539 126.324 191.506 125.884 191.44 125.752C191.374 125.598 191.165 125.499 190.813 125.455L188.998 125.224V124.3H195.334V134.563C195.972 133.551 196.764 132.814 197.71 132.352C198.678 131.89 199.646 131.659 200.614 131.659C202.242 131.659 203.529 132.176 204.475 133.21C205.421 134.244 205.894 135.707 205.894 137.599V145.948C205.894 146.696 205.927 147.147 205.993 147.301C206.059 147.433 206.268 147.521 206.62 147.565L208.435 147.796ZM231.245 140.008V140.668C231.245 143.198 230.585 145.233 229.265 146.773C227.967 148.291 226.108 149.05 223.688 149.05C221.268 149.05 219.398 148.291 218.078 146.773C216.78 145.233 216.131 143.198 216.131 140.668V140.008C216.131 137.478 216.78 135.454 218.078 133.936C219.398 132.418 221.268 131.659 223.688 131.659C226.108 131.659 227.967 132.418 229.265 133.936C230.585 135.454 231.245 137.478 231.245 140.008ZM227.186 139.348C227.186 136.994 226.889 135.322 226.295 134.332C225.701 133.32 224.832 132.814 223.688 132.814C222.566 132.814 221.697 133.32 221.081 134.332C220.487 135.322 220.19 136.994 220.19 139.348V141.328C220.19 143.66 220.487 145.343 221.081 146.377C221.697 147.389 222.566 147.895 223.688 147.895C224.832 147.895 225.701 147.389 226.295 146.377C226.889 145.343 227.186 143.66 227.186 141.328V139.348ZM258.025 147.796V148.72H251.887V145.816C251.271 146.938 250.479 147.763 249.511 148.291C248.543 148.797 247.564 149.05 246.574 149.05C245.012 149.05 243.769 148.533 242.845 147.499C241.921 146.443 241.459 144.98 241.459 143.11V134.761C241.459 134.013 241.426 133.573 241.36 133.441C241.294 133.287 241.085 133.188 240.733 133.144L238.918 132.913V131.989H245.254V143.077C245.254 144.595 245.463 145.706 245.881 146.41C246.321 147.092 246.948 147.433 247.762 147.433C248.114 147.433 248.521 147.345 248.983 147.169C249.467 146.971 249.951 146.63 250.435 146.146C250.919 145.64 251.337 144.925 251.689 144.001V134.761C251.689 134.013 251.656 133.562 251.59 133.408C251.524 133.254 251.315 133.166 250.963 133.144L248.488 132.913V131.989H255.484V145.948C255.484 146.696 255.517 147.147 255.583 147.301C255.649 147.433 255.858 147.521 256.21 147.565L258.025 147.796ZM272.461 142.483L270.184 141.955C268.71 141.603 267.61 140.976 266.884 140.074C266.18 139.15 265.828 138.061 265.828 136.807C265.828 135.883 266.026 135.036 266.422 134.266C266.84 133.474 267.489 132.847 268.369 132.385C269.249 131.901 270.393 131.659 271.801 131.659C273.319 131.659 274.551 131.901 275.497 132.385C276.443 132.869 277.114 133.507 277.51 134.299C277.906 135.091 278.027 135.938 277.873 136.84L274.243 137.5C274.551 136.004 274.463 134.849 273.979 134.035C273.517 133.221 272.736 132.814 271.636 132.814C270.866 132.814 270.228 133.045 269.722 133.507C269.216 133.947 268.963 134.585 268.963 135.421C268.963 136.191 269.183 136.873 269.623 137.467C270.063 138.039 270.712 138.424 271.57 138.622L273.847 139.15C275.475 139.524 276.652 140.118 277.378 140.932C278.104 141.724 278.467 142.714 278.467 143.902C278.467 145.376 277.917 146.608 276.817 147.598C275.739 148.566 274.122 149.05 271.966 149.05C271.218 149.05 270.393 148.94 269.491 148.72C268.611 148.478 267.797 148.049 267.049 147.433C266.323 146.817 265.795 145.937 265.465 144.793L267.61 143.935C267.764 145.387 268.259 146.41 269.095 147.004C269.953 147.598 270.91 147.895 271.966 147.895C272.956 147.895 273.759 147.675 274.375 147.235C275.013 146.773 275.332 146.113 275.332 145.255C275.332 144.661 275.123 144.122 274.705 143.638C274.309 143.132 273.561 142.747 272.461 142.483ZM301.285 144.793C300.889 146.333 300.152 147.433 299.074 148.093C297.996 148.731 296.742 149.05 295.312 149.05C292.672 149.05 290.692 148.291 289.372 146.773C288.052 145.233 287.392 143.198 287.392 140.668V140.008C287.392 137.478 288.008 135.454 289.24 133.936C290.494 132.418 292.298 131.659 294.652 131.659C295.972 131.659 297.138 131.923 298.15 132.451C299.184 132.957 299.987 133.694 300.559 134.662C301.153 135.63 301.45 136.807 301.45 138.193C301.45 138.523 301.428 138.875 301.384 139.249C301.362 139.623 301.307 139.997 301.219 140.371H291.451V141.328C291.451 143.66 291.781 145.343 292.441 146.377C293.101 147.389 294.168 147.895 295.642 147.895C296.588 147.895 297.391 147.62 298.051 147.07C298.711 146.498 299.085 145.541 299.173 144.199L301.285 144.793ZM294.652 132.814C293.574 132.814 292.771 133.309 292.243 134.299C291.715 135.289 291.451 136.928 291.451 139.216H297.424C297.512 138.776 297.567 138.369 297.589 137.995C297.633 137.599 297.655 137.236 297.655 136.906C297.655 135.498 297.38 134.464 296.83 133.804C296.28 133.144 295.554 132.814 294.652 132.814Z" fill="#15076D"/>
</g>
<defs>
<filter id="filter0_g_22_19" x="2.86102e-06" y="-1.23978e-05" width="498.813" height="160.049" filterUnits="userSpaceOnUse" color-interpolation-filters="sRGB">
<feFlood flood-opacity="0" result="BackgroundImageFix"/>
<feBlend mode="normal" in="SourceGraphic" in2="BackgroundImageFix" result="shape"/>
<feTurbulence type="fractalNoise" baseFrequency="0.27777779102325439 0.27777779102325439" numOctaves="3" seed="7960" />
<feDisplacementMap in="shape" scale="8.6000003814697266" xChannelSelector="R" yChannelSelector="G" result="displacedImage" width="100%" height="100%" />
<feMerge result="effect1_texture_22_19">
<feMergeNode in="displacedImage"/>
</feMerge>
</filter>
</defs>
</svg>
