<svg width="52" height="14" viewBox="0 0 52 14" fill="none" xmlns="http://www.w3.org/2000/svg">
<path d="M8.44002 0.560006V5.96046e-06H12.32V0.560006L11.22 0.700005C11.0067 0.726672 10.88 0.786672 10.84 0.880005C10.8 0.960005 10.78 1.22667 10.78 1.68001V13.6H9.68001L2.34001 1.74001V11.92C2.34001 12.3733 2.36001 12.6467 2.40001 12.74C2.44001 12.82 2.56668 12.8733 2.78001 12.9L3.88002 13.04V13.6H1.46776e-05V13.04L1.10001 12.9C1.31335 12.8733 1.44001 12.82 1.48001 12.74C1.52001 12.6467 1.54001 12.3733 1.54001 11.92V1.68001C1.54001 1.22667 1.52001 0.960005 1.48001 0.880005C1.44001 0.786672 1.31335 0.726672 1.10001 0.700005L1.46776e-05 0.560006V5.96046e-06H4.02002L9.98002 9.58001V1.68001C9.98002 1.22667 9.96002 0.960005 9.92002 0.880005C9.88002 0.786672 9.75335 0.726672 9.54002 0.700005L8.44002 0.560006ZM25.4575 11.22C25.2175 12.1533 24.7708 12.82 24.1175 13.22C23.4642 13.6067 22.7042 13.8 21.8375 13.8C20.2375 13.8 19.0375 13.34 18.2375 12.42C17.4375 11.4867 17.0375 10.2533 17.0375 8.72001V8.32001C17.0375 6.78667 17.4108 5.56001 18.1575 4.64001C18.9175 3.72001 20.0108 3.26001 21.4375 3.26001C22.2375 3.26001 22.9442 3.42001 23.5575 3.74001C24.1842 4.04667 24.6708 4.49334 25.0175 5.08001C25.3775 5.66667 25.5575 6.38001 25.5575 7.22001C25.5575 7.42001 25.5442 7.63334 25.5175 7.86001C25.5042 8.08667 25.4708 8.31334 25.4175 8.54001H19.4975V9.12001C19.4975 10.5333 19.6975 11.5533 20.0975 12.18C20.4975 12.7933 21.1442 13.1 22.0375 13.1C22.6108 13.1 23.0975 12.9333 23.4975 12.6C23.8975 12.2533 24.1242 11.6733 24.1775 10.86L25.4575 11.22ZM21.4375 3.96001C20.7842 3.96001 20.2975 4.26001 19.9775 4.86001C19.6575 5.46001 19.4975 6.45334 19.4975 7.84001H23.1175C23.1708 7.57334 23.2042 7.32667 23.2175 7.10001C23.2442 6.86001 23.2575 6.64001 23.2575 6.44001C23.2575 5.58667 23.0908 4.96001 22.7575 4.56001C22.4242 4.16001 21.9842 3.96001 21.4375 3.96001ZM34.0635 13.04V13.6H30.0635V13.04L31.1635 12.9C31.2968 12.8733 31.3968 12.8467 31.4635 12.82C31.5435 12.78 31.6368 12.6933 31.7435 12.56C31.8501 12.4267 32.0035 12.2133 32.2035 11.92L34.3435 8.80001L32.2035 5.14001C32.0301 4.83334 31.8968 4.62001 31.8035 4.50001C31.7101 4.36667 31.6235 4.28001 31.5435 4.24001C31.4635 4.20001 31.3568 4.17334 31.2235 4.16001L30.1235 4.02001V3.46001H35.6635V4.02001L34.5635 4.16001C34.3501 4.18667 34.2501 4.24001 34.2635 4.32001C34.2768 4.40001 34.4168 4.67334 34.6835 5.14001L36.0235 7.42001L37.5635 5.14001C37.8701 4.68667 38.0235 4.42001 38.0235 4.34001C38.0368 4.24667 37.9368 4.18667 37.7235 4.16001L36.6235 4.02001V3.46001H40.6235V4.02001L39.5235 4.16001C39.3901 4.17334 39.2835 4.20001 39.2035 4.24001C39.1368 4.28001 39.0501 4.36667 38.9435 4.50001C38.8501 4.62001 38.6968 4.83334 38.4835 5.14001L36.4435 8.14001L38.6435 11.92C38.8301 12.2267 38.9635 12.4467 39.0435 12.58C39.1368 12.7 39.2235 12.78 39.3035 12.82C39.3835 12.8467 39.4901 12.8733 39.6235 12.9L40.7235 13.04V13.6H35.1835V13.04L36.2835 12.9C36.4968 12.8733 36.5968 12.82 36.5835 12.74C36.5701 12.6467 36.4301 12.3733 36.1635 11.92L34.7635 9.50001L33.1235 11.92C32.8168 12.3733 32.6568 12.6467 32.6435 12.74C32.6435 12.82 32.7501 12.8733 32.9635 12.9L34.0635 13.04ZM51.8028 11.52C51.6295 12.3333 51.2962 12.92 50.8028 13.28C50.3228 13.6267 49.7362 13.8 49.0428 13.8C48.3362 13.8 47.7562 13.6467 47.3028 13.34C46.8495 13.02 46.5162 12.6 46.3028 12.08C46.0895 11.56 45.9828 11.0067 45.9828 10.42V5.14001C45.9828 4.68667 45.9628 4.42001 45.9228 4.34001C45.8828 4.24667 45.7562 4.18667 45.5428 4.16001L44.4428 4.02001V3.46001H45.9828V1.14001L48.2828 0.680006V3.46001H51.4828V4.16001H48.2828V10.82C48.2828 11.6733 48.3895 12.2667 48.6028 12.6C48.8162 12.92 49.0895 13.08 49.4228 13.08C49.7695 13.08 50.0362 12.9467 50.2228 12.68C50.4228 12.4133 50.5495 11.9267 50.6028 11.22L51.8028 11.52Z" fill="black"/>
</svg>
