<svg width="60" height="19" viewBox="0 0 60 19" fill="none" xmlns="http://www.w3.org/2000/svg">
<g filter="url(#filter0_g_6_17)">
<path d="M6.21998 14.2C7.55331 14.2 8.21998 13.7467 8.21998 12.84C8.21998 12.4533 8.09998 12.1467 7.85998 11.92C7.61998 11.6933 7.17998 11.5 6.53998 11.34L5.43998 11.06C4.62664 10.86 4.01998 10.5133 3.61998 10.02C3.21998 9.51332 3.01998 8.91332 3.01998 8.21999C3.01998 7.71332 3.13331 7.24666 3.35998 6.81999C3.58664 6.37999 3.94664 6.02666 4.43998 5.75999C4.93331 5.49332 5.57331 5.35999 6.35998 5.35999C6.86664 5.35999 7.37998 5.41999 7.89998 5.53999C8.43331 5.64666 8.97331 5.83332 9.51998 6.09999L8.99998 7.47999C8.02664 7.03999 7.14664 6.81999 6.35998 6.81999C5.19998 6.81999 4.61998 7.25332 4.61998 8.11999C4.61998 8.45332 4.72664 8.73999 4.93998 8.97999C5.15331 9.21999 5.55331 9.41332 6.13998 9.55999L7.23998 9.83999C8.11998 10.0533 8.76664 10.4 9.17998 10.88C9.59331 11.36 9.79998 11.98 9.79998 12.74C9.79998 13.2867 9.67998 13.7867 9.43998 14.24C9.21331 14.68 8.83998 15.0267 8.31998 15.28C7.81331 15.5333 7.12665 15.66 6.25998 15.66C5.68664 15.66 5.11331 15.6 4.53998 15.48C3.97998 15.36 3.39998 15.1667 2.79998 14.9L3.23998 13.54C3.81331 13.7667 4.33331 13.9333 4.79998 14.04C5.26664 14.1467 5.73998 14.2 6.21998 14.2ZM21.2533 15.1C20.5066 15.4733 19.7133 15.66 18.8733 15.66C18.1533 15.66 17.5866 15.5133 17.1733 15.22C16.7733 14.9267 16.4866 14.5333 16.3133 14.04C16.1533 13.5467 16.0733 13 16.0733 12.4V6.99999H14.3533V5.55999H16.0733V2.79999H17.7133V5.55999H20.9533V6.99999H17.7133V12.34C17.7133 13.0333 17.8266 13.5133 18.0533 13.78C18.2933 14.0333 18.6599 14.16 19.1533 14.16C19.3933 14.16 19.6399 14.1333 19.8933 14.08C20.1599 14.0133 20.4466 13.9067 20.7533 13.76L21.2533 15.1ZM34.0509 15.56C33.4376 15.56 32.9442 15.42 32.5709 15.14C32.2109 14.86 31.9576 14.5133 31.8109 14.1C31.1576 14.6733 30.5642 15.08 30.0309 15.32C29.4976 15.5467 28.9642 15.66 28.4309 15.66C27.5642 15.66 26.9242 15.38 26.5109 14.82C26.0976 14.26 25.8909 13.5733 25.8909 12.76C25.8909 12.2133 25.9909 11.7267 26.1909 11.3C26.3909 10.8733 26.7309 10.54 27.2109 10.3C27.6909 10.0467 28.3376 9.91999 29.1509 9.91999C29.5109 9.91999 29.9042 9.94666 30.3309 9.99999C30.7576 10.04 31.1909 10.0933 31.6309 10.16V8.81999C31.6309 8.07332 31.4642 7.56666 31.1309 7.29999C30.8109 7.01999 30.3376 6.87999 29.7109 6.87999C28.8576 6.87999 27.9042 7.11332 26.8509 7.57999L26.3309 6.21999C26.9442 5.93999 27.5309 5.72666 28.0909 5.57999C28.6509 5.43332 29.2176 5.35999 29.7909 5.35999C30.7242 5.35999 31.4376 5.51332 31.9309 5.81999C32.4242 6.12666 32.7642 6.53332 32.9509 7.03999C33.1376 7.54666 33.2309 8.09999 33.2309 8.69999V12.98C33.2309 13.2867 33.2909 13.5467 33.4109 13.76C33.5309 13.96 33.7709 14.06 34.1309 14.06H34.3509V15.56H34.0509ZM27.5109 12.74C27.5109 13.1933 27.6176 13.56 27.8309 13.84C28.0442 14.12 28.3509 14.26 28.7509 14.26C29.0976 14.26 29.4976 14.16 29.9509 13.96C30.4042 13.7467 30.9642 13.3267 31.6309 12.7V11.44C30.7242 11.2933 29.9242 11.22 29.2309 11.22C28.6176 11.22 28.1776 11.3467 27.9109 11.6C27.6442 11.8533 27.5109 12.2333 27.5109 12.74ZM45.2742 6.99999C44.6742 6.99999 44.0875 7.10666 43.5142 7.31999C42.9542 7.53332 42.3542 7.93999 41.7142 8.53999V15.46H40.0742V5.55999H41.6342V7.15999C42.3142 6.49332 42.9342 6.02666 43.4942 5.75999C44.0675 5.49332 44.6609 5.35999 45.2742 5.35999V6.99999ZM56.2579 15.1C55.5113 15.4733 54.7179 15.66 53.8779 15.66C53.1579 15.66 52.5913 15.5133 52.1779 15.22C51.7779 14.9267 51.4913 14.5333 51.3179 14.04C51.1579 13.5467 51.0779 13 51.0779 12.4V6.99999H49.3579V5.55999H51.0779V2.79999H52.7179V5.55999H55.9579V6.99999H52.7179V12.34C52.7179 13.0333 52.8313 13.5133 53.0579 13.78C53.2979 14.0333 53.6646 14.16 54.1579 14.16C54.3979 14.16 54.6446 14.1333 54.8979 14.08C55.1646 14.0133 55.4513 13.9067 55.7579 13.76L56.2579 15.1Z" fill="#160D59"/>
</g>
<defs>
<filter id="filter0_g_6_17" x="-1.21593e-05" y="-1.21593e-05" width="59.0579" height="18.46" filterUnits="userSpaceOnUse" color-interpolation-filters="sRGB">
<feFlood flood-opacity="0" result="BackgroundImageFix"/>
<feBlend mode="normal" in="SourceGraphic" in2="BackgroundImageFix" result="shape"/>
<feTurbulence type="fractalNoise" baseFrequency="0.99900001287460327 0.99900001287460327" numOctaves="3" seed="9141" />
<feDisplacementMap in="shape" scale="5.5999999046325684" xChannelSelector="R" yChannelSelector="G" result="displacedImage" width="100%" height="100%" />
<feMerge result="effect1_texture_6_17">
<feMergeNode in="displacedImage"/>
</feMerge>
</filter>
</defs>
</svg>
